G04*
G04 #@! TF.GenerationSoftware,Altium Limited,Altium Designer,22.1.2 (22)*
G04*
G04 Layer_Color=8388736*
%FSLAX25Y25*%
%MOIN*%
G70*
G04*
G04 #@! TF.SameCoordinates,116BC8F2-B144-4446-8F30-5785F86A2056*
G04*
G04*
G04 #@! TF.FilePolarity,Negative*
G04*
G01*
G75*
%ADD38C,0.05000*%
%ADD54R,0.03150X0.02362*%
%ADD55R,0.02264X0.01378*%
%ADD56R,0.01378X0.02264*%
%ADD57R,0.03961X0.04351*%
%ADD58R,0.01968X0.01968*%
%ADD68R,0.01968X0.01968*%
%ADD73R,0.04129X0.07549*%
%ADD74R,0.07321X0.04246*%
%ADD75R,0.04330X0.07330*%
%ADD76R,0.07341X0.04198*%
%ADD77R,0.06037X0.02846*%
%ADD78R,0.02528X0.07485*%
%ADD79R,0.02556X0.06850*%
%ADD80R,0.06574X0.03646*%
%ADD81R,0.38204X0.05034*%
%ADD82R,0.12634X0.06173*%
%ADD83R,0.04629X0.11000*%
%ADD84R,0.11900X0.04629*%
%ADD85R,0.04703X0.11200*%
%ADD86R,0.11900X0.04556*%
%ADD87R,0.09461X0.11430*%
%ADD88R,0.09300X0.09300*%
%ADD89R,0.04600X0.02300*%
%ADD90R,0.02300X0.04600*%
%ADD91R,0.08874X0.08874*%
%ADD92R,0.08674X0.08674*%
%ADD93R,0.05524X0.03556*%
%ADD94R,0.03556X0.05524*%
%ADD95R,0.14186X0.06706*%
%ADD96R,0.14580X0.04737*%
%ADD97R,0.07244X0.07244*%
%ADD98O,0.03898X0.01654*%
%ADD99O,0.01654X0.03898*%
%ADD100R,0.03556X0.04343*%
%ADD101R,0.02572X0.02572*%
%ADD102R,0.04737X0.04343*%
%ADD103R,0.05131X0.05131*%
%ADD104R,0.03359X0.04934*%
%ADD105R,0.03556X0.03162*%
%ADD106R,0.03556X0.04737*%
%ADD107R,0.06312X0.04737*%
%ADD108R,0.08280X0.06115*%
%ADD109R,0.05524X0.04737*%
%ADD110R,0.06902X0.06115*%
%ADD111R,0.04147X0.05131*%
%ADD112R,0.03753X0.05131*%
%ADD113R,0.05406X0.07887*%
%ADD114R,0.05524X0.05524*%
%ADD115R,0.02375X0.06115*%
%ADD116R,0.09068X0.08674*%
%ADD117R,0.07099X0.08280*%
%ADD118R,0.05524X0.08280*%
%ADD119R,0.03320X0.03635*%
%ADD120C,0.10000*%
%ADD121R,0.04095X0.06850*%
%ADD122R,0.02520X0.01654*%
%ADD123R,0.13200X0.22500*%
%ADD124R,0.02375X0.01784*%
%ADD125R,0.07102X0.10646*%
%ADD126R,0.04147X0.04343*%
%ADD127R,0.03005X0.02847*%
%ADD128R,0.05328X0.06509*%
%ADD129R,0.08280X0.05131*%
%ADD130R,0.10249X0.12217*%
%ADD131R,0.04343X0.04737*%
%ADD132R,0.06509X0.05328*%
%ADD133R,0.05524X0.05524*%
%ADD134R,0.05131X0.05131*%
%ADD135R,0.02572X0.02572*%
%ADD136R,0.07887X0.07887*%
%ADD137C,0.07887*%
%ADD138C,0.05839*%
%ADD139O,0.12212X0.06306*%
%ADD140O,0.06306X0.12212*%
%ADD141O,0.05131X0.09461*%
%ADD142R,0.04760X0.04760*%
%ADD143C,0.04760*%
%ADD144C,0.14973*%
%ADD145C,0.02800*%
%ADD146C,0.02551*%
G36*
X188500Y94600D02*
X181274D01*
Y116800D01*
X188500D01*
Y94600D01*
D02*
G37*
D38*
X123163Y90601D02*
D03*
X32886Y180000D02*
D03*
X71100Y162700D02*
D03*
X34800Y162800D02*
D03*
X64136D02*
D03*
X117800Y237500D02*
D03*
X200300Y233287D02*
D03*
X140000Y222600D02*
D03*
X199300Y256900D02*
D03*
X200159Y248213D02*
D03*
X200259Y240500D02*
D03*
X200300Y219530D02*
D03*
X38100Y74300D02*
D03*
X20300Y73700D02*
D03*
X137800Y132934D02*
D03*
Y126301D02*
D03*
X137700Y119175D02*
D03*
X68700Y92200D02*
D03*
X257894Y149500D02*
D03*
X69434Y34488D02*
D03*
X250350Y190550D02*
D03*
X62300Y45822D02*
D03*
D54*
X28100Y48500D02*
D03*
Y42988D02*
D03*
D55*
X47415Y36440D02*
D03*
X54600D02*
D03*
Y34454D02*
D03*
Y32470D02*
D03*
X47415Y32485D02*
D03*
Y34454D02*
D03*
D56*
X53960Y29877D02*
D03*
X51992D02*
D03*
X50023D02*
D03*
X48040D02*
D03*
X48000Y39031D02*
D03*
X50023D02*
D03*
X51992D02*
D03*
X53970D02*
D03*
D57*
X216334Y103028D02*
D03*
Y108545D02*
D03*
D58*
X50023Y48500D02*
D03*
X46086D02*
D03*
D68*
X39100Y30517D02*
D03*
Y34454D02*
D03*
D73*
X83501Y222015D02*
D03*
D74*
X88644Y216924D02*
D03*
D75*
X93927Y221922D02*
D03*
D76*
X88570Y227201D02*
D03*
D77*
X167510Y139785D02*
D03*
D78*
X220738Y117649D02*
D03*
D79*
X228223Y117953D02*
D03*
D80*
X226087Y127777D02*
D03*
D81*
X175798Y259117D02*
D03*
D82*
X42952Y248273D02*
D03*
D83*
X178548Y148000D02*
D03*
D84*
X186150Y155682D02*
D03*
D85*
X193551Y148100D02*
D03*
D86*
X186150Y140678D02*
D03*
D87*
X249314Y94361D02*
D03*
Y114439D02*
D03*
D88*
X186044Y148200D02*
D03*
D89*
X193544Y152000D02*
D03*
Y149500D02*
D03*
Y146900D02*
D03*
Y144400D02*
D03*
X178544D02*
D03*
Y146900D02*
D03*
Y149500D02*
D03*
Y152000D02*
D03*
D90*
X189844Y140700D02*
D03*
X187344D02*
D03*
X184744D02*
D03*
X182244D02*
D03*
Y155700D02*
D03*
X184744D02*
D03*
X187344D02*
D03*
X189844D02*
D03*
D91*
X47108Y132338D02*
D03*
X55841D02*
D03*
X47108Y123747D02*
D03*
X55841D02*
D03*
D92*
X95360Y131527D02*
D03*
X106600D02*
D03*
X95360Y120015D02*
D03*
X106600D02*
D03*
D93*
X126502Y109312D02*
D03*
Y151831D02*
D03*
Y147107D02*
D03*
Y142383D02*
D03*
Y137658D02*
D03*
Y132934D02*
D03*
Y128209D02*
D03*
Y123485D02*
D03*
Y118761D02*
D03*
Y114036D02*
D03*
Y104587D02*
D03*
D94*
X31065Y154603D02*
D03*
X35789D02*
D03*
X40514D02*
D03*
X45238D02*
D03*
X49963D02*
D03*
X54687D02*
D03*
X59412D02*
D03*
X64136D02*
D03*
X68860D02*
D03*
X73585D02*
D03*
X78309D02*
D03*
X83034D02*
D03*
X87758D02*
D03*
X92482D02*
D03*
X97207D02*
D03*
X101931D02*
D03*
X106656D02*
D03*
X111380D02*
D03*
X116104D02*
D03*
X120829D02*
D03*
Y101847D02*
D03*
X116104D02*
D03*
X111380D02*
D03*
X106656D02*
D03*
X101931D02*
D03*
X97207D02*
D03*
X92482D02*
D03*
X87758D02*
D03*
X83034D02*
D03*
X78309D02*
D03*
X73585D02*
D03*
X68860D02*
D03*
X64136D02*
D03*
X59412D02*
D03*
X54687D02*
D03*
X49963D02*
D03*
X45238D02*
D03*
X40514D02*
D03*
X35789D02*
D03*
X31065D02*
D03*
D95*
X289900Y191326D02*
D03*
Y149200D02*
D03*
Y201600D02*
D03*
Y243726D02*
D03*
D96*
X268050Y182074D02*
D03*
Y174200D02*
D03*
Y166326D02*
D03*
Y158452D02*
D03*
Y210852D02*
D03*
Y218726D02*
D03*
Y226600D02*
D03*
Y234474D02*
D03*
D97*
X88600Y222000D02*
D03*
D98*
X94407Y224953D02*
D03*
Y222984D02*
D03*
Y221016D02*
D03*
Y219047D02*
D03*
X82793D02*
D03*
Y221016D02*
D03*
Y222984D02*
D03*
Y224953D02*
D03*
D99*
X91553Y216193D02*
D03*
X89584D02*
D03*
X87616D02*
D03*
X85647D02*
D03*
Y227807D02*
D03*
X87616D02*
D03*
X89584D02*
D03*
X91553D02*
D03*
D100*
X223752Y109083D02*
D03*
X229264D02*
D03*
X174756Y133600D02*
D03*
X169244D02*
D03*
D101*
X200641Y147400D02*
D03*
Y144250D02*
D03*
D102*
X210300Y75450D02*
D03*
Y81750D02*
D03*
X103100Y218653D02*
D03*
Y224953D02*
D03*
X39400Y219450D02*
D03*
Y225750D02*
D03*
X45900D02*
D03*
Y219450D02*
D03*
X27754Y202806D02*
D03*
Y196507D02*
D03*
X12557Y215440D02*
D03*
Y209140D02*
D03*
X117700Y39350D02*
D03*
Y45650D02*
D03*
X129850Y251713D02*
D03*
Y258013D02*
D03*
X89000Y39350D02*
D03*
Y45650D02*
D03*
X27754Y209358D02*
D03*
Y215658D02*
D03*
X20050Y209140D02*
D03*
Y215440D02*
D03*
X113400Y224850D02*
D03*
Y231150D02*
D03*
X229800Y248100D02*
D03*
Y241801D02*
D03*
X229900Y234899D02*
D03*
Y228600D02*
D03*
X111080Y39376D02*
D03*
Y45675D02*
D03*
X125300Y46150D02*
D03*
Y39850D02*
D03*
X243100Y172550D02*
D03*
Y178850D02*
D03*
X81809Y201201D02*
D03*
Y207500D02*
D03*
X74963Y193257D02*
D03*
Y199556D02*
D03*
X201892Y187250D02*
D03*
Y180950D02*
D03*
X103100Y198750D02*
D03*
Y205050D02*
D03*
X120729Y187900D02*
D03*
Y181601D02*
D03*
X227500Y83850D02*
D03*
Y90150D02*
D03*
X37900Y49623D02*
D03*
Y55922D02*
D03*
X70000Y27950D02*
D03*
Y21650D02*
D03*
X62400Y52773D02*
D03*
Y59072D02*
D03*
X276600Y82150D02*
D03*
Y75850D02*
D03*
X103500Y45387D02*
D03*
Y39088D02*
D03*
X62400Y21344D02*
D03*
Y15044D02*
D03*
X96432Y45387D02*
D03*
Y39088D02*
D03*
X104900Y182150D02*
D03*
Y188450D02*
D03*
D103*
X280800Y30857D02*
D03*
Y37943D02*
D03*
D104*
X96432Y13631D02*
D03*
Y29969D02*
D03*
X87968D02*
D03*
Y13631D02*
D03*
X170624Y151841D02*
D03*
X163931D02*
D03*
X117068Y13131D02*
D03*
Y29469D02*
D03*
X125532D02*
D03*
Y13131D02*
D03*
D105*
X38451Y231713D02*
D03*
X46325Y239193D02*
D03*
X38451D02*
D03*
D106*
X46325Y232500D02*
D03*
D107*
X21736Y182929D02*
D03*
X11500D02*
D03*
D108*
X185655Y216491D02*
D03*
X162152D02*
D03*
D109*
X148372Y234896D02*
D03*
Y220329D02*
D03*
D110*
X149061Y258617D02*
D03*
D111*
X158746Y259109D02*
D03*
X163077D02*
D03*
X167408D02*
D03*
X171738D02*
D03*
X176069D02*
D03*
X180400D02*
D03*
X184730D02*
D03*
D112*
X188864D02*
D03*
D113*
X193628Y257731D02*
D03*
D114*
X121582Y170500D02*
D03*
X129850D02*
D03*
X113178D02*
D03*
X104910D02*
D03*
X38666Y197100D02*
D03*
X46934D02*
D03*
D115*
X37840Y248269D02*
D03*
X40399D02*
D03*
X42958D02*
D03*
X45517D02*
D03*
X48076D02*
D03*
D116*
X30754Y249548D02*
D03*
X55163D02*
D03*
D117*
X26816Y258800D02*
D03*
X59100D02*
D03*
D118*
X39612D02*
D03*
X46305D02*
D03*
D119*
X224472Y127800D02*
D03*
X227928D02*
D03*
D120*
X7200Y243099D02*
D03*
X8800Y25100D02*
D03*
X273300Y259800D02*
D03*
D121*
X224472Y117600D02*
D03*
D122*
X228212Y120553D02*
D03*
Y118584D02*
D03*
Y116616D02*
D03*
Y114647D02*
D03*
X220731D02*
D03*
Y116616D02*
D03*
Y118584D02*
D03*
Y120553D02*
D03*
D123*
X144500Y184100D02*
D03*
X182500D02*
D03*
D124*
X37170Y213200D02*
D03*
Y211428D02*
D03*
Y209657D02*
D03*
Y207885D02*
D03*
Y206113D02*
D03*
Y204342D02*
D03*
X47800D02*
D03*
Y206113D02*
D03*
Y207885D02*
D03*
Y209657D02*
D03*
Y211428D02*
D03*
Y213200D02*
D03*
D125*
X42485Y208771D02*
D03*
D126*
X205759Y153600D02*
D03*
X200641D02*
D03*
D127*
X165965Y139800D02*
D03*
X169035D02*
D03*
D128*
X77128Y234250D02*
D03*
X70041D02*
D03*
X19643Y191329D02*
D03*
X12557D02*
D03*
X38343Y92200D02*
D03*
X31257D02*
D03*
X38143Y83400D02*
D03*
X31057D02*
D03*
D129*
X137286Y152000D02*
D03*
Y142157D02*
D03*
D130*
X225908Y167200D02*
D03*
X201892D02*
D03*
D131*
X21201Y231379D02*
D03*
X27500D02*
D03*
X12850Y199750D02*
D03*
X19150D02*
D03*
X21650Y222029D02*
D03*
X27950D02*
D03*
X58650Y236800D02*
D03*
X52350D02*
D03*
X145301Y142100D02*
D03*
X151600D02*
D03*
Y148528D02*
D03*
X145301D02*
D03*
X45873Y184600D02*
D03*
X39573D02*
D03*
X109750Y85100D02*
D03*
X116050D02*
D03*
X58800Y86968D02*
D03*
X52500D02*
D03*
X133350Y239000D02*
D03*
X139650D02*
D03*
X133450Y229500D02*
D03*
X139750D02*
D03*
X108699Y212314D02*
D03*
X102400D02*
D03*
X96950Y233400D02*
D03*
X103250D02*
D03*
X251595Y158452D02*
D03*
X257894D02*
D03*
X256800Y181750D02*
D03*
X250500D02*
D03*
X197895Y90601D02*
D03*
X204194D02*
D03*
X193941Y78800D02*
D03*
X200240D02*
D03*
D132*
X72200Y215557D02*
D03*
Y222643D02*
D03*
D133*
X88600Y205677D02*
D03*
Y197409D02*
D03*
X96290Y196718D02*
D03*
Y188450D02*
D03*
X101931Y85082D02*
D03*
Y93350D02*
D03*
D134*
X277057Y67300D02*
D03*
X284143D02*
D03*
D135*
X179025Y133100D02*
D03*
X182175D02*
D03*
D136*
X87800Y250500D02*
D03*
D137*
X97800D02*
D03*
X107800D02*
D03*
D138*
X247700Y58742D02*
D03*
Y39057D02*
D03*
D139*
X208735Y44374D02*
D03*
Y36500D02*
D03*
Y28626D02*
D03*
D140*
X165526Y71342D02*
D03*
X173402D02*
D03*
X181274D02*
D03*
D141*
X290900Y54900D02*
D03*
X285900D02*
D03*
X280900D02*
D03*
D142*
X182344Y115654D02*
D03*
D143*
Y110654D02*
D03*
X187344Y115654D02*
D03*
Y110654D02*
D03*
Y100654D02*
D03*
Y105654D02*
D03*
X182344Y100654D02*
D03*
Y105654D02*
D03*
Y95654D02*
D03*
X187344D02*
D03*
D144*
X289200Y9300D02*
D03*
X8800Y10100D02*
D03*
X8252Y256768D02*
D03*
X289300Y256900D02*
D03*
D145*
X88600Y222000D02*
D03*
X90569Y220031D02*
D03*
X86632Y220031D02*
D03*
X86632Y223969D02*
D03*
X90569Y223969D02*
D03*
X44453Y212314D02*
D03*
Y208771D02*
D03*
Y205228D02*
D03*
X40516D02*
D03*
Y208771D02*
D03*
Y212314D02*
D03*
D146*
X224472Y119175D02*
D03*
Y116025D02*
D03*
M02*
