G04*
G04 #@! TF.GenerationSoftware,Altium Limited,Altium Designer,22.2.1 (43)*
G04*
G04 Layer_Physical_Order=4*
G04 Layer_Color=16711680*
%FSLAX25Y25*%
%MOIN*%
G70*
G04*
G04 #@! TF.SameCoordinates,9584CBA6-E8C1-4CB1-A2AA-B777170A1881*
G04*
G04*
G04 #@! TF.FilePolarity,Positive*
G04*
G01*
G75*
%ADD10C,0.01000*%
%ADD158C,0.03960*%
%ADD159R,0.03960X0.03960*%
%ADD160O,0.11812X0.05906*%
%ADD161O,0.05906X0.11812*%
%ADD162C,0.07087*%
%ADD163R,0.07087X0.07087*%
%ADD164C,0.05039*%
%ADD165O,0.04331X0.08661*%
%ADD166C,0.14173*%
%ADD167C,0.02000*%
%ADD168C,0.01700*%
D10*
X187344Y115654D02*
X193200Y115654D01*
X187344Y110654D02*
X192178D01*
X181535Y128804D02*
X183404D01*
X234200Y179600D01*
X90176Y107000D02*
X208100Y224924D01*
Y226100D01*
X80000Y107000D02*
X90176D01*
X85896Y166800D02*
X92500D01*
X62341Y100178D02*
Y143245D01*
X85896Y166800D01*
X66100Y97149D02*
X101863Y132912D01*
Y149354D01*
X92500Y166800D02*
X92600Y166700D01*
X63941Y140517D02*
X71374Y147950D01*
X82793D01*
X185020Y92721D02*
X187344Y95045D01*
Y95654D01*
X137700Y109083D02*
X149425D01*
X159729Y123200D02*
X160000D01*
X151700Y122320D02*
X158849D01*
X159729Y123200D01*
X149425Y109083D02*
X198682Y158341D01*
X151700Y126301D02*
X160799D01*
X198682Y158341D02*
Y166682D01*
X160799Y126301D02*
X160800Y126300D01*
X192178Y110654D02*
X199124Y117600D01*
X193200Y115654D02*
X193800Y116254D01*
Y126301D01*
X116304Y94800D02*
X139456D01*
X208370Y149700D02*
X246400D01*
X130930Y78200D02*
X181535Y128804D01*
X75760Y78200D02*
X130930D01*
X139456Y94800D02*
X200282Y155626D01*
X134770Y76100D02*
X208370Y149700D01*
X97207Y76100D02*
X134770D01*
X155500Y92611D02*
X155537Y92574D01*
X185026D01*
X110021Y164000D02*
X110821Y163200D01*
X132963D01*
X109750Y164000D02*
X110021D01*
X200282Y160482D02*
X250400Y210600D01*
X161300Y137600D02*
X250300Y226600D01*
X198682Y166682D02*
X250900Y218900D01*
X138144Y137600D02*
X161300D01*
X87414Y211333D02*
X87684D01*
X97207Y164000D02*
X162500Y229293D01*
Y245500D01*
X56284Y209657D02*
X56476Y209465D01*
Y207282D02*
Y209465D01*
X57467Y178000D02*
Y206291D01*
X56476Y207282D02*
X57467Y206291D01*
X68860Y85100D02*
X75760Y78200D01*
X83034Y94600D02*
X90600D01*
X224000Y228000D01*
X208100Y226100D02*
X224000Y242000D01*
X65541Y131841D02*
X68700Y135000D01*
X65541Y98853D02*
Y131841D01*
X63941Y99516D02*
Y140517D01*
X64500Y97812D02*
X65541Y98853D01*
X62900Y98475D02*
X63941Y99516D01*
X46900Y163630D02*
X142900Y259630D01*
X61300Y99137D02*
X62341Y100178D01*
X46900Y87000D02*
Y163630D01*
X200282Y155626D02*
Y160482D01*
X137800Y137944D02*
X138144Y137600D01*
X61300Y71670D02*
X72500Y60470D01*
X61300Y71670D02*
Y99137D01*
X64500Y72996D02*
X81700Y55796D01*
X66100Y75473D02*
Y97149D01*
Y75473D02*
X88800Y52773D01*
X64500Y72996D02*
Y97812D01*
X62900Y72333D02*
Y98475D01*
Y72333D02*
X79200Y56033D01*
X78879Y222821D02*
X78883Y222825D01*
X142900Y259630D02*
Y262600D01*
X139746Y46154D02*
Y46532D01*
X113178Y73100D02*
X139746Y46532D01*
X106600Y160460D02*
X106871D01*
X107431Y159900D02*
X132800D01*
X106871Y160460D02*
X107431Y159900D01*
X139746Y46154D02*
X164900Y21000D01*
X280900D01*
X81700Y15500D02*
Y55796D01*
Y15500D02*
X81800Y15400D01*
X72500Y46000D02*
Y60470D01*
X79200Y34500D02*
Y56033D01*
X116104Y94600D02*
X116304Y94800D01*
D158*
X187344Y95654D02*
D03*
X182344D02*
D03*
Y105654D02*
D03*
Y100654D02*
D03*
X187344Y105654D02*
D03*
Y100654D02*
D03*
Y110654D02*
D03*
Y115654D02*
D03*
X182344Y110654D02*
D03*
D159*
Y115654D02*
D03*
D160*
X208735Y28626D02*
D03*
Y36500D02*
D03*
Y44374D02*
D03*
D161*
X181274Y71342D02*
D03*
X173402D02*
D03*
X165526D02*
D03*
D162*
X107800Y250500D02*
D03*
X97800D02*
D03*
D163*
X87800D02*
D03*
D164*
X247700Y39057D02*
D03*
Y58742D02*
D03*
D165*
X280900Y54900D02*
D03*
X285900D02*
D03*
X290900D02*
D03*
D166*
X289200Y9300D02*
D03*
X8800Y10100D02*
D03*
X8252Y256768D02*
D03*
X289300Y256900D02*
D03*
D167*
X26800Y124202D02*
D03*
X32886Y196494D02*
D03*
X18500Y81500D02*
D03*
X10161D02*
D03*
X1841D02*
D03*
X10161Y174120D02*
D03*
X18480D02*
D03*
X1841D02*
D03*
X26800D02*
D03*
Y165800D02*
D03*
Y82603D02*
D03*
Y90923D02*
D03*
Y99243D02*
D03*
Y107562D02*
D03*
Y115882D02*
D03*
Y132521D02*
D03*
Y140841D02*
D03*
Y149161D02*
D03*
Y157480D02*
D03*
X87925Y6120D02*
D03*
X21236Y249548D02*
D03*
X243100Y167200D02*
D03*
X245662Y158452D02*
D03*
X234200Y179600D02*
D03*
X212000Y153700D02*
D03*
X233800Y167200D02*
D03*
X11500Y222383D02*
D03*
X120829Y107000D02*
D03*
X106656D02*
D03*
X93974Y113768D02*
D03*
X105046Y113404D02*
D03*
X112743Y122320D02*
D03*
X88900Y126301D02*
D03*
X44349Y117300D02*
D03*
X44424Y139700D02*
D03*
X66978Y251700D02*
D03*
X73585Y150082D02*
D03*
X112743Y133700D02*
D03*
X55650Y139700D02*
D03*
X55840Y117300D02*
D03*
X40808Y123747D02*
D03*
X101863Y149354D02*
D03*
X92600Y166700D02*
D03*
X82793Y147950D02*
D03*
X228320Y136978D02*
D03*
X224731Y139655D02*
D03*
X227928Y142100D02*
D03*
X160000Y123200D02*
D03*
X160799Y126301D02*
D03*
X236200Y80500D02*
D03*
X238150Y83098D02*
D03*
X234200D02*
D03*
X8252Y196494D02*
D03*
X12557Y204667D02*
D03*
X116050Y90601D02*
D03*
X199124Y117600D02*
D03*
X193800Y126301D02*
D03*
X151700Y122320D02*
D03*
Y126301D02*
D03*
X59200Y95654D02*
D03*
X132963Y163200D02*
D03*
X155500Y92611D02*
D03*
X243100Y190700D02*
D03*
X207632Y189821D02*
D03*
X210500Y191326D02*
D03*
Y194000D02*
D03*
X207400Y192500D02*
D03*
X250900Y218900D02*
D03*
X250400Y210600D02*
D03*
X173838Y141487D02*
D03*
Y146400D02*
D03*
X170528Y143450D02*
D03*
X112500Y188357D02*
D03*
X98557Y219047D02*
D03*
X87684Y211333D02*
D03*
X73622Y95654D02*
D03*
X87300Y235184D02*
D03*
X85600Y232200D02*
D03*
X82793Y235184D02*
D03*
X162500Y245500D02*
D03*
X97207Y164000D02*
D03*
X52000Y207500D02*
D03*
X23000Y204417D02*
D03*
X32886Y188357D02*
D03*
X31000Y185686D02*
D03*
X28887Y188357D02*
D03*
X56284Y209657D02*
D03*
X57467Y178000D02*
D03*
X33600Y205050D02*
D03*
X19600Y204217D02*
D03*
X77100Y251713D02*
D03*
X72200Y251700D02*
D03*
X74464Y254805D02*
D03*
X69541Y254863D02*
D03*
X127486Y211775D02*
D03*
X125000Y214884D02*
D03*
X123000Y211814D02*
D03*
X120179Y214884D02*
D03*
X37900Y64000D02*
D03*
X29500Y71820D02*
D03*
X83034Y94600D02*
D03*
X224000Y228000D02*
D03*
X80000Y107000D02*
D03*
X224000Y242000D02*
D03*
X88900Y131500D02*
D03*
X40772Y132338D02*
D03*
X120829Y150082D02*
D03*
X40516Y212314D02*
D03*
Y208771D02*
D03*
Y205228D02*
D03*
X44453D02*
D03*
Y208771D02*
D03*
Y212314D02*
D03*
X90569Y223969D02*
D03*
X86632Y223969D02*
D03*
X86632Y220031D02*
D03*
X90569Y220031D02*
D03*
X88600Y222000D02*
D03*
X224472Y116025D02*
D03*
Y119175D02*
D03*
X206000Y226600D02*
D03*
X151700Y133600D02*
D03*
X117100Y6000D02*
D03*
X196800Y85200D02*
D03*
X68860Y85100D02*
D03*
X207400Y244700D02*
D03*
X31000Y76100D02*
D03*
X45500Y80100D02*
D03*
X78883Y222825D02*
D03*
X122100Y251700D02*
D03*
X138400Y258100D02*
D03*
X207632Y252550D02*
D03*
X255400Y173800D02*
D03*
X215000Y116500D02*
D03*
X276600Y89600D02*
D03*
X220000Y28700D02*
D03*
X88800Y52773D02*
D03*
X113178Y73100D02*
D03*
X68700Y135000D02*
D03*
X106656Y32485D02*
D03*
X106600Y160460D02*
D03*
X132800Y159900D02*
D03*
X109750Y164000D02*
D03*
X142900Y262600D02*
D03*
X46900Y87000D02*
D03*
X77400Y21800D02*
D03*
X97207Y76100D02*
D03*
X246400Y149700D02*
D03*
X137800Y137944D02*
D03*
X290600Y38600D02*
D03*
X81800Y15400D02*
D03*
X72500Y46000D02*
D03*
X79200Y34500D02*
D03*
X55700Y48400D02*
D03*
X250400Y234900D02*
D03*
X280900Y21000D02*
D03*
X116104Y94600D02*
D03*
X137700Y109083D02*
D03*
X250300Y226600D02*
D03*
D168*
X85951Y212796D02*
X87414Y211333D01*
X84904Y212796D02*
X85951D01*
X78879Y218821D02*
X84904Y212796D01*
X78879Y218821D02*
Y222821D01*
M02*
