G04*
G04 #@! TF.GenerationSoftware,Altium Limited,Altium Designer,22.2.1 (43)*
G04*
G04 Layer_Color=8388736*
%FSLAX25Y25*%
%MOIN*%
G70*
G04*
G04 #@! TF.SameCoordinates,9584CBA6-E8C1-4CB1-A2AA-B777170A1881*
G04*
G04*
G04 #@! TF.FilePolarity,Negative*
G04*
G01*
G75*
%ADD30R,0.01378X0.02264*%
%ADD31R,0.02264X0.01378*%
%ADD42R,0.03961X0.04351*%
%ADD54R,0.01968X0.01968*%
%ADD63R,0.03150X0.02362*%
%ADD68C,0.05000*%
%ADD71R,0.01968X0.01968*%
%ADD73R,0.04129X0.07549*%
%ADD74R,0.07321X0.04246*%
%ADD75R,0.04330X0.07330*%
%ADD76R,0.07341X0.04198*%
%ADD77R,0.06037X0.02846*%
%ADD78R,0.02528X0.07485*%
%ADD79R,0.02556X0.06850*%
%ADD80R,0.06574X0.03646*%
%ADD81R,0.38204X0.05034*%
%ADD82R,0.12634X0.06173*%
%ADD83R,0.04629X0.11000*%
%ADD84R,0.11900X0.04629*%
%ADD85R,0.04703X0.11200*%
%ADD86R,0.11900X0.04556*%
%ADD87R,0.03556X0.05524*%
%ADD88R,0.05524X0.03556*%
%ADD89R,0.08674X0.08674*%
%ADD90R,0.08874X0.08874*%
%ADD91R,0.04737X0.04343*%
%ADD92R,0.04343X0.04737*%
%ADD93R,0.05328X0.06509*%
%ADD94R,0.05524X0.05524*%
%ADD95R,0.05524X0.05524*%
%ADD96R,0.14580X0.04737*%
%ADD97R,0.14186X0.06706*%
%ADD98R,0.02300X0.04600*%
%ADD99R,0.04600X0.02300*%
%ADD100R,0.09300X0.09300*%
%ADD101R,0.05524X0.08280*%
%ADD102R,0.07099X0.08280*%
%ADD103R,0.09068X0.08674*%
%ADD104R,0.02375X0.06115*%
%ADD105R,0.06312X0.04737*%
%ADD106R,0.05406X0.07887*%
%ADD107R,0.03753X0.05131*%
%ADD108R,0.04147X0.05131*%
%ADD109R,0.06902X0.06115*%
%ADD110R,0.05524X0.04737*%
%ADD111R,0.08280X0.06115*%
%ADD112R,0.07102X0.10646*%
%ADD113R,0.02375X0.01784*%
%ADD114R,0.03556X0.03162*%
%ADD115R,0.03556X0.04737*%
%ADD116R,0.03320X0.03635*%
%ADD117R,0.05131X0.05131*%
%ADD118O,0.01654X0.03898*%
%ADD119O,0.03898X0.01654*%
%ADD120R,0.07244X0.07244*%
%ADD121R,0.08280X0.05131*%
%ADD122C,0.10000*%
%ADD123R,0.03359X0.04934*%
%ADD124R,0.03005X0.02847*%
%ADD125R,0.04147X0.04343*%
%ADD126R,0.10249X0.12217*%
%ADD127R,0.09461X0.11430*%
%ADD128R,0.13200X0.22500*%
%ADD129R,0.03556X0.04343*%
%ADD130R,0.02572X0.02572*%
%ADD131R,0.02520X0.01654*%
%ADD132R,0.04095X0.06850*%
%ADD133R,0.06509X0.05328*%
%ADD134R,0.02572X0.02572*%
%ADD135R,0.05131X0.05131*%
%ADD136C,0.04760*%
%ADD137R,0.04760X0.04760*%
%ADD138O,0.12212X0.06306*%
%ADD139O,0.06306X0.12212*%
%ADD140C,0.07887*%
%ADD141R,0.07887X0.07887*%
%ADD142C,0.05839*%
%ADD143O,0.05131X0.09461*%
%ADD144C,0.14973*%
%ADD145C,0.02800*%
%ADD146C,0.02551*%
G36*
X188500Y94600D02*
X181274D01*
Y116800D01*
X188500D01*
Y94600D01*
D02*
G37*
D30*
X53970Y39031D02*
D03*
X51992D02*
D03*
X50023D02*
D03*
X48000D02*
D03*
X48040Y29877D02*
D03*
X50023D02*
D03*
X51992D02*
D03*
X53960D02*
D03*
D31*
X47415Y34454D02*
D03*
Y32485D02*
D03*
X54600Y32470D02*
D03*
Y34454D02*
D03*
Y36440D02*
D03*
X47415D02*
D03*
D42*
X216334Y108545D02*
D03*
Y103028D02*
D03*
D54*
X46086Y48500D02*
D03*
X50023D02*
D03*
D63*
X28100Y42988D02*
D03*
Y48500D02*
D03*
D68*
X123163Y90601D02*
D03*
X32886Y180000D02*
D03*
X200159Y248213D02*
D03*
X200300Y219530D02*
D03*
X200259Y240500D02*
D03*
X200300Y233287D02*
D03*
X38100Y74300D02*
D03*
X68700Y92200D02*
D03*
X257894Y149500D02*
D03*
X137800Y126301D02*
D03*
Y132934D02*
D03*
X137700Y119175D02*
D03*
X71100Y162700D02*
D03*
X64136Y162800D02*
D03*
X34800D02*
D03*
X20300Y73700D02*
D03*
X250350Y190550D02*
D03*
X69434Y34488D02*
D03*
X62300Y45822D02*
D03*
X140000Y222600D02*
D03*
X117800Y237500D02*
D03*
X199300Y256900D02*
D03*
D71*
X39100Y34454D02*
D03*
Y30517D02*
D03*
D73*
X83501Y222015D02*
D03*
D74*
X88644Y216924D02*
D03*
D75*
X93927Y221922D02*
D03*
D76*
X88570Y227201D02*
D03*
D77*
X167510Y139785D02*
D03*
D78*
X220738Y117649D02*
D03*
D79*
X228223Y117953D02*
D03*
D80*
X226087Y127777D02*
D03*
D81*
X175798Y259117D02*
D03*
D82*
X42952Y248273D02*
D03*
D83*
X178548Y148000D02*
D03*
D84*
X186150Y155682D02*
D03*
D85*
X193551Y148100D02*
D03*
D86*
X186150Y140678D02*
D03*
D87*
X31065Y101847D02*
D03*
X35789D02*
D03*
X40514D02*
D03*
X45238D02*
D03*
X49963D02*
D03*
X54687D02*
D03*
X59412D02*
D03*
X64136D02*
D03*
X68860D02*
D03*
X73585D02*
D03*
X78309D02*
D03*
X83034D02*
D03*
X87758D02*
D03*
X92482D02*
D03*
X97207D02*
D03*
X101931D02*
D03*
X106656D02*
D03*
X111380D02*
D03*
X116104D02*
D03*
X120829D02*
D03*
Y154603D02*
D03*
X116104D02*
D03*
X111380D02*
D03*
X106656D02*
D03*
X101931D02*
D03*
X97207D02*
D03*
X92482D02*
D03*
X87758D02*
D03*
X83034D02*
D03*
X78309D02*
D03*
X73585D02*
D03*
X68860D02*
D03*
X64136D02*
D03*
X59412D02*
D03*
X54687D02*
D03*
X49963D02*
D03*
X45238D02*
D03*
X40514D02*
D03*
X35789D02*
D03*
X31065D02*
D03*
D88*
X126502Y104587D02*
D03*
Y114036D02*
D03*
Y118761D02*
D03*
Y123485D02*
D03*
Y128209D02*
D03*
Y132934D02*
D03*
Y137658D02*
D03*
Y142383D02*
D03*
Y147107D02*
D03*
Y151831D02*
D03*
Y109312D02*
D03*
D89*
X106600Y120015D02*
D03*
X95360D02*
D03*
X106600Y131527D02*
D03*
X95360D02*
D03*
D90*
X55841Y123747D02*
D03*
X47108D02*
D03*
X55841Y132338D02*
D03*
X47108D02*
D03*
D91*
X243100Y178850D02*
D03*
Y172550D02*
D03*
X210300Y81750D02*
D03*
Y75450D02*
D03*
X129850Y258013D02*
D03*
Y251713D02*
D03*
X27754Y215658D02*
D03*
Y209358D02*
D03*
X20050Y215440D02*
D03*
Y209140D02*
D03*
X12557D02*
D03*
Y215440D02*
D03*
X27754Y196507D02*
D03*
Y202806D02*
D03*
X103100Y224953D02*
D03*
Y218653D02*
D03*
X104900Y188450D02*
D03*
Y182150D02*
D03*
X120729Y181601D02*
D03*
Y187900D02*
D03*
X229900Y228600D02*
D03*
Y234899D02*
D03*
X229800Y241801D02*
D03*
Y248100D02*
D03*
X125300Y39850D02*
D03*
Y46150D02*
D03*
X117700Y45650D02*
D03*
Y39350D02*
D03*
X111080Y45675D02*
D03*
Y39376D02*
D03*
X96432Y39088D02*
D03*
Y45387D02*
D03*
X89000Y45650D02*
D03*
Y39350D02*
D03*
X227500Y90150D02*
D03*
Y83850D02*
D03*
X201892Y180950D02*
D03*
Y187250D02*
D03*
X62400Y15044D02*
D03*
Y21344D02*
D03*
X70000Y21650D02*
D03*
Y27950D02*
D03*
X62400Y59072D02*
D03*
Y52773D02*
D03*
X37900Y55922D02*
D03*
Y49623D02*
D03*
X276600Y75850D02*
D03*
Y82150D02*
D03*
X103100Y205050D02*
D03*
Y198750D02*
D03*
X113400Y231150D02*
D03*
Y224850D02*
D03*
X81809Y207500D02*
D03*
Y201201D02*
D03*
X74963Y199556D02*
D03*
Y193257D02*
D03*
X103500Y39088D02*
D03*
Y45387D02*
D03*
X39400Y225750D02*
D03*
Y219450D02*
D03*
X45900D02*
D03*
Y225750D02*
D03*
D92*
X200240Y78800D02*
D03*
X193941D02*
D03*
X39573Y184600D02*
D03*
X45873D02*
D03*
X19150Y199750D02*
D03*
X12850D02*
D03*
X139750Y229500D02*
D03*
X133450D02*
D03*
X116050Y85100D02*
D03*
X109750D02*
D03*
X103250Y233400D02*
D03*
X96950D02*
D03*
X52350Y236800D02*
D03*
X58650D02*
D03*
X27950Y222029D02*
D03*
X21650D02*
D03*
X27500Y231379D02*
D03*
X21201D02*
D03*
X52500Y86968D02*
D03*
X58800D02*
D03*
X257894Y158452D02*
D03*
X251595D02*
D03*
X151600Y142100D02*
D03*
X145301D02*
D03*
Y148528D02*
D03*
X151600D02*
D03*
X204194Y90601D02*
D03*
X197895D02*
D03*
X250500Y181750D02*
D03*
X256800D02*
D03*
X139650Y239000D02*
D03*
X133350D02*
D03*
X102400Y212314D02*
D03*
X108699D02*
D03*
D93*
X31257Y92200D02*
D03*
X38343D02*
D03*
X31057Y83400D02*
D03*
X38143D02*
D03*
X12557Y191329D02*
D03*
X19643D02*
D03*
X70041Y234250D02*
D03*
X77128D02*
D03*
D94*
X46934Y197100D02*
D03*
X38666D02*
D03*
X129850Y170500D02*
D03*
X121582D02*
D03*
X104910D02*
D03*
X113178D02*
D03*
D95*
X96290Y188450D02*
D03*
Y196718D02*
D03*
X88600Y197409D02*
D03*
Y205677D02*
D03*
X101931Y93350D02*
D03*
Y85082D02*
D03*
D96*
X268050Y158452D02*
D03*
Y166326D02*
D03*
Y174200D02*
D03*
Y182074D02*
D03*
Y234474D02*
D03*
Y226600D02*
D03*
Y218726D02*
D03*
Y210852D02*
D03*
D97*
X289900Y149200D02*
D03*
Y191326D02*
D03*
Y243726D02*
D03*
Y201600D02*
D03*
D98*
X189844Y155700D02*
D03*
X187344D02*
D03*
X184744D02*
D03*
X182244D02*
D03*
Y140700D02*
D03*
X184744D02*
D03*
X187344D02*
D03*
X189844D02*
D03*
D99*
X178544Y152000D02*
D03*
Y149500D02*
D03*
Y146900D02*
D03*
Y144400D02*
D03*
X193544D02*
D03*
Y146900D02*
D03*
Y149500D02*
D03*
Y152000D02*
D03*
D100*
X186044Y148200D02*
D03*
D101*
X46305Y258800D02*
D03*
X39612D02*
D03*
D102*
X59100D02*
D03*
X26816D02*
D03*
D103*
X55163Y249548D02*
D03*
X30754D02*
D03*
D104*
X48076Y248269D02*
D03*
X45517D02*
D03*
X42958D02*
D03*
X40399D02*
D03*
X37840D02*
D03*
D105*
X11500Y182929D02*
D03*
X21736D02*
D03*
D106*
X193628Y257731D02*
D03*
D107*
X188864Y259109D02*
D03*
D108*
X184730D02*
D03*
X180400D02*
D03*
X176069D02*
D03*
X171738D02*
D03*
X167408D02*
D03*
X163077D02*
D03*
X158746D02*
D03*
D109*
X149061Y258617D02*
D03*
D110*
X148372Y220329D02*
D03*
Y234896D02*
D03*
D111*
X162152Y216491D02*
D03*
X185655D02*
D03*
D112*
X42485Y208771D02*
D03*
D113*
X47800Y213200D02*
D03*
Y211428D02*
D03*
Y209657D02*
D03*
Y207885D02*
D03*
Y206113D02*
D03*
Y204342D02*
D03*
X37170D02*
D03*
Y206113D02*
D03*
Y207885D02*
D03*
Y209657D02*
D03*
Y211428D02*
D03*
Y213200D02*
D03*
D114*
X38451Y239193D02*
D03*
X46325D02*
D03*
X38451Y231713D02*
D03*
D115*
X46325Y232500D02*
D03*
D116*
X227928Y127800D02*
D03*
X224472D02*
D03*
D117*
X280800Y37943D02*
D03*
Y30857D02*
D03*
D118*
X91553Y227807D02*
D03*
X89584D02*
D03*
X87616D02*
D03*
X85647D02*
D03*
Y216193D02*
D03*
X87616D02*
D03*
X89584D02*
D03*
X91553D02*
D03*
D119*
X82793Y224953D02*
D03*
Y222984D02*
D03*
Y221016D02*
D03*
Y219047D02*
D03*
X94407D02*
D03*
Y221016D02*
D03*
Y222984D02*
D03*
Y224953D02*
D03*
D120*
X88600Y222000D02*
D03*
D121*
X137286Y142157D02*
D03*
Y152000D02*
D03*
D122*
X7200Y243099D02*
D03*
X273300Y259800D02*
D03*
X8800Y25100D02*
D03*
D123*
X87968Y13631D02*
D03*
Y29969D02*
D03*
X96432D02*
D03*
Y13631D02*
D03*
X163931Y151841D02*
D03*
X170624D02*
D03*
X125532Y13131D02*
D03*
Y29469D02*
D03*
X117068D02*
D03*
Y13131D02*
D03*
D124*
X169035Y139800D02*
D03*
X165965D02*
D03*
D125*
X200641Y153600D02*
D03*
X205759D02*
D03*
D126*
X201892Y167200D02*
D03*
X225908D02*
D03*
D127*
X249314Y114439D02*
D03*
Y94361D02*
D03*
D128*
X182500Y184100D02*
D03*
X144500D02*
D03*
D129*
X229264Y109083D02*
D03*
X223752D02*
D03*
X169244Y133600D02*
D03*
X174756D02*
D03*
D130*
X200641Y144250D02*
D03*
Y147400D02*
D03*
D131*
X220731Y120553D02*
D03*
Y118584D02*
D03*
Y116616D02*
D03*
Y114647D02*
D03*
X228212D02*
D03*
Y116616D02*
D03*
Y118584D02*
D03*
Y120553D02*
D03*
D132*
X224472Y117600D02*
D03*
D133*
X72200Y222643D02*
D03*
Y215557D02*
D03*
D134*
X182175Y133100D02*
D03*
X179025D02*
D03*
D135*
X284143Y67300D02*
D03*
X277057D02*
D03*
D136*
X187344Y95654D02*
D03*
X182344D02*
D03*
Y105654D02*
D03*
Y100654D02*
D03*
X187344Y105654D02*
D03*
Y100654D02*
D03*
Y110654D02*
D03*
Y115654D02*
D03*
X182344Y110654D02*
D03*
D137*
Y115654D02*
D03*
D138*
X208735Y28626D02*
D03*
Y36500D02*
D03*
Y44374D02*
D03*
D139*
X181274Y71342D02*
D03*
X173402D02*
D03*
X165526D02*
D03*
D140*
X107800Y250500D02*
D03*
X97800D02*
D03*
D141*
X87800D02*
D03*
D142*
X247700Y39057D02*
D03*
Y58742D02*
D03*
D143*
X280900Y54900D02*
D03*
X285900D02*
D03*
X290900D02*
D03*
D144*
X289200Y9300D02*
D03*
X8800Y10100D02*
D03*
X8252Y256768D02*
D03*
X289300Y256900D02*
D03*
D145*
X40516Y212314D02*
D03*
Y208771D02*
D03*
Y205228D02*
D03*
X44453D02*
D03*
Y208771D02*
D03*
Y212314D02*
D03*
X90569Y223969D02*
D03*
X86632Y223969D02*
D03*
X86632Y220031D02*
D03*
X90569Y220031D02*
D03*
X88600Y222000D02*
D03*
D146*
X224472Y116025D02*
D03*
Y119175D02*
D03*
M02*
