G04*
G04 #@! TF.GenerationSoftware,Altium Limited,Altium Designer,22.2.1 (43)*
G04*
G04 Layer_Color=16711935*
%FSLAX25Y25*%
%MOIN*%
G70*
G04*
G04 #@! TF.SameCoordinates,9584CBA6-E8C1-4CB1-A2AA-B777170A1881*
G04*
G04*
G04 #@! TF.FilePolarity,Positive*
G04*
G01*
G75*
%ADD10C,0.01000*%
D10*
X-1000Y-1000D02*
X298900Y-1000D01*
X298900Y266020D02*
X298900Y-1000D01*
X196539Y266020D02*
X298900D01*
X195906Y265437D02*
X196539Y266020D01*
X195163Y265001D02*
X195906Y265437D01*
X194345Y264732D02*
X195163Y265001D01*
X193488Y264643D02*
X194345Y264732D01*
X154118Y264643D02*
X193488D01*
X153262Y264733D02*
X154118Y264643D01*
X152445Y265001D02*
X153262Y264733D01*
X151702Y265435D02*
X152445Y265001D01*
X151067Y266017D02*
X151702Y265435D01*
X67272Y266020D02*
X151067Y266017D01*
X66638Y265437D02*
X67272Y266020D01*
X65895Y265001D02*
X66638Y265437D01*
X65077Y264732D02*
X65895Y265001D01*
X64220Y264643D02*
X65077Y264732D01*
X24850Y264643D02*
X64220D01*
X23994Y264733D02*
X24850Y264643D01*
X23177Y265001D02*
X23994Y264733D01*
X22434Y265435D02*
X23177Y265001D01*
X21799Y266017D02*
X22434Y265435D01*
X-1000Y266020D02*
X21799Y266017D01*
X-1000Y266020D02*
X-1000Y171532D01*
X23016D01*
X23366Y171493D01*
X23699Y171377D01*
X23998Y171189D01*
X24248Y170940D01*
X24435Y170641D01*
X24552Y170308D01*
X24591Y169957D01*
X24591Y86493D01*
X24552Y86142D02*
X24591Y86493D01*
X24435Y85809D02*
X24552Y86142D01*
X24248Y85510D02*
X24435Y85809D01*
X23998Y85261D02*
X24248Y85510D01*
X23699Y85073D02*
X23998Y85261D01*
X23366Y84957D02*
X23699Y85073D01*
X23016Y84918D02*
X23366Y84957D01*
X-1000Y84918D02*
X23016D01*
X-1000Y-1000D02*
Y84918D01*
M02*
