G04*
G04 #@! TF.GenerationSoftware,Altium Limited,Altium Designer,22.1.2 (22)*
G04*
G04 Layer_Physical_Order=1*
G04 Layer_Color=255*
%FSLAX25Y25*%
%MOIN*%
G70*
G04*
G04 #@! TF.SameCoordinates,116BC8F2-B144-4446-8F30-5785F86A2056*
G04*
G04*
G04 #@! TF.FilePolarity,Positive*
G04*
G01*
G75*
%ADD11C,0.01000*%
%ADD17C,0.00800*%
%ADD22R,0.08661X0.10630*%
%ADD23R,0.08500X0.08500*%
%ADD24R,0.03800X0.01500*%
%ADD25R,0.01500X0.03800*%
%ADD26R,0.07874X0.07874*%
%ADD27R,0.04724X0.02756*%
%ADD28R,0.02756X0.04724*%
%ADD29R,0.13386X0.05906*%
%ADD30R,0.13780X0.03937*%
%ADD33R,0.02756X0.03543*%
%ADD34R,0.01772X0.01772*%
%ADD35R,0.03937X0.03543*%
%ADD36R,0.04331X0.04331*%
%ADD37R,0.02559X0.04134*%
%ADD38C,0.05000*%
%ADD39R,0.02756X0.02362*%
%ADD40R,0.02756X0.03937*%
%ADD41R,0.05512X0.03937*%
%ADD42R,0.07480X0.05315*%
%ADD43R,0.04724X0.03937*%
%ADD44R,0.06102X0.05315*%
%ADD45R,0.03347X0.04331*%
%ADD46R,0.02953X0.04331*%
%ADD47R,0.04606X0.07087*%
%ADD48R,0.04724X0.04724*%
%ADD49R,0.01575X0.05315*%
%ADD50R,0.08268X0.07874*%
%ADD51R,0.06299X0.07480*%
%ADD52R,0.04724X0.07480*%
%ADD53R,0.02520X0.02835*%
%ADD54R,0.03150X0.02362*%
%ADD55R,0.02264X0.01378*%
%ADD56R,0.01378X0.02264*%
%ADD57R,0.03961X0.04351*%
%ADD58R,0.01968X0.01968*%
%ADD59R,0.12400X0.21700*%
%ADD60R,0.01575X0.00984*%
%ADD61R,0.06299X0.09843*%
%ADD62R,0.03347X0.03543*%
%ADD63R,0.02205X0.02047*%
%ADD64R,0.04528X0.05709*%
%ADD65R,0.07480X0.04331*%
%ADD66R,0.09449X0.11417*%
%ADD67R,0.03543X0.03937*%
%ADD68R,0.01968X0.01968*%
%ADD69R,0.05709X0.04528*%
%ADD70R,0.04724X0.04724*%
%ADD71R,0.04331X0.04331*%
%ADD72R,0.01772X0.01772*%
%ADD147R,0.06693X0.06693*%
%ADD148O,0.03347X0.01102*%
%ADD149O,0.01102X0.03347*%
%ADD150C,0.04000*%
%ADD151R,0.03543X0.06299*%
%ADD152R,0.01968X0.01102*%
%ADD153C,0.00900*%
%ADD154C,0.01500*%
%ADD155C,0.01400*%
%ADD156C,0.02000*%
%ADD157C,0.01200*%
%ADD158R,0.07087X0.07087*%
%ADD159C,0.07087*%
%ADD160C,0.05039*%
%ADD161O,0.11812X0.05906*%
%ADD162O,0.05906X0.11812*%
%ADD163O,0.04331X0.08661*%
%ADD164R,0.03960X0.03960*%
%ADD165C,0.03960*%
%ADD166C,0.14173*%
%ADD167C,0.02000*%
G36*
X297881Y20D02*
X20Y20D01*
Y83899D01*
X23016D01*
X23072Y83910D01*
X23129Y83905D01*
X23479Y83944D01*
X23589Y83979D01*
X23702Y83995D01*
X24035Y84111D01*
X24134Y84169D01*
X24241Y84210D01*
X24540Y84398D01*
X24624Y84476D01*
X24719Y84540D01*
X24969Y84789D01*
X25032Y84885D01*
X25111Y84968D01*
X25299Y85267D01*
X25340Y85374D01*
X25398Y85473D01*
X25514Y85806D01*
X25530Y85920D01*
X25565Y86029D01*
X25604Y86380D01*
X25599Y86437D01*
X25610Y86493D01*
X25610Y169957D01*
X25599Y170013D01*
X25604Y170070D01*
X25565Y170421D01*
X25530Y170530D01*
X25514Y170644D01*
X25398Y170977D01*
X25340Y171076D01*
X25299Y171183D01*
X25111Y171482D01*
X25032Y171565D01*
X24969Y171661D01*
X24719Y171910D01*
X24624Y171974D01*
X24540Y172053D01*
X24242Y172240D01*
X24134Y172281D01*
X24035Y172339D01*
X23702Y172456D01*
X23589Y172472D01*
X23479Y172506D01*
X23129Y172546D01*
X23072Y172541D01*
X23016Y172552D01*
X20D01*
X20Y264647D01*
X373Y265001D01*
X21403Y264997D01*
X21745Y264683D01*
X21838Y264627D01*
X21919Y264555D01*
X22662Y264121D01*
X22764Y264085D01*
X22859Y264032D01*
X23444Y263840D01*
X23364Y263340D01*
X22867D01*
Y259300D01*
X30766D01*
Y263123D01*
X30766Y263340D01*
X31149Y263623D01*
X36067D01*
X36450Y263340D01*
X36450Y263123D01*
Y259300D01*
X39612D01*
Y258800D01*
X40112D01*
Y254260D01*
X42643D01*
X42774Y254260D01*
X43143D01*
X43274Y254260D01*
X45805D01*
Y258800D01*
X46305D01*
Y259300D01*
X49467D01*
Y263123D01*
X49467Y263340D01*
X49850Y263623D01*
X54768D01*
X55150Y263340D01*
X55150Y263123D01*
Y259300D01*
X63050D01*
Y263340D01*
X63433Y263623D01*
X64220D01*
X64273Y263633D01*
X64327Y263629D01*
X65184Y263718D01*
X65287Y263751D01*
X65395Y263764D01*
D01*
X66214Y264033D01*
X66308Y264086D01*
X66411Y264122D01*
X67154Y264558D01*
X67235Y264630D01*
X67328Y264687D01*
X67669Y265001D01*
X150671Y264997D01*
X151013Y264683D01*
X151106Y264627D01*
X151187Y264555D01*
X151758Y264222D01*
X151622Y263721D01*
X144041D01*
X143806Y263956D01*
X143218Y264200D01*
X142582D01*
X141994Y263956D01*
X141544Y263506D01*
X141300Y262918D01*
Y262282D01*
X141544Y261694D01*
X141994Y261244D01*
X142582Y261000D01*
X143218D01*
X143806Y261244D01*
X144041Y261478D01*
X145210D01*
Y259117D01*
X149061D01*
X152912D01*
Y261478D01*
X156473D01*
Y256344D01*
X161378D01*
Y246641D01*
X161144Y246406D01*
X160900Y245818D01*
Y245486D01*
X155535Y240122D01*
X142021D01*
Y241568D01*
X137278D01*
Y236432D01*
X142021D01*
Y237878D01*
X145201D01*
X145410Y237465D01*
X145410Y237378D01*
Y233520D01*
X142621Y230732D01*
X142121Y230888D01*
Y232068D01*
X137378D01*
Y226932D01*
X138628D01*
Y225388D01*
X138097Y225081D01*
X137519Y224503D01*
X137111Y223797D01*
X136900Y223008D01*
Y222192D01*
X137111Y221403D01*
X137519Y220697D01*
X138097Y220119D01*
X138803Y219711D01*
X139592Y219500D01*
X140408D01*
X141197Y219711D01*
X141903Y220119D01*
X142481Y220697D01*
X142889Y221403D01*
X143100Y222192D01*
Y223008D01*
X142889Y223797D01*
X142481Y224503D01*
X141903Y225081D01*
X141197Y225489D01*
X140871Y225576D01*
Y226932D01*
X142121D01*
Y228379D01*
X142975D01*
X142976Y228378D01*
X143405Y228464D01*
X143769Y228707D01*
X147390Y232328D01*
X151334D01*
Y237378D01*
X151334Y237465D01*
X151543Y237878D01*
X156000D01*
X156000Y237878D01*
X156429Y237964D01*
X156793Y238207D01*
X162152Y243566D01*
X162848D01*
X174788Y231626D01*
X175152Y231383D01*
X175581Y231297D01*
X175581Y231297D01*
X184397D01*
X196958Y218737D01*
X196958Y218737D01*
X197322Y218493D01*
X197371Y218484D01*
X197411Y218333D01*
X197819Y217626D01*
X198397Y217049D01*
X199103Y216641D01*
X199892Y216429D01*
X200708D01*
X201497Y216641D01*
X202203Y217049D01*
X202781Y217626D01*
X203189Y218333D01*
X203400Y219121D01*
Y219938D01*
X203189Y220726D01*
X202781Y221433D01*
X202203Y222010D01*
X201497Y222418D01*
X200708Y222629D01*
X199892D01*
X199103Y222418D01*
X198397Y222010D01*
X197980Y221594D01*
X197353Y221514D01*
X185654Y233212D01*
X185291Y233455D01*
X184862Y233541D01*
X184861Y233541D01*
X176046D01*
X164100Y245486D01*
Y245818D01*
X163856Y246406D01*
X163622Y246641D01*
Y255902D01*
X163870Y256151D01*
X163870Y256151D01*
X163999Y256344D01*
X170816D01*
X170945Y256151D01*
X192800Y234296D01*
X192800Y234296D01*
X193164Y234053D01*
X193593Y233967D01*
X196991D01*
X197200Y233695D01*
Y232878D01*
X197411Y232090D01*
X197819Y231383D01*
X198397Y230806D01*
X199103Y230398D01*
X199179Y230378D01*
Y226787D01*
X199264Y226357D01*
X199507Y225993D01*
X199871Y225750D01*
X199954Y225734D01*
X200014Y225694D01*
X200443Y225608D01*
X204729D01*
X205094Y225244D01*
X205682Y225000D01*
X206318D01*
X206906Y225244D01*
X207356Y225694D01*
X207600Y226282D01*
Y226918D01*
X207356Y227506D01*
X206906Y227956D01*
X206318Y228200D01*
X205682D01*
X205094Y227956D01*
X204989Y227852D01*
X201422D01*
Y230378D01*
X201497Y230398D01*
X202203Y230806D01*
X202781Y231383D01*
X203189Y232090D01*
X203400Y232878D01*
Y233695D01*
X203189Y234483D01*
X202781Y235190D01*
X202203Y235767D01*
X201497Y236175D01*
X200708Y236387D01*
X199892D01*
X199103Y236175D01*
X198968Y236097D01*
X198927Y236125D01*
X198498Y236211D01*
X198498Y236211D01*
X194057D01*
X174386Y255882D01*
X174578Y256344D01*
X175147D01*
X175276Y256151D01*
X191719Y239707D01*
X191719Y239707D01*
X192083Y239464D01*
X192513Y239378D01*
X197350D01*
X197370Y239303D01*
X197778Y238597D01*
X198356Y238019D01*
X199063Y237611D01*
X199851Y237400D01*
X200667D01*
X201456Y237611D01*
X201523Y237650D01*
X205166Y234007D01*
X205166Y234007D01*
X205530Y233764D01*
X205959Y233678D01*
X205959Y233679D01*
X227331D01*
Y232528D01*
X232469D01*
Y237271D01*
X227331D01*
Y235922D01*
X206424D01*
X203109Y239236D01*
X203148Y239303D01*
X203359Y240092D01*
Y240908D01*
X203148Y241697D01*
X202740Y242403D01*
X202163Y242981D01*
X201456Y243389D01*
X200667Y243600D01*
X199851D01*
X199063Y243389D01*
X198356Y242981D01*
X197778Y242403D01*
X197370Y241697D01*
X197350Y241621D01*
X192977D01*
X178917Y255682D01*
X179108Y256144D01*
X179900D01*
Y259109D01*
X180900D01*
Y256144D01*
X182873D01*
Y256344D01*
X183808D01*
X183937Y256151D01*
X192668Y247420D01*
X193032Y247176D01*
X193461Y247091D01*
X193462Y247091D01*
X197250D01*
X197270Y247016D01*
X197678Y246309D01*
X198256Y245732D01*
X198962Y245324D01*
X199751Y245113D01*
X200567D01*
X201356Y245324D01*
X202063Y245732D01*
X202640Y246309D01*
X203026Y246978D01*
X227232D01*
Y245728D01*
X232368D01*
Y250472D01*
X227232D01*
Y249221D01*
X203098D01*
X203048Y249409D01*
X202640Y250116D01*
X202063Y250693D01*
X201356Y251101D01*
X200567Y251313D01*
X199751D01*
X198962Y251101D01*
X198256Y250693D01*
X197678Y250116D01*
X197270Y249409D01*
X197250Y249334D01*
X193926D01*
X190264Y252996D01*
X190579Y253388D01*
X193128D01*
Y257731D01*
X194128D01*
Y253388D01*
X196731D01*
Y254378D01*
X197231Y254585D01*
X197397Y254419D01*
X198103Y254011D01*
X198892Y253800D01*
X199708D01*
X200497Y254011D01*
X201203Y254419D01*
X201781Y254997D01*
X202189Y255703D01*
X202400Y256492D01*
Y257308D01*
X202189Y258097D01*
X201781Y258803D01*
X201203Y259381D01*
X200497Y259789D01*
X199708Y260000D01*
X199656D01*
Y260226D01*
X199571Y260656D01*
X199328Y261020D01*
X199328Y261020D01*
X197180Y263168D01*
X196816Y263411D01*
X196387Y263496D01*
X196387Y263496D01*
X195449D01*
X195369Y263996D01*
X195481Y264033D01*
X195576Y264086D01*
X195679Y264122D01*
X196422Y264558D01*
X196503Y264630D01*
X196596Y264687D01*
X196937Y265001D01*
X288063D01*
X288112Y264501D01*
X287058Y264291D01*
X285659Y263712D01*
X284400Y262871D01*
X283329Y261800D01*
X282488Y260541D01*
X281909Y259142D01*
X281613Y257657D01*
Y256143D01*
X281909Y254658D01*
X282488Y253259D01*
X283329Y252000D01*
X284400Y250929D01*
X285659Y250088D01*
X287058Y249509D01*
X288543Y249213D01*
X290057D01*
X291542Y249509D01*
X292941Y250088D01*
X294200Y250929D01*
X295271Y252000D01*
X296112Y253259D01*
X296691Y254658D01*
X296987Y256143D01*
Y257657D01*
X296691Y259142D01*
X296112Y260541D01*
X295271Y261800D01*
X294200Y262871D01*
X292941Y263712D01*
X291542Y264291D01*
X290488Y264501D01*
X290537Y265001D01*
X297881D01*
X297881Y20D01*
D02*
G37*
%LPC*%
G36*
X132618Y260584D02*
X130350D01*
Y258513D01*
X132618D01*
Y260584D01*
D02*
G37*
G36*
X129350D02*
X127081D01*
Y258513D01*
X129350D01*
Y260584D01*
D02*
G37*
G36*
X273642Y262400D02*
X272958D01*
X272296Y262223D01*
X271704Y261880D01*
X271219Y261396D01*
X270877Y260804D01*
X270700Y260142D01*
Y259458D01*
X270877Y258796D01*
X271219Y258204D01*
X271704Y257719D01*
X272296Y257377D01*
X272958Y257200D01*
X273642D01*
X274304Y257377D01*
X274896Y257719D01*
X275380Y258204D01*
X275723Y258796D01*
X275900Y259458D01*
Y260142D01*
X275723Y260804D01*
X275380Y261396D01*
X274896Y261880D01*
X274304Y262223D01*
X273642Y262400D01*
D02*
G37*
G36*
X132618Y257513D02*
X130350D01*
Y255441D01*
X132618D01*
Y257513D01*
D02*
G37*
G36*
X129350D02*
X127081D01*
Y255441D01*
X129350D01*
Y257513D01*
D02*
G37*
G36*
X152912Y258117D02*
X149561D01*
Y255159D01*
X152912D01*
Y258117D01*
D02*
G37*
G36*
X148561D02*
X145210D01*
Y255159D01*
X148561D01*
Y258117D01*
D02*
G37*
G36*
X49467Y258300D02*
X46805D01*
Y254260D01*
X49467D01*
Y258300D01*
D02*
G37*
G36*
X39112D02*
X36450D01*
Y254260D01*
X39112D01*
Y258300D01*
D02*
G37*
G36*
X132418Y254085D02*
X127281D01*
Y252835D01*
X123228D01*
X123006Y253056D01*
X122418Y253300D01*
X121782D01*
X121194Y253056D01*
X120744Y252606D01*
X120500Y252018D01*
Y251382D01*
X120744Y250794D01*
X121194Y250344D01*
X121782Y250100D01*
X122418D01*
X123006Y250344D01*
X123255Y250592D01*
X127281D01*
Y249342D01*
X130635D01*
X132229Y247748D01*
Y241568D01*
X130979D01*
Y236432D01*
X132229D01*
Y232068D01*
X131079D01*
Y226932D01*
X135822D01*
Y232068D01*
X134472D01*
Y236432D01*
X135722D01*
Y241568D01*
X134472D01*
Y248213D01*
X134472Y248213D01*
X134387Y248642D01*
X134143Y249006D01*
X132418Y250731D01*
Y254085D01*
D02*
G37*
G36*
X92143Y254843D02*
X88300D01*
Y251000D01*
X92143D01*
Y254843D01*
D02*
G37*
G36*
X87300D02*
X83457D01*
Y251000D01*
X87300D01*
Y254843D01*
D02*
G37*
G36*
X63050Y258300D02*
X55150D01*
Y254285D01*
X50229D01*
Y250048D01*
X60097D01*
Y254260D01*
X63050D01*
Y258300D01*
D02*
G37*
G36*
X30766D02*
X22867D01*
Y254260D01*
X25820D01*
Y250048D01*
X35687D01*
Y254285D01*
X30766D01*
Y258300D01*
D02*
G37*
G36*
X9009Y264455D02*
X7495D01*
X6010Y264160D01*
X4611Y263580D01*
X3352Y262739D01*
X2281Y261668D01*
X1440Y260409D01*
X861Y259011D01*
X565Y257526D01*
Y256011D01*
X861Y254526D01*
X1440Y253128D01*
X2281Y251869D01*
X3352Y250798D01*
X4611Y249957D01*
X6010Y249377D01*
X7495Y249082D01*
X9009D01*
X10494Y249377D01*
X11893Y249957D01*
X13152Y250798D01*
X14223Y251869D01*
X15064Y253128D01*
X15643Y254526D01*
X15939Y256011D01*
Y257526D01*
X15643Y259011D01*
X15064Y260409D01*
X14223Y261668D01*
X13152Y262739D01*
X11893Y263580D01*
X10494Y264160D01*
X9009Y264455D01*
D02*
G37*
G36*
X49664Y251726D02*
X48576D01*
Y248768D01*
X49664D01*
Y251726D01*
D02*
G37*
G36*
X108345Y254643D02*
X107255D01*
X106201Y254361D01*
X105256Y253816D01*
X104484Y253044D01*
X103939Y252099D01*
X103657Y251045D01*
Y249955D01*
X103939Y248901D01*
X104484Y247956D01*
X105256Y247184D01*
X106201Y246639D01*
X107255Y246357D01*
X108345D01*
X109399Y246639D01*
X110344Y247184D01*
X111116Y247956D01*
X111661Y248901D01*
X111943Y249955D01*
Y251045D01*
X111661Y252099D01*
X111116Y253044D01*
X110344Y253816D01*
X109399Y254361D01*
X108345Y254643D01*
D02*
G37*
G36*
X98346D02*
X97255D01*
X96201Y254361D01*
X95256Y253816D01*
X94485Y253044D01*
X93939Y252099D01*
X93657Y251045D01*
Y249955D01*
X93939Y248901D01*
X94485Y247956D01*
X95256Y247184D01*
X96201Y246639D01*
X97255Y246357D01*
X98346D01*
X99399Y246639D01*
X100344Y247184D01*
X101116Y247956D01*
X101661Y248901D01*
X101943Y249955D01*
Y251045D01*
X101661Y252099D01*
X101116Y253044D01*
X100344Y253816D01*
X99399Y254361D01*
X98346Y254643D01*
D02*
G37*
G36*
X92143Y250000D02*
X88300D01*
Y246157D01*
X92143D01*
Y250000D01*
D02*
G37*
G36*
X87300D02*
X83457D01*
Y246157D01*
X87300D01*
Y250000D01*
D02*
G37*
G36*
X47576Y251726D02*
X46489D01*
Y251526D01*
X36453D01*
Y245825D01*
X36149Y245655D01*
X35687Y245955D01*
Y249048D01*
X31254D01*
Y244811D01*
X34725D01*
X34916Y244349D01*
X29121Y238553D01*
X2002D01*
X1543Y238363D01*
X1353Y237904D01*
Y178202D01*
X1402Y178083D01*
Y177954D01*
X1486Y177752D01*
X1578Y177660D01*
X1627Y177541D01*
X1746Y177491D01*
X1838Y177400D01*
X1967D01*
X2086Y177351D01*
X14100D01*
X14559Y177541D01*
X15259Y178241D01*
X15449Y178700D01*
Y180161D01*
X15259Y180620D01*
X14856Y180787D01*
Y185072D01*
X15259Y185239D01*
X15449Y185698D01*
Y186400D01*
X15259Y186859D01*
X14800Y187049D01*
X7749D01*
Y195383D01*
X7559Y195842D01*
X7446Y195955D01*
X7301Y196305D01*
Y196683D01*
X7446Y197032D01*
X7559Y197145D01*
X7749Y197605D01*
Y234535D01*
X18357D01*
X18629Y234147D01*
X18629Y234035D01*
Y231879D01*
X21201D01*
X23772D01*
Y234035D01*
X23773Y234147D01*
X24045Y234535D01*
X24643D01*
Y234147D01*
X24833Y233688D01*
X25128Y233566D01*
Y229192D01*
X24833Y229069D01*
X24643Y228610D01*
Y227590D01*
X24833Y227131D01*
X25292Y226940D01*
X34912Y226940D01*
X35371Y227131D01*
X35561Y227590D01*
Y228082D01*
X36832D01*
Y225128D01*
X35109Y223406D01*
X30321D01*
Y224598D01*
X25578D01*
Y219461D01*
X30321D01*
Y220653D01*
X35680D01*
X36206Y220758D01*
X36331Y220841D01*
X36832Y220574D01*
Y217079D01*
X40673D01*
X40730Y217067D01*
Y216248D01*
X40385Y215903D01*
X39113D01*
X38723Y215826D01*
X38392Y215604D01*
X37615Y214827D01*
X37541Y214718D01*
X37116Y214292D01*
X35783D01*
Y212448D01*
X32113D01*
X30322Y214239D01*
Y218029D01*
X25185D01*
Y216561D01*
X22618D01*
Y217811D01*
X17481D01*
Y216561D01*
X15125D01*
Y217811D01*
X9988D01*
Y213068D01*
X15125D01*
Y214318D01*
X17481D01*
Y213068D01*
X22618D01*
Y214318D01*
X25185D01*
Y213286D01*
X28103D01*
X29197Y212192D01*
X29006Y211730D01*
X25470D01*
X25444Y211792D01*
X24985Y211982D01*
X24000D01*
X23541Y211792D01*
X23351Y211333D01*
Y207165D01*
X23118Y206979D01*
X22618Y207220D01*
Y211512D01*
X17481D01*
Y206769D01*
X18928D01*
Y205670D01*
X18693Y205573D01*
X18243Y205123D01*
X18000Y204535D01*
Y203898D01*
X18036Y203809D01*
X18028Y203767D01*
X18028Y203767D01*
Y202319D01*
X16778D01*
Y197182D01*
X21521D01*
Y198897D01*
X22021Y199077D01*
X22434Y198907D01*
X24985D01*
Y197007D01*
X27754D01*
X30522D01*
Y198907D01*
X31000D01*
X31459Y199097D01*
X31848Y199485D01*
X32038Y199945D01*
Y203642D01*
X32538Y203849D01*
X32694Y203693D01*
X33282Y203450D01*
X33918D01*
X34506Y203693D01*
X34956Y204143D01*
X35009Y204271D01*
X35622Y204468D01*
X35783Y204363D01*
Y203250D01*
X36151D01*
Y200062D01*
X35704D01*
Y194406D01*
X35704Y194138D01*
X35300Y193906D01*
X31010D01*
X30522Y193936D01*
X30522Y194406D01*
Y196007D01*
X27754D01*
X24985D01*
X24985Y193936D01*
X24497Y193906D01*
X23000D01*
X22839Y193966D01*
X22508Y194241D01*
X22507Y194243D01*
Y194784D01*
X16780D01*
Y187875D01*
X16780D01*
X16890Y187710D01*
X16875Y187675D01*
Y178000D01*
X17066Y177541D01*
X17525Y177351D01*
X29730D01*
X29811Y177384D01*
X29898Y177373D01*
X30033Y177476D01*
X30189Y177541D01*
X30223Y177622D01*
X30292Y177675D01*
X30764Y177737D01*
X30982Y177519D01*
X31689Y177111D01*
X32478Y176900D01*
X33294D01*
X34082Y177111D01*
X34789Y177519D01*
X35007Y177737D01*
X35479Y177675D01*
X35549Y177622D01*
X35582Y177541D01*
X35739Y177476D01*
X35873Y177373D01*
X35961Y177384D01*
X36042Y177351D01*
X41362D01*
X41481Y177400D01*
X41611D01*
X41702Y177491D01*
X41821Y177541D01*
X41871Y177660D01*
X41962Y177752D01*
X42088Y178055D01*
Y178184D01*
X42137Y178304D01*
Y181832D01*
X41947Y182291D01*
X41945Y182292D01*
Y186908D01*
X41947Y186909D01*
X42137Y187369D01*
Y193257D01*
X41947Y193716D01*
X41882Y193743D01*
X41628Y194138D01*
X41628Y194348D01*
Y200062D01*
X38190D01*
Y202693D01*
X38535Y203050D01*
X41985D01*
Y208771D01*
X42985D01*
Y203050D01*
X46435D01*
Y203250D01*
X49187D01*
Y203322D01*
X51784D01*
X53554Y201552D01*
Y180500D01*
X53639Y180071D01*
X53882Y179707D01*
X54246Y179464D01*
X54675Y179378D01*
X55876D01*
X56111Y178906D01*
X55867Y178318D01*
Y177682D01*
X56111Y177094D01*
X56561Y176644D01*
X57149Y176400D01*
X57481D01*
X63014Y170867D01*
Y165709D01*
X62939Y165689D01*
X62232Y165281D01*
X61655Y164703D01*
X61247Y163997D01*
X61036Y163208D01*
Y162392D01*
X61247Y161603D01*
X61655Y160897D01*
X62232Y160319D01*
X62939Y159911D01*
X63014Y159891D01*
Y157565D01*
X62158D01*
Y151641D01*
X66114D01*
Y157565D01*
X65257D01*
Y159891D01*
X65332Y159911D01*
X66039Y160319D01*
X66616Y160897D01*
X67025Y161603D01*
X67236Y162392D01*
Y163208D01*
X67025Y163997D01*
X66616Y164703D01*
X66039Y165281D01*
X65332Y165689D01*
X65257Y165709D01*
Y171331D01*
X65172Y171761D01*
X64929Y172125D01*
X64929Y172125D01*
X59205Y177848D01*
X59183Y178048D01*
X59201Y178155D01*
X59738Y178325D01*
X69978Y168085D01*
Y165609D01*
X69903Y165589D01*
X69197Y165181D01*
X68619Y164603D01*
X68211Y163897D01*
X68000Y163108D01*
Y162292D01*
X68211Y161503D01*
X68250Y161436D01*
X68067Y161253D01*
X67824Y160889D01*
X67739Y160460D01*
X67739Y160460D01*
Y157565D01*
X66882D01*
Y151641D01*
X70838D01*
Y157565D01*
X69982D01*
Y159380D01*
X70379Y159684D01*
X70692Y159600D01*
X71508D01*
X72297Y159811D01*
X73003Y160219D01*
X73581Y160797D01*
X73989Y161503D01*
X74200Y162292D01*
Y163108D01*
X73989Y163897D01*
X73581Y164603D01*
X73003Y165181D01*
X72297Y165589D01*
X72222Y165609D01*
Y168550D01*
X72222Y168550D01*
X72136Y168979D01*
X71893Y169343D01*
X71893Y169343D01*
X59943Y181293D01*
X59579Y181536D01*
X59150Y181622D01*
X59149Y181622D01*
X55797D01*
Y202017D01*
X55711Y202446D01*
X55468Y202810D01*
X55468Y202810D01*
X53143Y205135D01*
X52780Y205378D01*
X52477Y205438D01*
X52448Y205954D01*
X52906Y206144D01*
X53356Y206594D01*
X53600Y207182D01*
Y207818D01*
X53468Y208137D01*
X53779Y208637D01*
X55041D01*
X55378Y208300D01*
X55966Y208057D01*
X56603D01*
X57191Y208300D01*
X57641Y208750D01*
X57885Y209338D01*
Y209975D01*
X57641Y210563D01*
X57191Y211013D01*
X56603Y211257D01*
X55966D01*
X55378Y211013D01*
X55041Y210676D01*
X49187D01*
Y214292D01*
X47855D01*
X47429Y214718D01*
X47356Y214827D01*
X46578Y215604D01*
X46248Y215826D01*
X45857Y215903D01*
X44750D01*
X44570Y216083D01*
Y217067D01*
X44627Y217079D01*
X48469D01*
Y221822D01*
X43332D01*
Y218822D01*
X43298Y218800D01*
X42975Y218477D01*
X42650Y218383D01*
X42325Y218477D01*
X42002Y218800D01*
X41969Y218822D01*
Y221822D01*
X38072D01*
X37881Y222284D01*
X38975Y223378D01*
X41969D01*
Y226550D01*
X42044Y226600D01*
X42287Y226843D01*
X42834Y226867D01*
X42936Y226803D01*
X43332Y226408D01*
Y223378D01*
X48469D01*
Y228121D01*
X44627D01*
X44611Y228124D01*
Y229731D01*
X45825D01*
Y232500D01*
Y235268D01*
X44307D01*
Y235930D01*
X45789Y237412D01*
X46664D01*
X47997Y236079D01*
X48327Y235858D01*
X48718Y235780D01*
X49979D01*
Y234231D01*
X54722D01*
Y239369D01*
X49979D01*
Y237820D01*
X49140D01*
X48303Y238657D01*
Y240974D01*
X45789D01*
X43990Y242772D01*
Y245011D01*
X46489D01*
Y244811D01*
X47576D01*
Y248269D01*
Y251726D01*
D02*
G37*
G36*
X60097Y249048D02*
X55663D01*
Y244811D01*
X60097D01*
Y249048D01*
D02*
G37*
G36*
X54663D02*
X50229D01*
Y244811D01*
X54663D01*
Y249048D01*
D02*
G37*
G36*
X49664Y247768D02*
X48576D01*
Y244811D01*
X49664D01*
Y247768D01*
D02*
G37*
G36*
X30254Y249048D02*
X25820D01*
Y244811D01*
X30254D01*
Y249048D01*
D02*
G37*
G36*
X232368Y244172D02*
X227232D01*
Y242922D01*
X225340D01*
X224906Y243356D01*
X224318Y243600D01*
X223682D01*
X223094Y243356D01*
X222644Y242906D01*
X222400Y242318D01*
Y241682D01*
X222644Y241094D01*
X223094Y240644D01*
X223682Y240400D01*
X224318D01*
X224906Y240644D01*
X224942Y240679D01*
X227232D01*
Y239429D01*
X232368D01*
Y244172D01*
D02*
G37*
G36*
X7542Y245699D02*
X6858D01*
X6196Y245522D01*
X5604Y245180D01*
X5119Y244696D01*
X4777Y244103D01*
X4600Y243442D01*
Y242757D01*
X4777Y242096D01*
X5119Y241503D01*
X5604Y241019D01*
X6196Y240676D01*
X6858Y240499D01*
X7542D01*
X8204Y240676D01*
X8796Y241019D01*
X9280Y241503D01*
X9623Y242096D01*
X9800Y242757D01*
Y243442D01*
X9623Y244103D01*
X9280Y244696D01*
X8796Y245180D01*
X8204Y245522D01*
X7542Y245699D01*
D02*
G37*
G36*
X297193Y247279D02*
X282607D01*
Y240173D01*
X297193D01*
Y247279D01*
D02*
G37*
G36*
X61221Y239568D02*
X59150D01*
Y237300D01*
X61221D01*
Y239568D01*
D02*
G37*
G36*
X58150D02*
X56078D01*
Y237300D01*
X58150D01*
D01*
Y239568D01*
D02*
G37*
G36*
X275739Y237243D02*
X268550D01*
Y234974D01*
X275739D01*
Y237243D01*
D02*
G37*
G36*
X267550D02*
X260360D01*
Y234974D01*
X267550D01*
Y237243D01*
D02*
G37*
G36*
X73105Y237904D02*
X70541D01*
Y234960D01*
Y234750D01*
X73105D01*
Y237904D01*
D02*
G37*
G36*
X69541D02*
X66978D01*
Y234750D01*
X69541D01*
Y237904D01*
D02*
G37*
G36*
X118208Y240600D02*
X117392D01*
X116603Y240389D01*
X115897Y239981D01*
X115319Y239403D01*
X114911Y238697D01*
X114700Y237908D01*
Y237092D01*
X114911Y236303D01*
X114950Y236236D01*
X112864Y234150D01*
X109456Y237557D01*
X109109Y237789D01*
X108699Y237871D01*
X95055D01*
X95055Y237871D01*
X94645Y237789D01*
X94298Y237557D01*
X94298Y237557D01*
X92679Y235939D01*
X92447Y235591D01*
X92366Y235182D01*
Y230326D01*
X91866Y230041D01*
X91669Y230080D01*
X91586Y230118D01*
X91455Y230261D01*
X91273Y230557D01*
Y238500D01*
X91082Y238959D01*
X90623Y239149D01*
X75877D01*
X75418Y238959D01*
X75228Y238500D01*
Y237904D01*
X75094Y237704D01*
X74264D01*
Y230795D01*
X75094D01*
X75228Y230595D01*
Y230008D01*
X75418Y229549D01*
X75877Y229359D01*
X83961D01*
X84278Y228972D01*
X84270Y228929D01*
Y228307D01*
X85647D01*
Y227307D01*
X84270D01*
Y226770D01*
X84076Y226524D01*
X83830Y226330D01*
X83293D01*
Y224953D01*
X82793D01*
Y224453D01*
X80315D01*
X80278Y224388D01*
X79790Y224181D01*
X79202Y224425D01*
X78565D01*
X77977Y224181D01*
X77527Y223731D01*
X77283Y223143D01*
Y222639D01*
X76316Y221672D01*
X75854Y221863D01*
Y222143D01*
X72700D01*
Y219580D01*
X73571D01*
X73762Y219118D01*
X73671Y219026D01*
X73428Y218663D01*
X73379Y218421D01*
X68746D01*
Y212693D01*
X75654D01*
Y217838D01*
X76166Y218350D01*
X76666Y218143D01*
Y206112D01*
X74206Y203651D01*
X73974Y203304D01*
X73892Y202894D01*
Y201927D01*
X72394D01*
Y197184D01*
X77531D01*
Y201927D01*
X76033D01*
Y202450D01*
X78494Y204911D01*
X78494Y204911D01*
X78726Y205258D01*
X78740Y205330D01*
X79240Y205281D01*
Y205128D01*
X83851D01*
Y203572D01*
X79240D01*
Y198829D01*
X82594D01*
X84807Y196616D01*
X84807Y196616D01*
X85171Y196373D01*
X85600Y196288D01*
X85638Y195809D01*
Y194447D01*
X91562D01*
X91833Y194059D01*
Y192168D01*
X92023Y191709D01*
X92482Y191519D01*
X92872D01*
X93327Y191413D01*
X93327Y191019D01*
Y189572D01*
X80234D01*
X77531Y192274D01*
Y195628D01*
X72394D01*
Y190885D01*
X75748D01*
X78976Y187657D01*
X78976Y187657D01*
X79340Y187414D01*
X79769Y187329D01*
X93327D01*
Y185488D01*
X99252D01*
X99252Y191413D01*
X99708Y191519D01*
X100097D01*
X100557Y191709D01*
X100747Y192168D01*
Y196079D01*
X100782Y196090D01*
X101282Y195719D01*
Y195000D01*
X101472Y194541D01*
X101931Y194351D01*
X131338D01*
X134335Y191354D01*
Y171331D01*
X134525Y170872D01*
X134984Y170682D01*
X153284D01*
X160150Y163816D01*
Y158400D01*
X160150Y158400D01*
Y129201D01*
X160340Y128742D01*
X160681Y128401D01*
X160481Y127901D01*
X159893Y127657D01*
X159443Y127207D01*
X159199Y126619D01*
Y125982D01*
X159443Y125394D01*
X159542Y125295D01*
X159439Y124819D01*
X159064Y124652D01*
X158622Y124909D01*
Y150187D01*
X158622Y150187D01*
X158536Y150616D01*
X158293Y150980D01*
X158293Y150980D01*
X145280Y163993D01*
X144916Y164236D01*
X144487Y164322D01*
X144487Y164322D01*
X134104D01*
X133869Y164556D01*
X133281Y164800D01*
X132644D01*
X132056Y164556D01*
X131606Y164106D01*
X131471Y163780D01*
X130971Y163880D01*
Y167538D01*
X132812D01*
Y173462D01*
X126887D01*
Y167538D01*
X128728D01*
Y155644D01*
X127571Y154487D01*
X127328Y154123D01*
X127266Y153809D01*
X123540D01*
Y149854D01*
X126902D01*
X127103Y149392D01*
X126854Y149085D01*
X123540D01*
Y145129D01*
X129464D01*
Y148232D01*
X130899D01*
X130899Y148232D01*
X131328Y148317D01*
X131692Y148561D01*
X132536Y149404D01*
X132946Y149235D01*
Y149235D01*
X141626D01*
Y149964D01*
X142088Y150155D01*
X142929Y149314D01*
Y145960D01*
X147672D01*
Y151097D01*
X144318D01*
X142622Y152793D01*
X142258Y153036D01*
X141829Y153122D01*
X141626Y153541D01*
Y154765D01*
X132946D01*
Y152922D01*
X132753Y152793D01*
X130435Y150475D01*
X129464D01*
Y152601D01*
X129486Y152709D01*
Y153229D01*
X130643Y154386D01*
X130886Y154750D01*
X130971Y155179D01*
X130971Y155179D01*
Y158828D01*
X131335Y158955D01*
X131471Y158966D01*
X131894Y158544D01*
X132482Y158300D01*
X133118D01*
X133706Y158544D01*
X133941Y158778D01*
X145060D01*
X152079Y151759D01*
X151888Y151297D01*
X149028D01*
Y149028D01*
X151600D01*
Y148528D01*
X152100D01*
Y145760D01*
X154172D01*
X154378Y145345D01*
Y145283D01*
X154172Y144869D01*
X153878Y144869D01*
X152100D01*
Y142100D01*
Y139331D01*
X153878D01*
X154172Y139331D01*
X154378Y138917D01*
Y101000D01*
X154378Y101000D01*
X154464Y100571D01*
X154707Y100207D01*
X172280Y82634D01*
X172279Y77676D01*
X171610Y77399D01*
X170868Y76829D01*
X170298Y76087D01*
X169940Y75223D01*
X169818Y74296D01*
Y68389D01*
X169940Y67462D01*
X170298Y66598D01*
X170868Y65855D01*
X171610Y65286D01*
X172474Y64928D01*
X173402Y64806D01*
X174329Y64928D01*
X175193Y65286D01*
X175936Y65855D01*
X176505Y66598D01*
X176863Y67462D01*
X176985Y68389D01*
Y74296D01*
X176863Y75223D01*
X176505Y76087D01*
X175936Y76829D01*
X175193Y77399D01*
X174522Y77677D01*
X174523Y83098D01*
X174523Y83098D01*
X174523Y83098D01*
X174482Y83305D01*
X174438Y83527D01*
X174438Y83528D01*
X174438Y83528D01*
X174336Y83680D01*
X174195Y83891D01*
X174195Y83891D01*
X174195Y83891D01*
X156622Y101465D01*
Y109825D01*
X157122Y110032D01*
X157293Y109861D01*
X157293Y109861D01*
X157657Y109618D01*
X158086Y109532D01*
X174170D01*
X174170Y109532D01*
X174599Y109618D01*
X174963Y109861D01*
X175549Y110447D01*
X175549Y110447D01*
X175792Y110811D01*
X175877Y111240D01*
Y117135D01*
X178224Y119482D01*
X191318D01*
X194777Y116023D01*
Y114756D01*
X194777Y114756D01*
X194862Y114327D01*
X195105Y113963D01*
X199207Y109861D01*
X199207Y109861D01*
X199207Y109861D01*
X214619Y94449D01*
Y47144D01*
X214119Y46987D01*
X213479Y47477D01*
X212615Y47836D01*
X211688Y47958D01*
X211421D01*
Y73079D01*
X212868D01*
Y77822D01*
X207732D01*
Y73079D01*
X209178D01*
Y47958D01*
X205782D01*
X204854Y47836D01*
X203990Y47477D01*
X203248Y46908D01*
X202678Y46166D01*
X202320Y45301D01*
X202198Y44374D01*
X202320Y43446D01*
X202678Y42582D01*
X203248Y41840D01*
X203990Y41271D01*
X204854Y40913D01*
X205782Y40790D01*
X211688D01*
X212615Y40913D01*
X213479Y41271D01*
X214119Y41761D01*
X214619Y41604D01*
Y41018D01*
X213285Y39684D01*
X212615Y39961D01*
X211688Y40084D01*
X205782D01*
X204854Y39961D01*
X203990Y39603D01*
X203248Y39034D01*
X202678Y38292D01*
X202320Y37427D01*
X202198Y36500D01*
X202320Y35572D01*
X202678Y34708D01*
X203248Y33966D01*
X203990Y33397D01*
X204854Y33038D01*
X205782Y32916D01*
X211688D01*
X212615Y33038D01*
X213479Y33397D01*
X214222Y33966D01*
X214791Y34708D01*
X215149Y35572D01*
X215271Y36500D01*
X215149Y37427D01*
X214872Y38098D01*
X216534Y39760D01*
X216534Y39760D01*
X216777Y40124D01*
X216862Y40553D01*
X216862Y40553D01*
Y94913D01*
X216777Y95343D01*
X216534Y95706D01*
X216534Y95706D01*
X214090Y98151D01*
X214297Y98651D01*
X218931D01*
X220251Y97331D01*
Y86900D01*
X220441Y86441D01*
X220900Y86251D01*
X221137D01*
X221207Y85751D01*
X221165Y85709D01*
X221045Y85659D01*
X220996Y85540D01*
X220905Y85449D01*
X220900Y85437D01*
X220900Y85308D01*
X220851Y85189D01*
Y78400D01*
X221041Y77941D01*
X221500Y77751D01*
X242700D01*
X243159Y77941D01*
X243559Y78341D01*
X243749Y78800D01*
Y85200D01*
X243559Y85659D01*
X243339Y85751D01*
X243438Y86251D01*
X255400D01*
X255859Y86441D01*
X255959Y86541D01*
X256149Y87000D01*
Y102855D01*
X255959Y103315D01*
X255500Y103505D01*
X234200D01*
X233824Y103349D01*
X231937Y105237D01*
X231901Y105252D01*
X231881Y105286D01*
X230680Y106240D01*
X230845Y106712D01*
X231242D01*
Y109475D01*
X232093Y110327D01*
X232093Y110327D01*
X232336Y110690D01*
X232422Y111120D01*
X232421Y111120D01*
Y116030D01*
X232336Y116459D01*
X232093Y116823D01*
X232093Y116823D01*
X231953Y116963D01*
X232160Y117463D01*
X244384D01*
Y108524D01*
X254245D01*
Y120354D01*
X244384D01*
Y119706D01*
X233288D01*
Y144250D01*
X233098Y144710D01*
X232639Y144900D01*
X219115D01*
X218655Y144710D01*
X218465Y144250D01*
Y121904D01*
X218655Y121445D01*
X219115Y121255D01*
X219147D01*
Y119935D01*
X218947D01*
Y119084D01*
X220731D01*
Y118084D01*
X218947D01*
Y117116D01*
X220731D01*
Y116116D01*
X218947D01*
Y115265D01*
X219147D01*
Y113496D01*
X222316D01*
Y113650D01*
X224171D01*
X224319Y113173D01*
X223617Y112690D01*
X223531Y112558D01*
X223409Y112458D01*
X223400Y112358D01*
X223346Y112274D01*
X223378Y112120D01*
X223364Y111963D01*
X223366Y111955D01*
X222998Y111455D01*
X221774D01*
Y107149D01*
X221664Y107103D01*
X221512Y107091D01*
X221443Y107011D01*
X221345Y106971D01*
X221287Y106830D01*
X221188Y106715D01*
X221035Y106249D01*
X219115D01*
Y108045D01*
X216334D01*
X213553D01*
Y105570D01*
X213753D01*
Y100712D01*
X213717Y100680D01*
X213583Y100577D01*
X213427Y100512D01*
X213393Y100431D01*
X213323Y100377D01*
X213048Y99899D01*
X213031Y99874D01*
X212838Y99779D01*
X212496Y99744D01*
X200793Y111447D01*
X200793Y111447D01*
X197020Y115220D01*
Y116488D01*
X196934Y116917D01*
X196691Y117280D01*
X196691Y117281D01*
X192576Y121396D01*
X192303Y121578D01*
X192364Y122024D01*
X192386Y122078D01*
X193165D01*
X197524Y117719D01*
Y117282D01*
X197767Y116694D01*
X198217Y116244D01*
X198805Y116000D01*
X199442D01*
X200030Y116244D01*
X200480Y116694D01*
X200724Y117282D01*
Y117918D01*
X200480Y118506D01*
X200030Y118956D01*
X199442Y119200D01*
X199215D01*
X194422Y123993D01*
X194111Y124201D01*
X194100Y124461D01*
X194165Y124720D01*
X194706Y124944D01*
X195156Y125394D01*
X195400Y125982D01*
Y126619D01*
X195156Y127207D01*
X194706Y127657D01*
X194118Y127901D01*
X193482D01*
X192894Y127657D01*
X192659Y127422D01*
X191585D01*
X191333Y127800D01*
Y137687D01*
X191319Y137720D01*
X191194Y138200D01*
X191194Y138200D01*
X191194Y138200D01*
Y139578D01*
X197090D01*
X197091Y139578D01*
X197520Y139664D01*
X197884Y139907D01*
X200741Y142765D01*
X202127D01*
Y145120D01*
X202327Y145254D01*
X203400D01*
X203859Y145444D01*
X204049Y145903D01*
Y150647D01*
X204432Y151028D01*
X205259D01*
Y153600D01*
Y156172D01*
X204432D01*
X204049Y156553D01*
Y159051D01*
X208434D01*
X208554Y159100D01*
X208683D01*
X208774Y159191D01*
X208893Y159241D01*
X208943Y159360D01*
X209034Y159451D01*
X209200Y159852D01*
Y159981D01*
X209249Y160100D01*
Y182800D01*
X209187Y182950D01*
X209521Y183451D01*
X215000D01*
X215459Y183641D01*
X215575Y183756D01*
X215765Y184216D01*
Y195750D01*
X215575Y196209D01*
X215116Y196399D01*
X197569D01*
X197110Y196209D01*
X196920Y195750D01*
Y184100D01*
X196982Y183949D01*
X196648Y183449D01*
X193488D01*
X193029Y183259D01*
X192839Y182800D01*
Y159633D01*
X188902D01*
X188768Y159809D01*
X188657Y160095D01*
X190803Y162241D01*
X190993Y162700D01*
Y197299D01*
X190803Y197758D01*
X190344Y197949D01*
X174500D01*
X174041Y197758D01*
X173851Y197299D01*
Y159688D01*
X174041Y159229D01*
X179257Y154012D01*
X179066Y153550D01*
X179044D01*
Y152000D01*
X178544D01*
Y151500D01*
X175844D01*
Y150450D01*
Y150000D01*
X178544D01*
Y149000D01*
X175844D01*
Y147950D01*
Y147400D01*
X178544D01*
Y146400D01*
X175844D01*
Y145350D01*
X176044D01*
Y143050D01*
X180894D01*
Y138200D01*
X180894D01*
X180927Y137700D01*
X179446Y136220D01*
X176254D01*
X175825Y136135D01*
X175581Y135972D01*
X172778D01*
Y131676D01*
X171422D01*
Y133100D01*
X169244D01*
Y133600D01*
X168744D01*
Y136172D01*
X167264D01*
Y137976D01*
X168535D01*
Y139800D01*
Y141624D01*
X167264D01*
Y157751D01*
X168535D01*
X168995Y157941D01*
X170069Y159015D01*
X170259Y159474D01*
Y183006D01*
X170069Y183466D01*
X166660Y186875D01*
X166649Y186879D01*
X166644Y186890D01*
X166591Y186910D01*
Y202017D01*
X166401Y202476D01*
X165942Y202666D01*
X106164D01*
X105668Y202678D01*
Y206635D01*
X106038Y206994D01*
X106172Y207098D01*
X106328Y207162D01*
X106362Y207244D01*
X106432Y207298D01*
X106664Y207702D01*
X106685Y207869D01*
X106750Y208025D01*
Y208637D01*
X106581Y209046D01*
X106764Y209546D01*
X108199D01*
Y211814D01*
X106128D01*
Y209775D01*
X106114Y209537D01*
X105735Y209286D01*
X104870D01*
X104772Y209746D01*
X104772D01*
Y214883D01*
X100028D01*
Y213300D01*
X98643D01*
X94993Y216950D01*
X94646Y217182D01*
X94236Y217264D01*
X93188D01*
X93142Y217292D01*
X93108Y217373D01*
X93159Y217560D01*
X93442Y217874D01*
X95529D01*
X95978Y217963D01*
X95999Y217977D01*
X97364D01*
X97650Y217691D01*
X98238Y217447D01*
X98875D01*
X99463Y217691D01*
X99596Y217824D01*
X100531D01*
Y216282D01*
X105668D01*
Y221025D01*
X100531D01*
Y220271D01*
X99596D01*
X99463Y220404D01*
X98875Y220647D01*
X98238D01*
X97650Y220404D01*
X97552Y220306D01*
X97200Y220343D01*
X97080Y220516D01*
X94407D01*
Y221516D01*
X96807D01*
X96802Y221543D01*
X96503Y221990D01*
Y222010D01*
X96802Y222457D01*
X96807Y222484D01*
X94407D01*
Y223484D01*
X96807D01*
X96802Y223512D01*
X96503Y223958D01*
X96605Y224492D01*
X96614Y224504D01*
X96703Y224953D01*
X96614Y225402D01*
X96516Y225548D01*
X97707Y226739D01*
X97939Y227086D01*
X98021Y227496D01*
Y230832D01*
X99322D01*
Y235729D01*
X100678D01*
Y233900D01*
X103250D01*
X105821D01*
Y235729D01*
X108256D01*
X110831Y233154D01*
Y228778D01*
X115969D01*
Y233521D01*
X115969D01*
X115804Y233918D01*
X116536Y234650D01*
X116603Y234611D01*
X117392Y234400D01*
X118208D01*
X118997Y234611D01*
X119703Y235019D01*
X120281Y235597D01*
X120689Y236303D01*
X120900Y237092D01*
Y237908D01*
X120689Y238697D01*
X120281Y239403D01*
X119703Y239981D01*
X118997Y240389D01*
X118208Y240600D01*
D02*
G37*
G36*
X61221Y236300D02*
X59150D01*
Y234032D01*
X61221D01*
Y234960D01*
Y236300D01*
D02*
G37*
G36*
X58150D02*
X56078D01*
Y234032D01*
X58150D01*
Y236300D01*
D02*
G37*
G36*
X48503Y235268D02*
X46825D01*
Y233000D01*
X48503D01*
Y235268D01*
D02*
G37*
G36*
X275739Y233974D02*
X268550D01*
Y231705D01*
X275739D01*
Y233974D01*
D02*
G37*
G36*
X267550D02*
X260360D01*
Y231705D01*
X267550D01*
Y233974D01*
D02*
G37*
G36*
X105821Y232900D02*
X103750D01*
Y230631D01*
X105821D01*
Y232900D01*
D02*
G37*
G36*
X102750D02*
X100678D01*
Y230631D01*
X102750D01*
Y232900D01*
D02*
G37*
G36*
X73105Y233750D02*
X70541D01*
Y230595D01*
X73105D01*
Y233750D01*
D02*
G37*
G36*
X69541D02*
X66978D01*
D01*
Y230595D01*
X69541D01*
Y233750D01*
D02*
G37*
G36*
X48503Y232000D02*
X46825D01*
Y229731D01*
X48503D01*
Y232000D01*
D02*
G37*
G36*
X232469Y230972D02*
X227331D01*
Y229121D01*
X225141D01*
X224906Y229356D01*
X224318Y229600D01*
X223682D01*
X223094Y229356D01*
X222644Y228906D01*
X222400Y228318D01*
Y227682D01*
X222644Y227094D01*
X223094Y226644D01*
X223682Y226400D01*
X224318D01*
X224906Y226644D01*
X225141Y226878D01*
X227331D01*
Y226228D01*
X232469D01*
Y230972D01*
D02*
G37*
G36*
X23772Y230879D02*
X21701D01*
Y228610D01*
X23772D01*
Y230879D01*
D02*
G37*
G36*
X20701D02*
X18629D01*
Y228610D01*
X20701D01*
Y230879D01*
D02*
G37*
G36*
X275539Y229169D02*
X260560D01*
Y227753D01*
X251410D01*
X251206Y227956D01*
X250618Y228200D01*
X249982D01*
X249394Y227956D01*
X248944Y227506D01*
X248700Y226918D01*
Y226282D01*
X248944Y225694D01*
X249394Y225244D01*
X249982Y225000D01*
X250618D01*
X251206Y225244D01*
X251472Y225510D01*
X260560D01*
Y224031D01*
X275539D01*
Y229169D01*
D02*
G37*
G36*
X105868Y227524D02*
X103600D01*
Y225453D01*
X105868D01*
Y227524D01*
D02*
G37*
G36*
X102600D02*
X100331D01*
Y225453D01*
X102600D01*
Y227524D01*
D02*
G37*
G36*
X82293Y226330D02*
X81671D01*
X81144Y226225D01*
X80697Y225927D01*
X80398Y225480D01*
X80393Y225453D01*
X82293D01*
Y226330D01*
D02*
G37*
G36*
X116168Y227422D02*
X113900D01*
Y225350D01*
X116168D01*
Y227422D01*
D02*
G37*
G36*
X112900D02*
X110632D01*
Y225350D01*
X112900D01*
Y227422D01*
D02*
G37*
G36*
X75854Y225707D02*
X72700D01*
Y223143D01*
X75854D01*
Y225707D01*
D02*
G37*
G36*
X71700D02*
X68546D01*
Y223143D01*
X71700D01*
Y225707D01*
D02*
G37*
G36*
X24222Y224798D02*
X22150D01*
Y222529D01*
X24222D01*
Y224798D01*
D02*
G37*
G36*
X21150D02*
X19079D01*
Y222529D01*
X21150D01*
Y224798D01*
D02*
G37*
G36*
X105868Y224453D02*
X103600D01*
Y222381D01*
X105868D01*
Y224453D01*
D02*
G37*
G36*
X102600D02*
X100331D01*
Y222381D01*
X102600D01*
Y224453D01*
D02*
G37*
G36*
X116168Y224350D02*
X113900D01*
Y222279D01*
X116168D01*
Y224350D01*
D02*
G37*
G36*
X112900D02*
X110632D01*
Y222279D01*
X112900D01*
Y224350D01*
D02*
G37*
G36*
X151534Y223098D02*
X148872D01*
Y220830D01*
X151534D01*
Y223098D01*
D02*
G37*
G36*
X147872D02*
X145210D01*
Y220830D01*
X147872D01*
Y223098D01*
D02*
G37*
G36*
X275539Y221294D02*
X260560D01*
Y219879D01*
X252184D01*
X251806Y220256D01*
X251218Y220500D01*
X250582D01*
X249994Y220256D01*
X249544Y219806D01*
X249300Y219218D01*
Y218582D01*
X249544Y217994D01*
X249994Y217544D01*
X250582Y217300D01*
X251218D01*
X251806Y217544D01*
X251898Y217635D01*
X260560D01*
Y216158D01*
X275539D01*
Y221294D01*
D02*
G37*
G36*
X71700Y222143D02*
X68546D01*
Y219580D01*
X71700D01*
Y222143D01*
D02*
G37*
G36*
X24222Y221529D02*
X22150D01*
Y219261D01*
X24222D01*
Y221529D01*
D02*
G37*
G36*
X21150D02*
X19079D01*
Y219261D01*
X21150D01*
Y221529D01*
D02*
G37*
G36*
X151534Y219830D02*
X148872D01*
Y217561D01*
X151534D01*
Y219830D01*
D02*
G37*
G36*
X147872D02*
X145210D01*
Y217561D01*
X147872D01*
Y219830D01*
D02*
G37*
G36*
X189996Y219748D02*
X181315D01*
Y213233D01*
X189996D01*
Y219748D01*
D02*
G37*
G36*
X166492D02*
X157811D01*
Y213233D01*
X166492D01*
Y219748D01*
D02*
G37*
G36*
X111271Y215083D02*
X109199D01*
Y212814D01*
X111271D01*
Y215083D01*
D02*
G37*
G36*
X108199D02*
X106128D01*
Y212814D01*
X108199D01*
Y213692D01*
Y215083D01*
D02*
G37*
G36*
X275539Y213421D02*
X260560D01*
Y211721D01*
X251541D01*
X251306Y211956D01*
X250718Y212200D01*
X250082D01*
X249494Y211956D01*
X249044Y211506D01*
X248800Y210918D01*
Y210282D01*
X249044Y209694D01*
X249494Y209244D01*
X250082Y209000D01*
X250718D01*
X251306Y209244D01*
X251541Y209478D01*
X260560D01*
Y208283D01*
X275539D01*
Y213421D01*
D02*
G37*
G36*
X15325Y211712D02*
X13057D01*
Y209640D01*
X15325D01*
Y211712D01*
D02*
G37*
G36*
X12057D02*
X9788D01*
Y209640D01*
X12057D01*
Y211712D01*
D02*
G37*
G36*
X111271Y211814D02*
X109199D01*
Y209546D01*
X111271D01*
Y211814D01*
D02*
G37*
G36*
X15325Y208640D02*
X13057D01*
Y206569D01*
X15325D01*
Y208640D01*
D02*
G37*
G36*
X12057D02*
X9788D01*
Y206569D01*
X12057D01*
Y208640D01*
D02*
G37*
G36*
X15422Y202519D02*
X13350D01*
Y200250D01*
X15422D01*
Y202519D01*
D02*
G37*
G36*
X12350D02*
X10279D01*
Y200250D01*
X12350D01*
Y202519D01*
D02*
G37*
G36*
X297193Y205153D02*
X282607D01*
Y198047D01*
X297193D01*
Y205153D01*
D02*
G37*
G36*
X15422Y199250D02*
X13350D01*
Y196982D01*
X15422D01*
Y199250D01*
D02*
G37*
G36*
X12350D02*
X10279D01*
Y196982D01*
X12350D01*
Y199250D01*
D02*
G37*
G36*
X250758Y193650D02*
X249942D01*
X249153Y193439D01*
X248447Y193031D01*
X247869Y192454D01*
X247565Y191927D01*
X244136D01*
X244006Y192056D01*
X243418Y192300D01*
X242782D01*
X242194Y192056D01*
X241744Y191606D01*
X241500Y191018D01*
Y190382D01*
X241744Y189794D01*
X242194Y189344D01*
X242782Y189100D01*
X243418D01*
X243597Y189174D01*
X247565D01*
X247869Y188647D01*
X248447Y188070D01*
X248973Y187766D01*
Y184319D01*
X248129D01*
Y179182D01*
X252872D01*
Y184319D01*
X251727D01*
Y187766D01*
X252253Y188070D01*
X252831Y188647D01*
X253239Y189354D01*
X253450Y190142D01*
Y190958D01*
X253239Y191747D01*
X252831Y192454D01*
X252253Y193031D01*
X251547Y193439D01*
X250758Y193650D01*
D02*
G37*
G36*
X15620Y194984D02*
X13057D01*
Y191829D01*
X15620D01*
Y194984D01*
D02*
G37*
G36*
X12057D02*
X9493D01*
Y191829D01*
X12057D01*
Y194984D01*
D02*
G37*
G36*
X297193Y194879D02*
X282607D01*
Y187773D01*
X297193D01*
Y194879D01*
D02*
G37*
G36*
X15620Y190829D02*
X13057D01*
Y187675D01*
X15620D01*
Y190829D01*
D02*
G37*
G36*
X12057D02*
X9493D01*
Y187675D01*
X12057D01*
Y190829D01*
D02*
G37*
G36*
X107468Y190821D02*
X102331D01*
Y186078D01*
X107468D01*
Y187328D01*
X111266D01*
X111594Y187000D01*
X112182Y186757D01*
X112818D01*
X113406Y187000D01*
X113734Y187328D01*
X118160D01*
Y185528D01*
X123297D01*
Y190272D01*
X118160D01*
Y189571D01*
X113548D01*
X113406Y189713D01*
X112818Y189957D01*
X112182D01*
X111594Y189713D01*
X111452Y189571D01*
X107468D01*
Y190821D01*
D02*
G37*
G36*
X275539Y184643D02*
X260560D01*
Y183531D01*
X259171D01*
Y184319D01*
X254428D01*
Y179182D01*
X259171D01*
Y180269D01*
X260560D01*
Y179506D01*
X275539D01*
Y184643D01*
D02*
G37*
G36*
X49896Y200062D02*
X43972D01*
Y194138D01*
X45812D01*
Y190949D01*
X45079Y190216D01*
X44836Y189852D01*
X44751Y189423D01*
X44751Y189423D01*
Y187169D01*
X43501D01*
Y182032D01*
X48244D01*
Y187169D01*
X46994D01*
Y188958D01*
X47727Y189691D01*
X47727Y189691D01*
X47970Y190055D01*
X48055Y190484D01*
X48055Y190484D01*
Y194138D01*
X49896D01*
Y200062D01*
D02*
G37*
G36*
X245669Y181221D02*
X240531D01*
Y180572D01*
X235491D01*
X235106Y180956D01*
X234518Y181200D01*
X233882D01*
X233294Y180956D01*
X232844Y180506D01*
X232600Y179918D01*
Y179282D01*
X232844Y178694D01*
X233294Y178244D01*
X233882Y178000D01*
X234518D01*
X235106Y178244D01*
X235192Y178329D01*
X240531D01*
Y176478D01*
X244486D01*
X245542Y175422D01*
X245335Y174922D01*
X240531D01*
Y170179D01*
X241979D01*
Y168341D01*
X241744Y168106D01*
X241500Y167518D01*
Y166882D01*
X241744Y166294D01*
X242194Y165844D01*
X242782Y165600D01*
X243418D01*
X244006Y165844D01*
X244456Y166294D01*
X244700Y166882D01*
Y167518D01*
X244456Y168106D01*
X244221Y168341D01*
Y170179D01*
X245669D01*
Y174589D01*
X246168Y174796D01*
X255431Y165533D01*
X255431Y165533D01*
X255795Y165290D01*
X256224Y165204D01*
X256224Y165204D01*
X260560D01*
Y163758D01*
X275539D01*
Y168895D01*
X260560D01*
Y167447D01*
X256689D01*
X245669Y178468D01*
Y181221D01*
D02*
G37*
G36*
X275739Y176969D02*
X268550D01*
Y174700D01*
X275739D01*
Y176969D01*
D02*
G37*
G36*
X267550D02*
X260360D01*
Y174700D01*
X267550D01*
Y176969D01*
D02*
G37*
G36*
X275739Y173700D02*
X268550D01*
Y171432D01*
X275739D01*
Y173700D01*
D02*
G37*
G36*
X267550D02*
X260360D01*
Y171432D01*
X267550D01*
Y173700D01*
D02*
G37*
G36*
X231432Y173709D02*
X226408D01*
Y167700D01*
X231432D01*
Y173709D01*
D02*
G37*
G36*
X225408D02*
X220384D01*
Y167700D01*
X225408D01*
Y173709D01*
D02*
G37*
G36*
X123297Y183972D02*
X118160D01*
Y179229D01*
X119607D01*
Y173462D01*
X118620D01*
Y167538D01*
X124544D01*
Y173462D01*
X121850D01*
Y179229D01*
X123297D01*
Y183972D01*
D02*
G37*
G36*
X107468Y184522D02*
X102331D01*
Y179779D01*
X103778D01*
Y173462D01*
X101948D01*
Y167538D01*
X107872D01*
Y173462D01*
X106022D01*
Y179779D01*
X107468D01*
Y184522D01*
D02*
G37*
G36*
X35300Y166082D02*
Y163300D01*
X38082D01*
X37875Y164074D01*
X37441Y164826D01*
X36826Y165441D01*
X36074Y165875D01*
X35300Y166082D01*
D02*
G37*
G36*
X34300D02*
X33526Y165875D01*
X32774Y165441D01*
X32159Y164826D01*
X31725Y164074D01*
X31518Y163300D01*
X34300D01*
Y166082D01*
D02*
G37*
G36*
X231432Y166700D02*
X226408D01*
Y160691D01*
X231432D01*
Y166700D01*
D02*
G37*
G36*
X225408D02*
X220384D01*
Y160691D01*
X225408D01*
Y166700D01*
D02*
G37*
G36*
X253967Y161021D02*
X249224D01*
Y159573D01*
X246803D01*
X246568Y159808D01*
X245980Y160052D01*
X245343D01*
X244755Y159808D01*
X244305Y159358D01*
X244062Y158770D01*
Y158134D01*
X244305Y157546D01*
X244755Y157096D01*
X245343Y156852D01*
X245980D01*
X246568Y157096D01*
X246803Y157330D01*
X249224D01*
Y155884D01*
X253967D01*
Y161021D01*
D02*
G37*
G36*
X38082Y162300D02*
X35300D01*
Y159518D01*
X36074Y159725D01*
X36826Y160159D01*
X37441Y160774D01*
X37875Y161526D01*
X38082Y162300D01*
D02*
G37*
G36*
X34300D02*
X31518D01*
X31725Y161526D01*
X32159Y160774D01*
X32774Y160159D01*
X33526Y159725D01*
X34300Y159518D01*
Y162300D01*
D02*
G37*
G36*
X116140Y173462D02*
X110216D01*
Y167538D01*
X112056D01*
Y160545D01*
X112056Y160545D01*
X112142Y160116D01*
X112385Y159752D01*
X113605Y158532D01*
Y157963D01*
X113358Y157565D01*
X113105Y157565D01*
X110872D01*
Y162859D01*
X111107Y163094D01*
X111350Y163682D01*
Y164318D01*
X111107Y164906D01*
X110657Y165356D01*
X110069Y165600D01*
X109432D01*
X108844Y165356D01*
X108394Y164906D01*
X108150Y164318D01*
Y163682D01*
X108394Y163094D01*
X108629Y162859D01*
Y161051D01*
X108129Y160951D01*
X107957Y161367D01*
X107507Y161817D01*
X106919Y162060D01*
X106282D01*
X105694Y161817D01*
X105244Y161367D01*
X105000Y160778D01*
Y160142D01*
X105244Y159554D01*
X105479Y159319D01*
Y157565D01*
X104678D01*
Y151641D01*
X108633D01*
Y154892D01*
X109113Y155105D01*
X109402Y154879D01*
Y151641D01*
X113358D01*
Y154991D01*
X113851Y155165D01*
X114126Y154924D01*
Y151641D01*
X118082D01*
Y157565D01*
X115848D01*
Y158996D01*
X115848Y158996D01*
X115763Y159425D01*
X115519Y159789D01*
X114299Y161009D01*
Y167538D01*
X116140D01*
Y173462D01*
D02*
G37*
G36*
X260266Y161021D02*
Y161021D01*
X260074Y161021D01*
X255523D01*
Y155884D01*
X256773D01*
Y152409D01*
X256698Y152389D01*
X255991Y151981D01*
X255414Y151403D01*
X255078Y150822D01*
X247541D01*
X247306Y151056D01*
X246718Y151300D01*
X246082D01*
X245494Y151056D01*
X245044Y150606D01*
X244800Y150018D01*
Y149382D01*
X245044Y148794D01*
X245494Y148344D01*
X246082Y148100D01*
X246718D01*
X247306Y148344D01*
X247541Y148578D01*
X254932D01*
X255006Y148303D01*
X255414Y147597D01*
X255991Y147019D01*
X256698Y146611D01*
X257486Y146400D01*
X258303D01*
X259091Y146611D01*
X259798Y147019D01*
X260375Y147597D01*
X260783Y148303D01*
X260995Y149092D01*
Y149908D01*
X260783Y150697D01*
X260375Y151403D01*
X259798Y151981D01*
X259091Y152389D01*
X259016Y152409D01*
Y155884D01*
X260266D01*
Y155883D01*
X260560D01*
Y155884D01*
X275539D01*
Y161021D01*
X260752D01*
X260560Y161021D01*
Y161021D01*
X260266D01*
D02*
G37*
G36*
X33243Y157765D02*
X31565D01*
Y155103D01*
X33243D01*
Y157765D01*
D02*
G37*
G36*
X75763D02*
X74085D01*
Y155103D01*
X75763D01*
Y157765D01*
D02*
G37*
G36*
X123007D02*
X121329D01*
Y155103D01*
X123007D01*
Y157765D01*
D02*
G37*
G36*
X120329D02*
X118651D01*
Y155103D01*
X120329D01*
Y157765D01*
D02*
G37*
G36*
X30565D02*
X28887D01*
Y155103D01*
X30565D01*
Y157765D01*
D02*
G37*
G36*
X73085D02*
X71407D01*
Y155103D01*
X73085D01*
Y157765D01*
D02*
G37*
G36*
X208232Y156172D02*
X206259D01*
Y154100D01*
X208232D01*
Y156172D01*
D02*
G37*
G36*
X89736Y157565D02*
X85780D01*
Y153267D01*
X85473Y153018D01*
X85011Y153219D01*
Y157565D01*
X81055D01*
Y151641D01*
X83540D01*
X83732Y151179D01*
X82191Y149638D01*
X82001Y149354D01*
X81887Y149306D01*
X81437Y148856D01*
X81193Y148268D01*
Y147632D01*
X81437Y147044D01*
X81887Y146594D01*
X82475Y146350D01*
X83111D01*
X83699Y146594D01*
X84149Y147044D01*
X84393Y147632D01*
Y148268D01*
X84276Y148551D01*
X87366Y151641D01*
X89736D01*
Y157565D01*
D02*
G37*
G36*
X178044Y153550D02*
X175844D01*
Y153400D01*
Y152500D01*
X178044D01*
Y153550D01*
D02*
G37*
G36*
X172703Y154708D02*
X171124D01*
Y152341D01*
X172703D01*
Y154708D01*
D02*
G37*
G36*
X170124D02*
X168544D01*
Y152341D01*
X170124D01*
Y154708D01*
D02*
G37*
G36*
X97525Y165600D02*
X96888D01*
X96300Y165356D01*
X95850Y164906D01*
X95607Y164318D01*
Y163682D01*
X95850Y163094D01*
X96085Y162859D01*
Y157565D01*
X95229D01*
Y151641D01*
X99185D01*
Y157565D01*
X98328D01*
Y162859D01*
X98563Y163094D01*
X98807Y163682D01*
Y164318D01*
X98563Y164906D01*
X98113Y165356D01*
X97525Y165600D01*
D02*
G37*
G36*
X92918Y168300D02*
X92282D01*
X91694Y168056D01*
X91244Y167606D01*
X91000Y167018D01*
Y166382D01*
X91244Y165794D01*
X91420Y165618D01*
Y157565D01*
X90504D01*
Y151641D01*
X94460D01*
Y157565D01*
X93663D01*
Y165500D01*
X93956Y165794D01*
X94200Y166382D01*
Y167018D01*
X93956Y167606D01*
X93506Y168056D01*
X92918Y168300D01*
D02*
G37*
G36*
X80287Y157565D02*
X76331D01*
Y151641D01*
X80287D01*
Y157565D01*
D02*
G37*
G36*
X61389D02*
X57433D01*
Y151641D01*
X61389D01*
Y157565D01*
D02*
G37*
G36*
X56665D02*
X52709D01*
Y151641D01*
X56665D01*
Y157565D01*
D02*
G37*
G36*
X51941D02*
X47985D01*
Y151641D01*
X51941D01*
Y157565D01*
D02*
G37*
G36*
X47216D02*
X43260D01*
Y151641D01*
X47216D01*
Y157565D01*
D02*
G37*
G36*
X42492D02*
X38536D01*
Y151641D01*
X42492D01*
Y157565D01*
D02*
G37*
G36*
X37767D02*
X33812D01*
Y151641D01*
X37767D01*
Y157565D01*
D02*
G37*
G36*
X123007Y154103D02*
X121329D01*
Y151441D01*
X123007D01*
Y154103D01*
D02*
G37*
G36*
X120329D02*
X118651D01*
Y151441D01*
X120329D01*
Y154103D01*
D02*
G37*
G36*
X75763D02*
X74085D01*
Y151441D01*
X75763D01*
Y154103D01*
D02*
G37*
G36*
X73085D02*
X71407D01*
Y151441D01*
X73085D01*
Y154103D01*
D02*
G37*
G36*
X33243D02*
X31565D01*
Y151441D01*
X33243D01*
Y154103D01*
D02*
G37*
G36*
X30565D02*
X28887D01*
Y151441D01*
X30565D01*
Y154103D01*
D02*
G37*
G36*
X208232Y153100D02*
X206259D01*
Y151028D01*
X208232D01*
Y153100D01*
D02*
G37*
G36*
X172703Y151341D02*
X171124D01*
Y148974D01*
X172703D01*
Y151341D01*
D02*
G37*
G36*
X170124D02*
X168544D01*
Y148974D01*
X170124D01*
Y151341D01*
D02*
G37*
G36*
X103909Y157565D02*
X99953D01*
Y151641D01*
X100776D01*
Y150529D01*
X100507Y150260D01*
X100263Y149672D01*
Y149035D01*
X100507Y148447D01*
X100957Y147997D01*
X101545Y147754D01*
X102182D01*
X102770Y147997D01*
X103220Y148447D01*
X103463Y149035D01*
Y149672D01*
X103220Y150260D01*
X103019Y150461D01*
Y151641D01*
X103909D01*
Y157565D01*
D02*
G37*
G36*
X151100Y148028D02*
X149028D01*
Y145760D01*
X151100D01*
Y148028D01*
D02*
G37*
G36*
X297193Y152753D02*
X282607D01*
Y145647D01*
X297193D01*
Y152753D01*
D02*
G37*
G36*
X141626Y144923D02*
X132946D01*
Y143504D01*
X129464D01*
Y144361D01*
X123540D01*
Y140405D01*
X129464D01*
Y141261D01*
X132946D01*
Y139392D01*
X132581Y139066D01*
X129464D01*
Y139636D01*
X123540D01*
Y135680D01*
X129464D01*
Y136822D01*
X136659D01*
X136894Y136588D01*
X137142Y136485D01*
X137108Y135958D01*
X136603Y135823D01*
X135897Y135415D01*
X135319Y134837D01*
X134911Y134130D01*
X134700Y133342D01*
Y132526D01*
X134911Y131737D01*
X134950Y131670D01*
X132611Y129331D01*
X129464D01*
Y130187D01*
X123540D01*
Y126232D01*
X129464D01*
Y127088D01*
X133075D01*
X133076Y127088D01*
X133505Y127173D01*
X133869Y127416D01*
X134859Y128407D01*
X135259Y128100D01*
X134911Y127497D01*
X134700Y126709D01*
Y125893D01*
X134911Y125104D01*
X134950Y125037D01*
X134520Y124607D01*
X129464D01*
Y125463D01*
X123540D01*
Y121507D01*
X129464D01*
Y122363D01*
X134984D01*
X134984Y122363D01*
X135413Y122449D01*
X135777Y122692D01*
X136536Y123451D01*
X136603Y123412D01*
X137392Y123201D01*
X138208D01*
X138997Y123412D01*
X139703Y123820D01*
X140281Y124397D01*
X140689Y125104D01*
X140709Y125179D01*
X147255D01*
X150100Y122334D01*
Y122002D01*
X150344Y121414D01*
X150794Y120964D01*
X151382Y120720D01*
X152018D01*
X152606Y120964D01*
X153056Y121414D01*
X153300Y122002D01*
Y122638D01*
X153056Y123226D01*
X152606Y123676D01*
X152018Y123920D01*
X151778D01*
X151527Y124236D01*
X151731Y124701D01*
X152018D01*
X152606Y124944D01*
X153056Y125394D01*
X153300Y125982D01*
Y126619D01*
X153056Y127207D01*
X152606Y127657D01*
X152018Y127901D01*
X151686D01*
X145860Y133727D01*
X145496Y133970D01*
X145067Y134055D01*
X145067Y134055D01*
X140709D01*
X140689Y134130D01*
X140281Y134837D01*
X139703Y135415D01*
X138997Y135823D01*
X138492Y135958D01*
X138458Y136485D01*
X138706Y136588D01*
X139156Y137038D01*
X139400Y137626D01*
Y138262D01*
X139156Y138850D01*
X139115Y138892D01*
X139322Y139392D01*
X141626D01*
Y141036D01*
X142929D01*
Y139532D01*
X147672D01*
Y144668D01*
X142929D01*
Y143279D01*
X141626D01*
Y144923D01*
D02*
G37*
G36*
X151100Y144869D02*
X149028D01*
Y142600D01*
X151100D01*
Y144869D01*
D02*
G37*
G36*
X170938Y141624D02*
X169535D01*
Y140300D01*
X170938D01*
Y141624D01*
D02*
G37*
G36*
X151100Y141600D02*
X149028D01*
Y139331D01*
X151100D01*
Y141600D01*
D02*
G37*
G36*
X170938Y139300D02*
X169535D01*
Y137976D01*
X170938D01*
Y137976D01*
Y139300D01*
D02*
G37*
G36*
X113936Y137685D02*
X113936Y137685D01*
X70224D01*
X70224Y137685D01*
X69795Y137600D01*
X69431Y137357D01*
X69431Y137357D01*
X68674Y136600D01*
X68382D01*
X67794Y136356D01*
X67344Y135906D01*
X67100Y135318D01*
Y134682D01*
X67344Y134094D01*
X67794Y133644D01*
X68382Y133400D01*
X69018D01*
X69606Y133644D01*
X70056Y134094D01*
X70300Y134682D01*
Y135054D01*
X70689Y135442D01*
X90623D01*
Y132027D01*
X95360D01*
X100097D01*
Y135442D01*
X101863D01*
Y132027D01*
X106600D01*
X111337D01*
Y135442D01*
X113472D01*
X113941Y134973D01*
X116773Y132141D01*
X116773Y132141D01*
X117137Y131898D01*
X117566Y131812D01*
X123540D01*
Y130956D01*
X129464D01*
Y134912D01*
X123540D01*
Y134055D01*
X118031D01*
X114729Y137357D01*
X114365Y137600D01*
X113936Y137685D01*
D02*
G37*
G36*
X171422Y136172D02*
X169744D01*
Y134100D01*
X171422D01*
Y136172D01*
D02*
G37*
G36*
X60578Y137075D02*
X56341D01*
Y132838D01*
X60578D01*
Y137075D01*
D02*
G37*
G36*
X46608D02*
X42371D01*
Y132838D01*
X46608D01*
Y137075D01*
D02*
G37*
G36*
X111337Y131027D02*
X107100D01*
Y126790D01*
X111337D01*
Y131027D01*
D02*
G37*
G36*
X106100D02*
X101863D01*
Y126790D01*
X106100D01*
Y131027D01*
D02*
G37*
G36*
X100097D02*
X95860D01*
Y126790D01*
X100097D01*
Y131027D01*
D02*
G37*
G36*
X94860D02*
X90623D01*
Y126790D01*
X94860D01*
Y131027D01*
D02*
G37*
G36*
X111337Y124752D02*
X107100D01*
Y120515D01*
X111337D01*
Y124752D01*
D02*
G37*
G36*
X100097D02*
X95860D01*
Y120515D01*
X100097D01*
Y124752D01*
D02*
G37*
G36*
X106100D02*
X101863D01*
Y120515D01*
X106100D01*
Y124752D01*
D02*
G37*
G36*
X94860D02*
X90623D01*
Y120515D01*
X94860D01*
Y124752D01*
D02*
G37*
G36*
X138108Y122275D02*
X137292D01*
X136503Y122064D01*
X135797Y121655D01*
X135219Y121078D01*
X134811Y120371D01*
X134680Y119882D01*
X129464D01*
Y120739D01*
X123540D01*
Y116783D01*
X129464D01*
Y117639D01*
X135007D01*
X135219Y117271D01*
X135797Y116694D01*
X136503Y116286D01*
X136578Y116266D01*
Y113559D01*
X136578Y113559D01*
X136664Y113130D01*
X136907Y112766D01*
X138753Y110920D01*
X138470Y110496D01*
X138018Y110684D01*
X137382D01*
X136794Y110440D01*
X136673Y110319D01*
X129464D01*
Y111290D01*
X123540D01*
Y107334D01*
X129464D01*
Y108076D01*
X136445D01*
X136794Y107727D01*
X137382Y107483D01*
X138018D01*
X138606Y107727D01*
X139056Y108177D01*
X139300Y108765D01*
Y109402D01*
X139113Y109853D01*
X139537Y110136D01*
X154378Y95295D01*
Y93752D01*
X154144Y93517D01*
X153900Y92929D01*
Y92292D01*
X154144Y91704D01*
X154268Y91580D01*
X124507Y61819D01*
X124264Y61456D01*
X124178Y61026D01*
X124178Y61026D01*
Y48521D01*
X122731D01*
Y47271D01*
X120268D01*
Y48021D01*
X115131D01*
Y46771D01*
X113648D01*
Y48047D01*
X108511D01*
Y43303D01*
X113648D01*
Y44528D01*
X115131D01*
Y43278D01*
X120268D01*
Y45028D01*
X122731D01*
Y43778D01*
X127868D01*
Y48521D01*
X126422D01*
Y60562D01*
X156293Y90433D01*
X156536Y90797D01*
X156622Y91226D01*
X156622Y91226D01*
Y91469D01*
X156856Y91704D01*
X157100Y92292D01*
Y92929D01*
X156856Y93517D01*
X156622Y93752D01*
Y95759D01*
X156622Y95759D01*
X156536Y96188D01*
X156293Y96552D01*
X156293Y96552D01*
X138822Y114024D01*
Y116266D01*
X138897Y116286D01*
X139603Y116694D01*
X140181Y117271D01*
X140589Y117978D01*
X140800Y118767D01*
Y119583D01*
X140589Y120371D01*
X140181Y121078D01*
X139603Y121655D01*
X138897Y122064D01*
X138108Y122275D01*
D02*
G37*
G36*
X60578Y123247D02*
X56341D01*
Y119010D01*
X60578D01*
Y123247D01*
D02*
G37*
G36*
X55341Y137075D02*
X47608D01*
Y132338D01*
X47108D01*
Y131838D01*
X42371D01*
Y127601D01*
Y124247D01*
X47108D01*
Y123747D01*
X47608D01*
Y119010D01*
X55341D01*
Y123747D01*
X55841D01*
Y124247D01*
X60578D01*
Y127601D01*
Y131838D01*
X55841D01*
Y132338D01*
X55341D01*
Y137075D01*
D02*
G37*
G36*
X46608Y123247D02*
X42371D01*
Y119010D01*
X46608D01*
Y123247D01*
D02*
G37*
G36*
X187684Y118234D02*
X187004D01*
X186348Y118058D01*
X185760Y117719D01*
X185424Y117383D01*
X184924Y117587D01*
Y118234D01*
X179764D01*
Y113074D01*
X180125D01*
X180333Y112574D01*
X180120Y112361D01*
X179753Y111727D01*
X179600Y111154D01*
X182344D01*
Y110154D01*
X179600D01*
X179753Y109581D01*
X180120Y108947D01*
X180620Y108446D01*
X180681Y108375D01*
Y107934D01*
X180620Y107862D01*
X180120Y107361D01*
X179753Y106727D01*
X179600Y106154D01*
X182344D01*
Y105154D01*
X179600D01*
X179753Y104581D01*
X180120Y103947D01*
X180637Y103429D01*
X180814Y103327D01*
X180814Y102750D01*
X180760Y102719D01*
X180280Y102238D01*
X179940Y101650D01*
X179764Y100994D01*
Y100314D01*
X179940Y99658D01*
X180280Y99070D01*
X180760Y98589D01*
X180814Y98558D01*
X180814Y97981D01*
X180637Y97879D01*
X180120Y97361D01*
X179753Y96727D01*
X179600Y96154D01*
X182344D01*
Y95654D01*
X182844D01*
Y92910D01*
X183417Y93063D01*
X184051Y93429D01*
X184569Y93947D01*
X184671Y94124D01*
X185248Y94124D01*
X185280Y94070D01*
X185760Y93590D01*
X186348Y93250D01*
X187004Y93074D01*
X187684D01*
X188340Y93250D01*
X188928Y93590D01*
X189409Y94070D01*
X189748Y94658D01*
X189924Y95314D01*
Y95994D01*
X189748Y96650D01*
X189409Y97238D01*
X188928Y97719D01*
X188674Y97865D01*
Y98443D01*
X188928Y98589D01*
X189409Y99070D01*
X189748Y99658D01*
X189924Y100314D01*
Y100994D01*
X189748Y101650D01*
X189409Y102238D01*
X188928Y102719D01*
X188674Y102865D01*
Y103443D01*
X188928Y103589D01*
X189409Y104070D01*
X189748Y104658D01*
X189924Y105314D01*
Y105994D01*
X189748Y106650D01*
X189409Y107238D01*
X188928Y107719D01*
X188674Y107865D01*
Y108443D01*
X188928Y108589D01*
X189409Y109070D01*
X189748Y109658D01*
X189924Y110314D01*
Y110994D01*
X189748Y111650D01*
X189409Y112238D01*
X188928Y112719D01*
X188674Y112865D01*
Y113443D01*
X188928Y113590D01*
X189409Y114070D01*
X189748Y114658D01*
X189924Y115314D01*
Y115994D01*
X189748Y116650D01*
X189409Y117238D01*
X188928Y117719D01*
X188340Y118058D01*
X187684Y118234D01*
D02*
G37*
G36*
X111337Y119515D02*
X107100D01*
Y115278D01*
X111337D01*
Y119515D01*
D02*
G37*
G36*
X106100D02*
X101863D01*
Y115278D01*
X106100D01*
Y119515D01*
D02*
G37*
G36*
X100097D02*
X95860D01*
Y115278D01*
X100097D01*
Y119515D01*
D02*
G37*
G36*
X94860D02*
X90623D01*
Y115278D01*
X94860D01*
Y119515D01*
D02*
G37*
G36*
X129464Y116014D02*
X123540D01*
Y112058D01*
X129464D01*
Y116014D01*
D02*
G37*
G36*
X219115Y111520D02*
X216834D01*
Y109045D01*
X219115D01*
Y111520D01*
D02*
G37*
G36*
X215834D02*
X213553D01*
Y109045D01*
X215834D01*
Y111520D01*
D02*
G37*
G36*
X108834Y105009D02*
X107156D01*
Y102347D01*
X108834D01*
Y105009D01*
D02*
G37*
G36*
X33243D02*
X31565D01*
Y102347D01*
D01*
X33243D01*
Y105009D01*
D02*
G37*
G36*
X75763D02*
X74085D01*
Y102347D01*
X75763D01*
Y105009D01*
D02*
G37*
G36*
X123007D02*
X121329D01*
Y102347D01*
X123007D01*
Y105009D01*
D02*
G37*
G36*
X120329D02*
X118651D01*
Y102347D01*
X120329D01*
Y105009D01*
D02*
G37*
G36*
X106156D02*
X104478D01*
Y102347D01*
X106156D01*
Y105009D01*
D02*
G37*
G36*
X30565D02*
X28887D01*
Y102347D01*
X30565D01*
Y105009D01*
D02*
G37*
G36*
X73085D02*
X71407D01*
Y102347D01*
X73085D01*
Y105009D01*
D02*
G37*
G36*
X66114Y104809D02*
X62158D01*
Y101527D01*
X61883Y101285D01*
X61389Y101459D01*
Y104809D01*
X57433D01*
Y98885D01*
X58184D01*
Y96901D01*
X57844Y96560D01*
X57600Y95972D01*
Y95336D01*
X57844Y94748D01*
X58294Y94298D01*
X58882Y94054D01*
X59518D01*
X60106Y94298D01*
X60556Y94748D01*
X60800Y95336D01*
Y95972D01*
X60556Y96560D01*
X60427Y96689D01*
Y98532D01*
X60781Y98885D01*
X61389Y98885D01*
X61636Y98487D01*
Y94531D01*
X58007Y90901D01*
X57763Y90538D01*
X57678Y90108D01*
X57678Y90108D01*
Y89537D01*
X56428D01*
Y84400D01*
X61171D01*
Y89537D01*
X60521D01*
X60314Y90037D01*
X63551Y93274D01*
X63551Y93274D01*
X63794Y93638D01*
X63879Y94067D01*
X63879Y94067D01*
Y98885D01*
X66114D01*
Y104809D01*
D02*
G37*
G36*
X94460D02*
X90504D01*
Y98885D01*
X94460D01*
Y104809D01*
D02*
G37*
G36*
X89736D02*
X85780D01*
Y98885D01*
X89736D01*
Y104809D01*
D02*
G37*
G36*
X80318Y108600D02*
X79682D01*
X79094Y108356D01*
X78644Y107906D01*
X78400Y107318D01*
Y106833D01*
X77516Y105948D01*
X77273Y105585D01*
X77188Y105155D01*
X76863Y104809D01*
X76331D01*
Y98885D01*
X80287D01*
Y104809D01*
X80287Y104809D01*
X80359Y105280D01*
X80472Y105464D01*
X80906Y105644D01*
X81356Y106094D01*
X81600Y106682D01*
Y107318D01*
X81356Y107906D01*
X80906Y108356D01*
X80318Y108600D01*
D02*
G37*
G36*
X56665Y104809D02*
X52709D01*
Y98885D01*
X56665D01*
Y104809D01*
D02*
G37*
G36*
X51941D02*
X47985D01*
Y98885D01*
X51941D01*
Y104809D01*
D02*
G37*
G36*
X47216D02*
X43260D01*
Y98885D01*
X47216D01*
Y104809D01*
D02*
G37*
G36*
X42492D02*
X38536D01*
Y98885D01*
X42492D01*
Y104809D01*
D02*
G37*
G36*
X37767D02*
X33812D01*
Y98885D01*
X37767D01*
Y104809D01*
D02*
G37*
G36*
X123007Y101347D02*
X121329D01*
Y98685D01*
X123007D01*
Y101347D01*
D02*
G37*
G36*
X120329D02*
X118651D01*
Y98685D01*
X120329D01*
Y101347D01*
D02*
G37*
G36*
X108834D02*
X107156D01*
Y98685D01*
X108834D01*
Y101347D01*
D02*
G37*
G36*
X106156D02*
X104478D01*
Y98685D01*
X106156D01*
Y101347D01*
D02*
G37*
G36*
X75763D02*
X74085D01*
Y98685D01*
X75763D01*
Y101347D01*
D02*
G37*
G36*
X73085D02*
X71407D01*
Y98685D01*
X73085D01*
Y101347D01*
D02*
G37*
G36*
X33243D02*
X31565D01*
Y98685D01*
X33243D01*
Y101347D01*
D02*
G37*
G36*
X30565D02*
X28887D01*
D01*
Y98685D01*
X30565D01*
Y101347D01*
D02*
G37*
G36*
X118082Y104809D02*
X114126D01*
Y98885D01*
X114983D01*
Y95741D01*
X114748Y95506D01*
X114504Y94918D01*
Y94282D01*
X114748Y93694D01*
X115198Y93244D01*
X115786Y93000D01*
X116423D01*
X117011Y93244D01*
X117461Y93694D01*
X117704Y94282D01*
Y94918D01*
X117461Y95506D01*
X117226Y95741D01*
Y98885D01*
X118082D01*
Y104809D01*
D02*
G37*
G36*
X85011D02*
X81055D01*
Y98885D01*
X81912D01*
Y95741D01*
X81677Y95506D01*
X81433Y94918D01*
Y94282D01*
X81677Y93694D01*
X82127Y93244D01*
X82715Y93000D01*
X83352D01*
X83940Y93244D01*
X84390Y93694D01*
X84633Y94282D01*
Y94918D01*
X84390Y95506D01*
X84155Y95741D01*
Y98885D01*
X85011D01*
Y104809D01*
D02*
G37*
G36*
X181844Y95154D02*
X179600D01*
X179753Y94581D01*
X180120Y93947D01*
X180637Y93429D01*
X181271Y93063D01*
X181844Y92910D01*
Y95154D01*
D02*
G37*
G36*
X34321Y95854D02*
X31757D01*
Y92700D01*
X34321D01*
Y95854D01*
D02*
G37*
G36*
X30757D02*
X28193D01*
Y92700D01*
X30757D01*
Y95854D01*
D02*
G37*
G36*
X129464Y106565D02*
X123540D01*
Y102610D01*
X124003D01*
Y94104D01*
X123571Y93701D01*
X122755D01*
X121966Y93490D01*
X121259Y93082D01*
X120682Y92505D01*
X120274Y91798D01*
X120254Y91723D01*
X117191D01*
X116956Y91958D01*
X116368Y92202D01*
X115732D01*
X115144Y91958D01*
X114693Y91508D01*
X114450Y90920D01*
Y90283D01*
X114693Y89695D01*
X114928Y89461D01*
Y87669D01*
X114033D01*
X113971Y87761D01*
X113971Y87761D01*
X112502Y89231D01*
Y98885D01*
X113358D01*
Y104809D01*
X109402D01*
Y98885D01*
X110258D01*
Y88766D01*
X110258Y88766D01*
X110344Y88337D01*
X110456Y88169D01*
X110211Y87669D01*
X107379D01*
Y86203D01*
X104893D01*
Y88044D01*
X98969D01*
Y82120D01*
X104893D01*
Y83960D01*
X107379D01*
Y82531D01*
X112056D01*
Y74241D01*
X111821Y74006D01*
X111578Y73418D01*
Y72782D01*
X111821Y72194D01*
X112272Y71744D01*
X112860Y71500D01*
X113496D01*
X114084Y71744D01*
X114534Y72194D01*
X114778Y72782D01*
Y73418D01*
X114534Y74006D01*
X114299Y74241D01*
Y82531D01*
X118421D01*
Y87669D01*
X117171D01*
Y89460D01*
X117191Y89480D01*
X120254D01*
X120274Y89405D01*
X120682Y88698D01*
X121259Y88121D01*
X121966Y87713D01*
X122755Y87502D01*
X123571D01*
X124360Y87713D01*
X125066Y88121D01*
X125644Y88698D01*
X126052Y89405D01*
X126263Y90193D01*
Y91010D01*
X126052Y91798D01*
X125784Y92261D01*
X125917Y92394D01*
X125917Y92394D01*
X126160Y92758D01*
X126246Y93187D01*
X126246Y93187D01*
Y102610D01*
X129464D01*
Y106565D01*
D02*
G37*
G36*
X103909Y104809D02*
X99953D01*
Y98885D01*
X100810D01*
Y96312D01*
X98969D01*
Y90387D01*
X104893D01*
Y96312D01*
X103053D01*
Y98885D01*
X103909D01*
Y104809D01*
D02*
G37*
G36*
X34321Y91700D02*
X31757D01*
Y88546D01*
X34321D01*
Y91700D01*
D02*
G37*
G36*
X30757D02*
X28193D01*
D01*
Y88546D01*
X30757D01*
Y91700D01*
D02*
G37*
G36*
X54872Y89537D02*
X50129D01*
Y88090D01*
X48073D01*
X47806Y88356D01*
X47218Y88600D01*
X46582D01*
X45994Y88356D01*
X45544Y87906D01*
X45300Y87318D01*
Y86682D01*
X45544Y86094D01*
X45994Y85644D01*
X46582Y85400D01*
X47218D01*
X47806Y85644D01*
X48009Y85847D01*
X50129D01*
Y84400D01*
X54872D01*
Y89537D01*
D02*
G37*
G36*
X34121Y87054D02*
X31557D01*
Y83900D01*
X34121D01*
Y87054D01*
D02*
G37*
G36*
X30557D02*
X27993D01*
Y83900D01*
X30557D01*
Y87054D01*
D02*
G37*
G36*
X200266Y93170D02*
X195523D01*
Y88033D01*
X195567D01*
X195840Y87700D01*
X195840Y87700D01*
Y86503D01*
X195444Y86106D01*
X195200Y85518D01*
Y84882D01*
X195444Y84294D01*
X195894Y83844D01*
X196482Y83600D01*
X197118D01*
X197706Y83844D01*
X198156Y84294D01*
X198400Y84882D01*
Y85518D01*
X198156Y86106D01*
X198083Y86180D01*
Y87235D01*
X198688Y87840D01*
X198688Y87840D01*
X198817Y88033D01*
X200266D01*
Y93170D01*
D02*
G37*
G36*
X70838Y104809D02*
X66882D01*
Y98885D01*
X67739D01*
Y95152D01*
X67503Y95089D01*
X66797Y94681D01*
X66219Y94103D01*
X65811Y93397D01*
X65600Y92608D01*
Y91792D01*
X65811Y91003D01*
X66219Y90297D01*
X66797Y89719D01*
X67503Y89311D01*
X67578Y89291D01*
Y86081D01*
X67504Y86006D01*
X67260Y85418D01*
Y84782D01*
X67504Y84194D01*
X67954Y83744D01*
X68542Y83500D01*
X69178D01*
X69767Y83744D01*
X70217Y84194D01*
X70460Y84782D01*
Y85418D01*
X70217Y86006D01*
X69822Y86401D01*
Y89291D01*
X69897Y89311D01*
X70603Y89719D01*
X71181Y90297D01*
X71589Y91003D01*
X71800Y91792D01*
Y92608D01*
X71589Y93397D01*
X71181Y94103D01*
X70603Y94681D01*
X69982Y95039D01*
Y98885D01*
X70838D01*
Y104809D01*
D02*
G37*
G36*
X280800Y92899D02*
X272223D01*
X271764Y92709D01*
X271573Y92250D01*
Y80500D01*
X271764Y80041D01*
X272223Y79851D01*
X273832D01*
X273888Y79874D01*
X274031Y79778D01*
Y79778D01*
X279169D01*
Y79778D01*
X279312Y79874D01*
X279368Y79851D01*
X280900D01*
X281359Y80041D01*
X281549Y80500D01*
Y92150D01*
X281359Y92609D01*
X281259Y92709D01*
X280800Y92899D01*
D02*
G37*
G36*
X34121Y82900D02*
X31557D01*
Y79746D01*
X34121D01*
Y82900D01*
D02*
G37*
G36*
X30557D02*
X27993D01*
Y79746D01*
X30557D01*
Y82900D01*
D02*
G37*
G36*
X206565Y93170D02*
X201822D01*
Y88033D01*
X203072D01*
Y83218D01*
X201223Y81368D01*
X197869D01*
Y76231D01*
X202612D01*
Y79585D01*
X204987Y81960D01*
X204987Y81960D01*
X205230Y82324D01*
X205315Y82753D01*
X205315Y82754D01*
Y85253D01*
X209178D01*
Y84121D01*
X207732D01*
Y79378D01*
X212868D01*
Y84121D01*
X211421D01*
Y85789D01*
X211336Y86218D01*
X211093Y86582D01*
X211093Y86582D01*
X210507Y87168D01*
X210143Y87411D01*
X209714Y87497D01*
X209714Y87497D01*
X205315D01*
Y88033D01*
X206565D01*
Y93170D01*
D02*
G37*
G36*
X41207Y95654D02*
X35480D01*
Y88746D01*
X37222D01*
Y86854D01*
X35280D01*
Y79946D01*
X37022D01*
Y77220D01*
X36903Y77189D01*
X36197Y76781D01*
X35619Y76203D01*
X35211Y75497D01*
X35000Y74708D01*
Y73892D01*
X35211Y73103D01*
X35619Y72397D01*
X36197Y71819D01*
X36903Y71411D01*
X37692Y71200D01*
X38508D01*
X39297Y71411D01*
X40003Y71819D01*
X40581Y72397D01*
X40989Y73103D01*
X41200Y73892D01*
Y74708D01*
X40989Y75497D01*
X40581Y76203D01*
X40003Y76781D01*
X39297Y77189D01*
X39265Y77197D01*
Y79946D01*
X41007D01*
Y82279D01*
X41735D01*
X43900Y80114D01*
Y79782D01*
X44144Y79194D01*
X44594Y78744D01*
X45182Y78500D01*
X45818D01*
X46406Y78744D01*
X46856Y79194D01*
X47100Y79782D01*
Y80418D01*
X46856Y81006D01*
X46406Y81456D01*
X45818Y81700D01*
X45486D01*
X42993Y84193D01*
X42629Y84436D01*
X42200Y84522D01*
X42200Y84522D01*
X41007D01*
Y86854D01*
X39465D01*
Y88746D01*
X41207D01*
Y95654D01*
D02*
G37*
G36*
X274031Y78222D02*
X273888Y78126D01*
X273832Y78149D01*
X272300D01*
X272186Y78102D01*
X272063Y78105D01*
X271966Y78011D01*
X271841Y77959D01*
X271794Y77846D01*
X271705Y77760D01*
X265351Y63249D01*
X242900D01*
X242441Y63059D01*
X242251Y62600D01*
Y54900D01*
X242441Y54441D01*
X242900Y54251D01*
X266900D01*
X267359Y54441D01*
X274683Y61765D01*
X274877Y61736D01*
X275053Y61205D01*
X272741Y58893D01*
X272551Y58434D01*
Y47543D01*
X268657Y43649D01*
X243100D01*
X242641Y43459D01*
X242451Y43000D01*
Y35000D01*
X242641Y34541D01*
X243100Y34351D01*
X269984D01*
X270013Y34363D01*
X270044Y34353D01*
X270239Y34456D01*
X270443Y34541D01*
X270455Y34570D01*
X270483Y34585D01*
X277811Y43405D01*
X277876Y43616D01*
X277960Y43820D01*
Y51298D01*
X278461Y51398D01*
X278485Y51340D01*
X278928Y50762D01*
X279505Y50319D01*
X279779Y50206D01*
Y40709D01*
X278035D01*
Y35178D01*
X283565D01*
Y40709D01*
X282021D01*
Y50206D01*
X282295Y50319D01*
X282872Y50762D01*
X283086Y51041D01*
X283714D01*
X283928Y50762D01*
X284505Y50319D01*
X285178Y50041D01*
X285900Y49945D01*
X286622Y50041D01*
X287295Y50319D01*
X287872Y50762D01*
X287959Y50875D01*
X288589D01*
X288785Y50620D01*
X289405Y50144D01*
X290126Y49846D01*
X290400Y49810D01*
Y54900D01*
X290900D01*
D01*
X290400D01*
Y59991D01*
X290126Y59954D01*
X289549Y59716D01*
X289162Y59900D01*
X289049Y60013D01*
Y71200D01*
X288859Y71659D01*
X288400Y71849D01*
X283200D01*
X282741Y71659D01*
X282551Y71200D01*
Y70265D01*
X282417Y70065D01*
X281499D01*
Y77500D01*
X281309Y77959D01*
X280850Y78149D01*
X279368D01*
X279312Y78126D01*
X279169Y78222D01*
Y78222D01*
X274031D01*
Y78222D01*
D02*
G37*
G36*
X196313Y81368D02*
X191569D01*
Y79922D01*
X181968D01*
X181539Y79836D01*
X181175Y79593D01*
X181175Y79593D01*
X180589Y79007D01*
X180346Y78643D01*
X180261Y78214D01*
X180261Y78214D01*
Y77722D01*
X179482Y77399D01*
X178740Y76829D01*
X178171Y76087D01*
X177812Y75223D01*
X177690Y74296D01*
Y68389D01*
X177812Y67462D01*
X178171Y66598D01*
X178740Y65855D01*
X179482Y65286D01*
X180347Y64928D01*
X181274Y64806D01*
X182202Y64928D01*
X183066Y65286D01*
X183808Y65855D01*
X184378Y66598D01*
X184736Y67462D01*
X184858Y68389D01*
Y74296D01*
X184736Y75223D01*
X184378Y76087D01*
X183808Y76829D01*
X183353Y77178D01*
X183523Y77678D01*
X191569D01*
Y76231D01*
X196313D01*
Y81368D01*
D02*
G37*
G36*
X99185Y104809D02*
X95229D01*
Y98885D01*
X96085D01*
Y77241D01*
X95850Y77006D01*
X95607Y76418D01*
Y75782D01*
X95850Y75194D01*
X96300Y74744D01*
X96888Y74500D01*
X97525D01*
X98113Y74744D01*
X98563Y75194D01*
X98807Y75782D01*
Y76418D01*
X98563Y77006D01*
X98328Y77241D01*
Y98885D01*
X99185D01*
Y104809D01*
D02*
G37*
G36*
X20800Y76982D02*
Y74200D01*
X23582D01*
X23375Y74974D01*
X22941Y75726D01*
X22326Y76341D01*
X21574Y76775D01*
X20800Y76982D01*
D02*
G37*
G36*
X19800D02*
X19026Y76775D01*
X18274Y76341D01*
X17659Y75726D01*
X17225Y74974D01*
X17018Y74200D01*
X19800D01*
Y76982D01*
D02*
G37*
G36*
X166026Y78015D02*
Y71842D01*
X169311D01*
Y74296D01*
X169182Y75275D01*
X168804Y76188D01*
X168203Y76972D01*
X167419Y77574D01*
X166506Y77952D01*
X166026Y78015D01*
D02*
G37*
G36*
X165026D02*
X164546Y77952D01*
X163633Y77574D01*
X162849Y76972D01*
X162248Y76188D01*
X161870Y75275D01*
X161741Y74296D01*
Y71842D01*
X165026D01*
Y78015D01*
D02*
G37*
G36*
X23582Y73200D02*
X20800D01*
Y70418D01*
X21574Y70625D01*
X22326Y71059D01*
X22941Y71674D01*
X23375Y72426D01*
X23582Y73200D01*
D02*
G37*
G36*
X19800D02*
X17018D01*
D01*
X17225Y72426D01*
X17659Y71674D01*
X18274Y71059D01*
X19026Y70625D01*
X19800Y70418D01*
Y73200D01*
D02*
G37*
G36*
X169311Y70842D02*
X166026D01*
Y64670D01*
X166506Y64733D01*
X167419Y65111D01*
X168203Y65713D01*
X168804Y66497D01*
X169182Y67410D01*
X169311Y68389D01*
Y70842D01*
D02*
G37*
G36*
X165026D02*
X161741D01*
Y68389D01*
X161870Y67410D01*
X162248Y66497D01*
X162849Y65713D01*
X163633Y65111D01*
X164546Y64733D01*
X165026Y64670D01*
Y70842D01*
D02*
G37*
G36*
X291400Y59991D02*
Y55400D01*
X293891D01*
Y57065D01*
X293789Y57840D01*
X293490Y58561D01*
X293015Y59180D01*
X292395Y59656D01*
X291674Y59954D01*
X291400Y59991D01*
D02*
G37*
G36*
X293891Y54400D02*
X291400D01*
Y49810D01*
X291674Y49846D01*
X292395Y50144D01*
X293015Y50620D01*
X293490Y51239D01*
X293789Y51960D01*
X293891Y52735D01*
Y54400D01*
D02*
G37*
G36*
X51807Y50284D02*
X50523D01*
Y49000D01*
X51807D01*
Y50284D01*
D02*
G37*
G36*
X49523D02*
X48239D01*
Y49000D01*
X49523D01*
Y50284D01*
D02*
G37*
G36*
X51807Y48000D02*
X50523D01*
Y46716D01*
X51807D01*
Y48000D01*
D02*
G37*
G36*
X49523D02*
X48239D01*
Y46716D01*
X49523D01*
Y48000D01*
D02*
G37*
G36*
X89118Y54373D02*
X88482D01*
X87894Y54129D01*
X87444Y53679D01*
X87200Y53091D01*
Y52455D01*
X87444Y51867D01*
X87678Y51632D01*
Y48021D01*
X86431D01*
Y43278D01*
X91568D01*
Y44428D01*
X93864D01*
Y43016D01*
X99001D01*
Y44266D01*
X100932D01*
Y43016D01*
X106069D01*
Y47759D01*
X100932D01*
Y46509D01*
X99001D01*
Y47759D01*
X93864D01*
Y46671D01*
X91568D01*
Y48021D01*
X89921D01*
Y51632D01*
X90156Y51867D01*
X90400Y52455D01*
Y53091D01*
X90156Y53679D01*
X89706Y54129D01*
X89118Y54373D01*
D02*
G37*
G36*
X120468Y41922D02*
X118200D01*
Y39850D01*
X120468D01*
Y41922D01*
D02*
G37*
G36*
X91768D02*
X89500D01*
Y39850D01*
X91768D01*
Y41922D01*
D02*
G37*
G36*
X117200D02*
X114931D01*
Y39850D01*
X117200D01*
Y41922D01*
D02*
G37*
G36*
X88500D02*
X86231D01*
Y39850D01*
X88500D01*
Y41922D01*
D02*
G37*
G36*
X38218Y65600D02*
X37582D01*
X36994Y65356D01*
X36544Y64906D01*
X36300Y64318D01*
Y63682D01*
X36544Y63094D01*
X36778Y62859D01*
Y58294D01*
X35331D01*
Y53551D01*
X40468D01*
Y54801D01*
X59250D01*
X59250Y54801D01*
X59332Y54817D01*
X59832Y54432D01*
Y50401D01*
X61278D01*
Y48758D01*
X61103Y48711D01*
X60397Y48303D01*
X59819Y47726D01*
X59411Y47019D01*
X59200Y46231D01*
Y45414D01*
X59411Y44626D01*
X59819Y43919D01*
X60397Y43342D01*
X60174Y42893D01*
X55921Y38640D01*
X55459Y38832D01*
Y40963D01*
X54470D01*
Y39031D01*
X53470D01*
Y40963D01*
X52492D01*
Y39031D01*
X51492D01*
Y40963D01*
X50523D01*
Y39031D01*
X49523D01*
Y40963D01*
X48534D01*
Y40763D01*
X47208D01*
Y46916D01*
X47671D01*
Y50084D01*
X44502D01*
Y49622D01*
X40468D01*
Y51995D01*
X35331D01*
Y49622D01*
X30275D01*
Y50281D01*
X25925D01*
Y46719D01*
X30275D01*
Y47378D01*
X35331D01*
Y47252D01*
X40468D01*
Y47378D01*
X44502D01*
Y46916D01*
X44965D01*
Y37062D01*
X44965Y37062D01*
X45050Y36633D01*
X45243Y36344D01*
X45483Y35943D01*
Y34954D01*
X47415D01*
Y33954D01*
X45483D01*
Y32985D01*
X47415D01*
Y31985D01*
X45483D01*
Y30999D01*
X43779D01*
X43468Y31310D01*
X43104Y31553D01*
X42674Y31639D01*
X42674Y31639D01*
X40684D01*
Y32101D01*
X37516D01*
Y31639D01*
X33422D01*
Y38788D01*
X33422Y38788D01*
X33336Y39217D01*
X33093Y39581D01*
X33093Y39581D01*
X30275Y42399D01*
Y42809D01*
X30310Y42988D01*
X30275Y43168D01*
Y44769D01*
X25925D01*
Y41207D01*
X28295D01*
X31178Y38324D01*
Y31103D01*
X31178Y31103D01*
X31264Y30674D01*
X31507Y30310D01*
X32093Y29724D01*
X32093Y29724D01*
X32457Y29481D01*
X32886Y29395D01*
X37516D01*
Y28933D01*
X40684D01*
Y29395D01*
X42210D01*
X42521Y29084D01*
X42521Y29084D01*
X42885Y28841D01*
X43314Y28756D01*
X43314Y28756D01*
X46751D01*
Y28145D01*
X55249D01*
Y30286D01*
X55711Y30477D01*
X56511Y29677D01*
Y15630D01*
X56511Y15630D01*
X56596Y15201D01*
X56839Y14837D01*
X57425Y14252D01*
X57425Y14251D01*
X57789Y14008D01*
X58218Y13923D01*
X59832D01*
Y12673D01*
X64969D01*
Y14122D01*
X65162Y14251D01*
X65189Y14278D01*
X80659D01*
X80894Y14044D01*
X81482Y13800D01*
X82118D01*
X82706Y14044D01*
X83156Y14494D01*
X83400Y15082D01*
Y15718D01*
X83156Y16306D01*
X82706Y16756D01*
X82118Y17000D01*
X81482D01*
X80894Y16756D01*
X80659Y16522D01*
X64969D01*
Y17416D01*
X59832D01*
Y16166D01*
X58754D01*
Y30142D01*
X58754Y30142D01*
X58669Y30571D01*
X58425Y30935D01*
X58425Y30935D01*
X56528Y32832D01*
X56735Y33332D01*
X66535D01*
X66545Y33292D01*
X66954Y32585D01*
X67531Y32008D01*
X68238Y31599D01*
X68313Y31579D01*
Y30321D01*
X67431D01*
Y25578D01*
X72569D01*
Y30321D01*
X70556D01*
Y31579D01*
X70631Y31599D01*
X71338Y32008D01*
X71915Y32585D01*
X72323Y33292D01*
X72343Y33367D01*
X78071D01*
X78294Y33144D01*
X78882Y32900D01*
X79518D01*
X80106Y33144D01*
X80556Y33594D01*
X80800Y34182D01*
Y34818D01*
X80556Y35406D01*
X80106Y35856D01*
X79518Y36100D01*
X78882D01*
X78294Y35856D01*
X78047Y35610D01*
X72343D01*
X72323Y35685D01*
X71915Y36392D01*
X71338Y36969D01*
X70631Y37377D01*
X69842Y37588D01*
X69026D01*
X68238Y37377D01*
X67531Y36969D01*
X66954Y36392D01*
X66545Y35685D01*
X66516Y35576D01*
X56735D01*
X56528Y36075D01*
X62385Y41932D01*
X62628Y42296D01*
X62713Y42724D01*
X63497Y42934D01*
X64203Y43342D01*
X64781Y43919D01*
X65189Y44626D01*
X65209Y44701D01*
X71536D01*
X71594Y44644D01*
X72182Y44400D01*
X72818D01*
X73406Y44644D01*
X73856Y45094D01*
X74100Y45682D01*
Y46318D01*
X73856Y46906D01*
X73406Y47356D01*
X72818Y47600D01*
X72182D01*
X71594Y47356D01*
X71181Y46944D01*
X65209D01*
X65189Y47019D01*
X64781Y47726D01*
X64203Y48303D01*
X63522Y48697D01*
Y50401D01*
X64969D01*
Y55145D01*
X60712D01*
X60520Y55606D01*
X61615Y56700D01*
X64969D01*
Y61444D01*
X59832D01*
Y58090D01*
X58786Y57044D01*
X40468D01*
Y58294D01*
X39022D01*
Y62859D01*
X39256Y63094D01*
X39500Y63682D01*
Y64318D01*
X39256Y64906D01*
X38806Y65356D01*
X38218Y65600D01*
D02*
G37*
G36*
X120468Y38850D02*
X118200D01*
Y36779D01*
X120468D01*
Y38850D01*
D02*
G37*
G36*
X117200D02*
X114931D01*
Y36779D01*
X117200D01*
Y38850D01*
D02*
G37*
G36*
X91768D02*
X89500D01*
Y36779D01*
X91768D01*
Y38850D01*
D02*
G37*
G36*
X88500D02*
X86231D01*
Y36779D01*
X88500D01*
Y38850D01*
D02*
G37*
G36*
X40884Y36238D02*
X39600D01*
Y34954D01*
X40884D01*
Y36238D01*
D02*
G37*
G36*
X38600D02*
X37316D01*
Y34954D01*
X38600D01*
Y36238D01*
D02*
G37*
G36*
X113648Y41747D02*
X108511D01*
Y38212D01*
X108490Y38104D01*
X108490Y38104D01*
Y35906D01*
X106669Y34085D01*
X106642D01*
X104622Y36105D01*
Y36716D01*
X106069D01*
Y41460D01*
X100932D01*
Y36716D01*
X102378D01*
Y35641D01*
X102378Y35641D01*
X102464Y35212D01*
X102707Y34848D01*
X105055Y32499D01*
Y32167D01*
X105299Y31579D01*
X105749Y31129D01*
X106337Y30885D01*
X106974D01*
X107562Y31129D01*
X108012Y31579D01*
X108256Y32167D01*
Y32499D01*
X110404Y34648D01*
X110405Y34648D01*
X110648Y35012D01*
X110733Y35441D01*
Y37004D01*
X113648D01*
Y41747D01*
D02*
G37*
G36*
X40884Y33954D02*
X39600D01*
Y32670D01*
X40884D01*
Y33954D01*
D02*
G37*
G36*
X38600D02*
X37316D01*
Y32670D01*
X38600D01*
Y33954D01*
D02*
G37*
G36*
X90047Y32836D02*
X88468D01*
Y30469D01*
X90047D01*
Y32836D01*
D02*
G37*
G36*
X87468D02*
X85888D01*
Y30469D01*
X87468D01*
Y32836D01*
D02*
G37*
G36*
X119147Y32336D02*
X117568D01*
Y29969D01*
X119147D01*
Y32336D01*
D02*
G37*
G36*
X116568D02*
X114988D01*
Y29969D01*
X116568D01*
Y32336D01*
D02*
G37*
G36*
X211688Y32411D02*
X209235D01*
Y29126D01*
X215407D01*
X215344Y29606D01*
X214966Y30519D01*
X214364Y31303D01*
X213580Y31904D01*
X212667Y32282D01*
X211688Y32411D01*
D02*
G37*
G36*
X208235D02*
X205782D01*
X204802Y32282D01*
X203889Y31904D01*
X203105Y31303D01*
X202503Y30519D01*
X202125Y29606D01*
X202062Y29126D01*
X208235D01*
Y32411D01*
D02*
G37*
G36*
X90047Y29469D02*
X88468D01*
Y27102D01*
X90047D01*
Y29469D01*
D02*
G37*
G36*
X87468D02*
X85888D01*
Y27102D01*
X87468D01*
Y29469D01*
D02*
G37*
G36*
X119147Y28969D02*
X117568D01*
Y26602D01*
X119147D01*
Y28969D01*
D02*
G37*
G36*
X116568D02*
X114988D01*
Y26602D01*
X116568D01*
Y28969D01*
D02*
G37*
G36*
X215407Y28126D02*
X209235D01*
Y24841D01*
X211688D01*
X212667Y24970D01*
X213580Y25348D01*
X214364Y25949D01*
X214966Y26733D01*
X215344Y27646D01*
X215407Y28126D01*
D02*
G37*
G36*
X208235D02*
X202062D01*
X202125Y27646D01*
X202503Y26733D01*
X203105Y25949D01*
X203889Y25348D01*
X204802Y24970D01*
X205782Y24841D01*
X208235D01*
Y28126D01*
D02*
G37*
G36*
X9142Y27700D02*
X8458D01*
X7796Y27523D01*
X7204Y27181D01*
X6719Y26697D01*
X6377Y26104D01*
X6200Y25443D01*
Y24758D01*
X6377Y24097D01*
X6719Y23504D01*
X7204Y23020D01*
X7796Y22678D01*
X8458Y22501D01*
X9142D01*
X9804Y22678D01*
X10396Y23020D01*
X10881Y23504D01*
X11223Y24097D01*
X11400Y24758D01*
Y25443D01*
X11223Y26104D01*
X10881Y26697D01*
X10396Y27181D01*
X9804Y27523D01*
X9142Y27700D01*
D02*
G37*
G36*
X72569Y24022D02*
X67431D01*
Y22465D01*
X64969D01*
Y23715D01*
X59832D01*
Y18972D01*
X64969D01*
Y20222D01*
X67431D01*
Y19279D01*
X72569D01*
Y20529D01*
X76408D01*
X76494Y20444D01*
X77082Y20200D01*
X77718D01*
X78306Y20444D01*
X78756Y20894D01*
X79000Y21482D01*
Y22118D01*
X78756Y22706D01*
X78306Y23156D01*
X77718Y23400D01*
X77082D01*
X76494Y23156D01*
X76109Y22772D01*
X72569D01*
Y24022D01*
D02*
G37*
G36*
X283565Y33622D02*
X278035D01*
Y28091D01*
X279678D01*
Y22041D01*
X279544Y21906D01*
X279300Y21318D01*
Y20682D01*
X279544Y20094D01*
X279994Y19644D01*
X280582Y19400D01*
X281218D01*
X281806Y19644D01*
X282256Y20094D01*
X282500Y20682D01*
Y21318D01*
X282256Y21906D01*
X281922Y22241D01*
Y28091D01*
X283565D01*
Y33622D01*
D02*
G37*
G36*
X90047Y16498D02*
X88468D01*
Y14131D01*
X90047D01*
Y16498D01*
D02*
G37*
G36*
X87468D02*
X85888D01*
Y14131D01*
X87468D01*
Y16498D01*
D02*
G37*
G36*
X119147Y15998D02*
X117568D01*
Y13631D01*
X119147D01*
Y15998D01*
D02*
G37*
G36*
X116568D02*
X114988D01*
Y13631D01*
X116568D01*
Y15998D01*
D02*
G37*
G36*
X99001Y41460D02*
X93864D01*
Y36716D01*
X94778D01*
Y32636D01*
X94553D01*
Y27302D01*
X95311D01*
Y16298D01*
X94553D01*
Y10964D01*
X98312D01*
Y16298D01*
X97554D01*
Y27302D01*
X98312D01*
Y32636D01*
X97022D01*
Y36716D01*
X99001D01*
Y41460D01*
D02*
G37*
G36*
X90047Y13131D02*
X88468D01*
Y10764D01*
X90047D01*
Y13131D01*
D02*
G37*
G36*
X87468D02*
X85888D01*
Y10764D01*
X87468D01*
Y13131D01*
D02*
G37*
G36*
X127868Y42222D02*
X122731D01*
Y37479D01*
X124411D01*
Y32136D01*
X123653D01*
Y26802D01*
X124411D01*
Y15798D01*
X123653D01*
Y10464D01*
X127412D01*
Y15798D01*
X126654D01*
Y26802D01*
X127412D01*
Y32136D01*
X126654D01*
Y37479D01*
X127868D01*
Y42222D01*
D02*
G37*
G36*
X119147Y12631D02*
X117568D01*
Y10264D01*
X119147D01*
Y12631D01*
D02*
G37*
G36*
X116568D02*
X114988D01*
Y10264D01*
X116568D01*
Y12631D01*
D02*
G37*
G36*
X9557Y17787D02*
X8043D01*
X6558Y17491D01*
X5159Y16912D01*
X3900Y16071D01*
X2829Y15000D01*
X1988Y13741D01*
X1409Y12342D01*
X1113Y10857D01*
Y9343D01*
X1409Y7858D01*
X1988Y6459D01*
X2829Y5200D01*
X3900Y4129D01*
X5159Y3288D01*
X6558Y2709D01*
X8043Y2413D01*
X9557D01*
X11042Y2709D01*
X12441Y3288D01*
X13700Y4129D01*
X14771Y5200D01*
X15612Y6459D01*
X16191Y7858D01*
X16487Y9343D01*
Y10857D01*
X16191Y12342D01*
X15612Y13741D01*
X14771Y15000D01*
X13700Y16071D01*
X12441Y16912D01*
X11042Y17491D01*
X9557Y17787D01*
D02*
G37*
G36*
X289957Y16987D02*
X288443D01*
X286958Y16691D01*
X285559Y16112D01*
X284300Y15271D01*
X283229Y14200D01*
X282388Y12941D01*
X281809Y11542D01*
X281513Y10057D01*
Y8543D01*
X281809Y7058D01*
X282388Y5659D01*
X283229Y4400D01*
X284300Y3329D01*
X285559Y2488D01*
X286958Y1909D01*
X288443Y1613D01*
X289957D01*
X291442Y1909D01*
X292841Y2488D01*
X294100Y3329D01*
X295171Y4400D01*
X296012Y5659D01*
X296591Y7058D01*
X296887Y8543D01*
Y10057D01*
X296591Y11542D01*
X296012Y12941D01*
X295171Y14200D01*
X294100Y15271D01*
X292841Y16112D01*
X291442Y16691D01*
X289957Y16987D01*
D02*
G37*
%LPD*%
G36*
X38340Y244811D02*
X39050D01*
Y241900D01*
X35961Y241900D01*
Y234750D01*
X39400D01*
Y233694D01*
X38951D01*
Y231713D01*
Y229731D01*
X39400D01*
Y228731D01*
X34912D01*
Y227590D01*
X25292Y227590D01*
Y228610D01*
X27000D01*
Y231379D01*
Y234147D01*
X25292D01*
Y235182D01*
X25290Y235184D01*
X7100D01*
Y197605D01*
X6896Y197400D01*
X6652Y196812D01*
Y196175D01*
X6896Y195587D01*
X7100Y195383D01*
Y186500D01*
X7200Y186400D01*
X14800D01*
Y185698D01*
X12000D01*
Y182929D01*
Y180161D01*
X14800D01*
Y178700D01*
X14100Y178000D01*
X2086D01*
X2002Y178202D01*
Y237904D01*
X29390D01*
X36297Y244811D01*
X37340D01*
Y248269D01*
X38340D01*
Y244811D01*
D02*
G37*
G36*
X24985Y209858D02*
X27754D01*
Y209358D01*
X28254D01*
Y206787D01*
X30522D01*
Y208637D01*
X31389D01*
Y199945D01*
X31000Y199556D01*
X22434D01*
Y202806D01*
X21650D01*
Y206028D01*
X21736Y206113D01*
X24000D01*
Y211333D01*
X24985D01*
Y209858D01*
D02*
G37*
G36*
X41488Y187369D02*
X40073D01*
Y184600D01*
Y181832D01*
X41488D01*
Y178304D01*
X41362Y178000D01*
X36042D01*
X35792Y178433D01*
X35961Y178726D01*
X36168Y179500D01*
X32886D01*
Y180000D01*
D01*
Y179500D01*
X29603D01*
X29811Y178726D01*
X29980Y178433D01*
X29730Y178000D01*
X17525D01*
Y187675D01*
X19143D01*
Y191329D01*
X19643D01*
Y191829D01*
X22707D01*
Y192878D01*
X23000Y193257D01*
X41488D01*
Y187369D01*
D02*
G37*
%LPC*%
G36*
X37951Y233694D02*
X36273D01*
Y232213D01*
X37951D01*
Y233694D01*
D02*
G37*
G36*
X30072Y234147D02*
X28000D01*
Y231879D01*
X30072D01*
Y234147D01*
D02*
G37*
G36*
X37951Y231213D02*
X36273D01*
Y229731D01*
X37951D01*
Y231213D01*
D02*
G37*
G36*
X30072Y230879D02*
X28000D01*
Y228610D01*
X30072D01*
Y230879D01*
D02*
G37*
G36*
X11000Y185698D02*
X7944D01*
Y183429D01*
X11000D01*
Y185698D01*
D02*
G37*
G36*
Y182429D02*
X7944D01*
Y180161D01*
X11000D01*
Y182429D01*
D02*
G37*
G36*
X27254Y208858D02*
X24985D01*
Y206787D01*
X27254D01*
Y208858D01*
D02*
G37*
G36*
X30522Y205378D02*
X28254D01*
Y203306D01*
X30522D01*
Y205378D01*
D02*
G37*
G36*
X27254D02*
X24985D01*
Y203306D01*
X27254D01*
Y205378D01*
D02*
G37*
G36*
X30522Y202306D02*
X28254D01*
Y200235D01*
X30522D01*
Y202306D01*
D02*
G37*
G36*
X27254D02*
X24985D01*
Y200235D01*
X27254D01*
Y202306D01*
D02*
G37*
G36*
X22707Y190829D02*
X20143D01*
Y187675D01*
X22707D01*
Y190829D01*
D02*
G37*
G36*
X39073Y187369D02*
X37002D01*
Y185100D01*
X39073D01*
Y187369D01*
D02*
G37*
G36*
X25292Y185698D02*
X22236D01*
Y183429D01*
X25292D01*
Y185698D01*
D02*
G37*
G36*
X21236D02*
X18180D01*
Y183429D01*
X21236D01*
Y185698D01*
D02*
G37*
G36*
X39073Y184100D02*
X37002D01*
Y181832D01*
X39073D01*
Y184100D01*
D02*
G37*
G36*
X33386Y183282D02*
Y180500D01*
X36168D01*
X35961Y181274D01*
X35526Y182026D01*
X34912Y182641D01*
X34159Y183075D01*
X33386Y183282D01*
D02*
G37*
G36*
X32386D02*
X31612Y183075D01*
X30860Y182641D01*
X30245Y182026D01*
X29811Y181274D01*
X29603Y180500D01*
X32386D01*
Y183282D01*
D02*
G37*
G36*
X25292Y182429D02*
X22236D01*
Y180161D01*
X25292D01*
Y182429D01*
D02*
G37*
G36*
X21236D02*
X18180D01*
Y180161D01*
X21236D01*
Y182429D01*
D02*
G37*
%LPD*%
G36*
X90623Y230461D02*
X90123Y230194D01*
X90112Y230202D01*
X90084Y230207D01*
Y227807D01*
X89084D01*
Y230207D01*
X89057Y230202D01*
X89012Y230172D01*
X88600Y229910D01*
X88188Y230172D01*
X88143Y230202D01*
X88116Y230207D01*
Y227807D01*
X87116D01*
Y230207D01*
X87089Y230202D01*
X87072Y230191D01*
X86632Y230008D01*
X86632Y230008D01*
X86632Y230008D01*
X86104D01*
X86096Y230013D01*
X85647Y230103D01*
X85198Y230013D01*
X85190Y230008D01*
X75877D01*
Y230595D01*
X76628D01*
Y234250D01*
Y237904D01*
X75877D01*
Y238500D01*
X90623D01*
Y230461D01*
D02*
G37*
G36*
X90084Y213788D02*
X90107Y213785D01*
X90569Y213692D01*
Y213692D01*
X90569Y213692D01*
X91447D01*
X96501Y208637D01*
X106100D01*
Y208025D01*
X105868Y207621D01*
X105600Y207621D01*
X103600D01*
Y205050D01*
X103100D01*
Y204550D01*
X100331D01*
Y202517D01*
X100331Y202478D01*
X100237Y202017D01*
X100097D01*
Y192168D01*
X92482D01*
Y201524D01*
X84500D01*
Y213532D01*
X84661Y213692D01*
X86632D01*
X86632Y213692D01*
Y213692D01*
X87093Y213785D01*
X87116Y213788D01*
Y216193D01*
X88116D01*
Y213793D01*
X88143Y213798D01*
X88590Y214097D01*
X88610D01*
X89057Y213798D01*
X89084Y213793D01*
Y216193D01*
X90084D01*
Y213788D01*
D02*
G37*
G36*
X79858Y219067D02*
X80328Y218872D01*
X80398Y218520D01*
X80697Y218073D01*
X81144Y217775D01*
X81671Y217670D01*
X82293D01*
Y219047D01*
X83293D01*
Y217670D01*
X83915D01*
X84039Y217694D01*
X84453Y217333D01*
X84474Y217271D01*
Y216533D01*
X80886Y212946D01*
X80654Y212598D01*
X80573Y212189D01*
Y209872D01*
X79240D01*
Y209872D01*
X78807Y210034D01*
Y218058D01*
X79818Y219069D01*
X79858Y219067D01*
D02*
G37*
G36*
X215116Y184216D02*
X215000Y184100D01*
X197569D01*
Y195750D01*
X215116D01*
Y184216D01*
D02*
G37*
G36*
X208600Y160100D02*
X208434Y159700D01*
X203400D01*
Y156553D01*
X203114Y156172D01*
X202900Y156172D01*
X201141D01*
Y153600D01*
Y151028D01*
X202900D01*
X203114Y151028D01*
X203400Y150647D01*
Y145903D01*
X202327D01*
Y146900D01*
X200641D01*
X198955D01*
Y145903D01*
X196044D01*
Y147950D01*
X196244D01*
Y149000D01*
X193544D01*
Y150000D01*
X196244D01*
Y150450D01*
Y151500D01*
X193544D01*
Y152000D01*
X193044D01*
Y153550D01*
X191394D01*
Y155200D01*
X189844D01*
Y155700D01*
X189344D01*
Y158400D01*
X188836D01*
Y158983D01*
X193488D01*
Y182800D01*
X199124D01*
Y181450D01*
X201892D01*
X204661D01*
Y182800D01*
X208600D01*
Y160100D01*
D02*
G37*
G36*
X190344Y162700D02*
X186044Y158400D01*
X185244D01*
Y155700D01*
X184244D01*
Y158400D01*
X182744D01*
Y155700D01*
X182244D01*
Y155200D01*
X180694D01*
Y154201D01*
X180194Y153994D01*
X174500Y159688D01*
Y197299D01*
X190344D01*
Y162700D01*
D02*
G37*
G36*
X165942Y186407D02*
X166200Y186415D01*
X169609Y183006D01*
Y159474D01*
X168535Y158400D01*
X166615D01*
Y141624D01*
X166465D01*
Y139800D01*
Y137976D01*
X166615D01*
Y131027D01*
X181382D01*
Y131414D01*
X181675D01*
Y133100D01*
X182175D01*
Y133600D01*
X183861D01*
Y134786D01*
X183861Y134786D01*
X183908Y135266D01*
X186300Y137658D01*
Y138000D01*
X186844D01*
Y140700D01*
X187844D01*
Y138000D01*
X188833D01*
X188836Y137687D01*
X190683D01*
Y127800D01*
X162200D01*
X160799Y129201D01*
Y158400D01*
X160799D01*
Y164085D01*
X153553Y171331D01*
X134984D01*
Y191623D01*
X131607Y195000D01*
X101931D01*
Y196179D01*
X102600D01*
Y198750D01*
Y201322D01*
X102364D01*
X102336Y201335D01*
X102189Y201517D01*
X102427Y202017D01*
X165942D01*
Y186407D01*
D02*
G37*
G36*
X232639Y119706D02*
X229996D01*
Y120053D01*
X228212D01*
Y120553D01*
X227712D01*
Y121904D01*
X227000D01*
Y125583D01*
X227428D01*
Y127800D01*
Y130017D01*
X227000D01*
Y131027D01*
X221805D01*
Y121904D01*
X221232D01*
Y120553D01*
X220232D01*
Y121904D01*
X219115D01*
Y144250D01*
X232639D01*
Y119706D01*
D02*
G37*
G36*
X228712Y113296D02*
X229080D01*
Y111455D01*
X227286D01*
Y106712D01*
X229041D01*
X231478Y104778D01*
X233800Y102455D01*
X234200Y102855D01*
X255500D01*
Y87000D01*
X255400Y86900D01*
X220900D01*
Y97600D01*
X219100Y99400D01*
X219000Y99300D01*
X213737D01*
X213599Y99553D01*
X213886Y100053D01*
X215834D01*
Y103028D01*
X216334D01*
Y103528D01*
X219115D01*
Y105600D01*
X221505D01*
X221805Y106512D01*
X223252D01*
Y109083D01*
X223752D01*
Y109583D01*
X225930D01*
Y111655D01*
X224139D01*
X223984Y112155D01*
X225985Y113529D01*
X226428Y113296D01*
X227712D01*
Y114647D01*
X228712D01*
Y113296D01*
D02*
G37*
G36*
X243100Y78800D02*
X242700Y78400D01*
X221500D01*
Y85189D01*
X221505Y85200D01*
X224731D01*
Y84350D01*
X230269D01*
Y85200D01*
X243100D01*
Y78800D01*
D02*
G37*
%LPC*%
G36*
X80192Y237904D02*
X77628D01*
Y234750D01*
X80192D01*
Y237904D01*
D02*
G37*
G36*
Y233750D02*
X77628D01*
Y230595D01*
X80192D01*
Y233750D01*
D02*
G37*
G36*
X91762Y208839D02*
X89100D01*
Y206177D01*
X91762D01*
Y208839D01*
D02*
G37*
G36*
X88100D02*
X85438D01*
Y206177D01*
X88100D01*
Y208839D01*
D02*
G37*
G36*
X102600Y207621D02*
X100331D01*
Y205550D01*
X102600D01*
Y207621D01*
D02*
G37*
G36*
X91762Y205177D02*
X89100D01*
Y202515D01*
X91762D01*
Y205177D01*
D02*
G37*
G36*
X88100D02*
X85438D01*
Y202515D01*
X88100D01*
Y205177D01*
D02*
G37*
G36*
X99452Y199880D02*
X96790D01*
Y197218D01*
X99452D01*
Y199880D01*
D02*
G37*
G36*
X95790D02*
X93128D01*
Y197218D01*
X95790D01*
Y199880D01*
D02*
G37*
G36*
X99452Y196218D02*
X96790D01*
Y193556D01*
X99452D01*
Y196218D01*
D02*
G37*
G36*
X95790D02*
X93128D01*
Y193556D01*
X95790D01*
Y196218D01*
D02*
G37*
G36*
X204661Y189821D02*
X202392D01*
Y187750D01*
X204661D01*
Y189821D01*
D02*
G37*
G36*
X201392D02*
X199124D01*
Y187750D01*
X201392D01*
Y189821D01*
D02*
G37*
G36*
X204661Y186750D02*
X202392D01*
Y184678D01*
X204661D01*
Y186750D01*
D02*
G37*
G36*
X201392D02*
X199124D01*
Y184678D01*
X201392D01*
Y186750D01*
D02*
G37*
G36*
X204661Y180450D02*
X202392D01*
Y178379D01*
X204661D01*
Y180450D01*
D02*
G37*
G36*
X201392D02*
X199124D01*
Y178379D01*
X201392D01*
Y180450D01*
D02*
G37*
G36*
X207417Y173709D02*
X202392D01*
Y167700D01*
X207417D01*
Y173709D01*
D02*
G37*
G36*
X201392D02*
X196368D01*
Y167700D01*
X201392D01*
Y173709D01*
D02*
G37*
G36*
X207417Y166700D02*
X202392D01*
Y160691D01*
X207417D01*
Y166700D01*
D02*
G37*
G36*
X201392D02*
X196368D01*
Y160691D01*
X201392D01*
Y166700D01*
D02*
G37*
G36*
X191394Y158400D02*
X190344D01*
Y156200D01*
X191394D01*
Y158400D01*
D02*
G37*
G36*
X200141Y156172D02*
X198168D01*
Y154100D01*
X200141D01*
Y156172D01*
D02*
G37*
G36*
X196244Y153550D02*
X194044D01*
Y152500D01*
X196244D01*
Y153550D01*
D02*
G37*
G36*
X200141Y153100D02*
X198168D01*
Y151028D01*
X200141D01*
Y153100D01*
D02*
G37*
G36*
X202327Y149086D02*
X201141D01*
Y147900D01*
X202327D01*
Y149086D01*
D02*
G37*
G36*
X200141D02*
X198955D01*
Y147900D01*
X200141D01*
Y149086D01*
D02*
G37*
G36*
X189500Y195750D02*
X183000D01*
Y184600D01*
X189500D01*
Y195750D01*
D02*
G37*
G36*
X182000D02*
X175500D01*
Y184600D01*
X182000D01*
Y195750D01*
D02*
G37*
G36*
X189500Y183600D02*
X183000D01*
Y172450D01*
X189500D01*
Y183600D01*
D02*
G37*
G36*
X182000D02*
X175500D01*
Y172450D01*
X182000D01*
Y183600D01*
D02*
G37*
G36*
X181744Y158400D02*
X180694D01*
Y156200D01*
X181744D01*
Y158400D01*
D02*
G37*
G36*
X105868Y201322D02*
X103600D01*
Y199250D01*
X105868D01*
Y201322D01*
D02*
G37*
G36*
Y198250D02*
X103600D01*
Y196179D01*
X105868D01*
Y198250D01*
D02*
G37*
G36*
X151500Y195750D02*
X145000D01*
Y184600D01*
X151500D01*
Y195750D01*
D02*
G37*
G36*
X144000D02*
X137500D01*
Y184600D01*
X144000D01*
Y195750D01*
D02*
G37*
G36*
X151500Y183600D02*
X145000D01*
Y172450D01*
X151500D01*
Y183600D01*
D02*
G37*
G36*
X144000D02*
X137500D01*
Y172450D01*
X144000D01*
Y183600D01*
D02*
G37*
G36*
X166010Y154708D02*
X164431D01*
Y152341D01*
X166010D01*
Y154708D01*
D02*
G37*
G36*
X163431D02*
X161851D01*
Y152341D01*
X163431D01*
Y154708D01*
D02*
G37*
G36*
X166010Y151341D02*
X164431D01*
Y148974D01*
X166010D01*
Y151341D01*
D02*
G37*
G36*
X163431D02*
X161851D01*
Y148974D01*
X163431D01*
Y151341D01*
D02*
G37*
G36*
X165465Y141624D02*
X164062D01*
Y140300D01*
X165465D01*
Y141624D01*
D02*
G37*
G36*
Y139300D02*
X164062D01*
Y137976D01*
X165465D01*
Y139300D01*
D02*
G37*
G36*
X183861Y132600D02*
X182675D01*
Y131414D01*
X183861D01*
Y132600D01*
D02*
G37*
G36*
X229988Y130017D02*
X228428D01*
Y128300D01*
X229988D01*
Y130017D01*
D02*
G37*
G36*
Y127300D02*
X228428D01*
Y125583D01*
X229988D01*
Y127300D01*
D02*
G37*
G36*
X229996Y121904D02*
X228712D01*
Y121053D01*
X229996D01*
Y121904D01*
D02*
G37*
G36*
X225930Y108583D02*
X224252D01*
Y106512D01*
X225930D01*
Y108583D01*
D02*
G37*
G36*
X219115Y102528D02*
X216834D01*
Y100053D01*
X219115D01*
Y102528D01*
D02*
G37*
G36*
X254445Y100476D02*
X249814D01*
Y94861D01*
X254445D01*
Y100476D01*
D02*
G37*
G36*
X248814D02*
X244183D01*
Y94861D01*
X248814D01*
Y100476D01*
D02*
G37*
G36*
X230269Y92721D02*
X228000D01*
Y90650D01*
X230269D01*
Y92721D01*
D02*
G37*
G36*
X227000D02*
X224731D01*
Y90650D01*
X227000D01*
Y92721D01*
D02*
G37*
G36*
X254445Y93861D02*
X249814D01*
Y88246D01*
X254445D01*
Y93861D01*
D02*
G37*
G36*
X248814D02*
X244183D01*
Y88246D01*
X248814D01*
Y93861D01*
D02*
G37*
G36*
X230269Y89650D02*
X228000D01*
Y87578D01*
X230269D01*
Y89650D01*
D02*
G37*
G36*
X227000D02*
X224731D01*
Y87578D01*
X227000D01*
Y89650D01*
D02*
G37*
G36*
X230269Y83350D02*
X228000D01*
Y81279D01*
X230269D01*
Y83350D01*
D02*
G37*
G36*
X227000D02*
X224731D01*
Y81279D01*
X227000D01*
Y83350D01*
D02*
G37*
%LPD*%
G36*
X280900Y92150D02*
Y80500D01*
X279368D01*
Y81650D01*
X276600D01*
X273832D01*
Y80500D01*
X272223D01*
Y92250D01*
X280800D01*
X280900Y92150D01*
D02*
G37*
%LPC*%
G36*
X279368Y84721D02*
X277100D01*
Y82650D01*
X279368D01*
Y84721D01*
D02*
G37*
G36*
X276100D02*
X273832D01*
Y82650D01*
X276100D01*
Y84721D01*
D02*
G37*
%LPD*%
G36*
X280850Y63428D02*
X280022Y62600D01*
X274600D01*
X266900Y54900D01*
X242900D01*
Y62600D01*
X265775D01*
X272300Y77500D01*
X273832D01*
Y76350D01*
X276600D01*
Y75850D01*
D01*
Y76350D01*
X279368D01*
Y77500D01*
X280850D01*
Y63428D01*
D02*
G37*
G36*
X288400Y59437D02*
X287900Y59268D01*
X287396Y59656D01*
X286674Y59954D01*
X286400Y59991D01*
Y54900D01*
X285400D01*
Y59991D01*
X285126Y59954D01*
X284404Y59656D01*
X283785Y59180D01*
X283589Y58925D01*
X282959D01*
X282900Y59001D01*
Y60024D01*
X277311D01*
Y43820D01*
X269984Y35000D01*
X243100D01*
Y43000D01*
X268926D01*
X273200Y47274D01*
Y58434D01*
X276717Y61951D01*
X280022D01*
X280141Y62000D01*
X283200D01*
Y64335D01*
X283643D01*
Y67300D01*
Y70265D01*
X283200D01*
Y71200D01*
X288400D01*
Y59437D01*
D02*
G37*
%LPC*%
G36*
X279368Y75350D02*
X277100D01*
Y73279D01*
X279368D01*
Y75350D01*
D02*
G37*
G36*
X276100D02*
X273832D01*
Y73279D01*
X276100D01*
Y75350D01*
D02*
G37*
G36*
X280022Y70265D02*
X277557D01*
Y67800D01*
X280022D01*
Y70265D01*
D02*
G37*
G36*
X276557D02*
X274091D01*
Y67800D01*
X276557D01*
Y70265D01*
D02*
G37*
G36*
X280022Y66800D02*
X277557D01*
Y64335D01*
X280022D01*
Y66800D01*
D02*
G37*
G36*
X276557D02*
X274091D01*
Y64335D01*
X276557D01*
Y66800D01*
D02*
G37*
G36*
X248200Y62045D02*
Y59242D01*
X251003D01*
X250793Y60024D01*
X250356Y60781D01*
X249738Y61399D01*
X248981Y61836D01*
X248200Y62045D01*
D02*
G37*
G36*
X247200D02*
X246419Y61836D01*
X245662Y61399D01*
X245044Y60781D01*
X244607Y60024D01*
X244397Y59242D01*
X247200D01*
Y62045D01*
D02*
G37*
G36*
X251003Y58242D02*
X248200D01*
Y55440D01*
X248981Y55649D01*
X249738Y56086D01*
X250356Y56704D01*
X250793Y57461D01*
X251003Y58242D01*
D02*
G37*
G36*
X247200D02*
X244397D01*
X244607Y57461D01*
X245044Y56704D01*
X245662Y56086D01*
X246419Y55649D01*
X247200Y55440D01*
Y58242D01*
D02*
G37*
G36*
X287109Y70265D02*
X284643D01*
Y67800D01*
X287109D01*
Y70265D01*
D02*
G37*
G36*
Y66800D02*
X284643D01*
Y64335D01*
X287109D01*
Y66800D01*
D02*
G37*
G36*
X248200Y42360D02*
Y39557D01*
X251003D01*
X250793Y40339D01*
X250356Y41096D01*
X249738Y41714D01*
X248981Y42151D01*
X248200Y42360D01*
D02*
G37*
G36*
X247200D02*
X246419Y42151D01*
X245662Y41714D01*
X245044Y41096D01*
X244607Y40339D01*
X244397Y39557D01*
X247200D01*
Y42360D01*
D02*
G37*
G36*
X251003Y38557D02*
X248200D01*
Y35755D01*
X248981Y35964D01*
X249738Y36401D01*
X250356Y37019D01*
X250793Y37776D01*
X251003Y38557D01*
D02*
G37*
G36*
X247200D02*
X244397D01*
X244607Y37776D01*
X245044Y37019D01*
X245662Y36401D01*
X246419Y35964D01*
X247200Y35755D01*
Y38557D01*
D02*
G37*
%LPD*%
D11*
X22868Y196460D02*
X27706D01*
X27754Y196507D01*
X27767Y196494D01*
X12557Y199951D02*
X12850Y199657D01*
X8252Y196494D02*
X12850D01*
Y199657D01*
X27767Y196494D02*
X32886D01*
X181382Y116616D02*
X182344Y115654D01*
X31065Y150741D02*
Y154603D01*
X29800Y149476D02*
X31065Y150741D01*
X28972Y149476D02*
X29800D01*
X28557Y149891D02*
X28972Y149476D01*
X26991Y149891D02*
X28557D01*
X26800Y150082D02*
X26991Y149891D01*
X31000Y159100D02*
X34700Y162800D01*
X31000Y154668D02*
Y159100D01*
X85647Y224953D02*
X85647Y224953D01*
X85966Y224634D02*
X86632Y223969D01*
X262310Y234505D02*
X269200D01*
X184744Y146900D02*
X187344Y149500D01*
X149017Y258617D02*
X149100Y258700D01*
X142640D02*
X149100D01*
X48076Y248269D02*
X55163D01*
X42723Y213692D02*
X44640Y211775D01*
X41895Y213692D02*
X42723D01*
X44640Y204667D02*
Y211775D01*
X39835Y206113D02*
X42485Y208763D01*
X11500Y222143D02*
X21536D01*
X31444Y92196D02*
X31447Y92328D01*
X31257Y83600D02*
X31444Y92196D01*
X87968Y6162D02*
Y13631D01*
X87925Y6120D02*
X87968Y6162D01*
X51992Y39031D02*
X53970D01*
X204194Y82753D02*
Y86375D01*
X209714D02*
X210300Y85789D01*
X204194Y86375D02*
X209714D01*
X210300Y81750D02*
Y85789D01*
X243100Y167200D02*
Y172550D01*
X245662Y158452D02*
X251595D01*
X234350Y179450D02*
X243100D01*
X234200Y179600D02*
X234350Y179450D01*
X208735Y44374D02*
X210300Y45939D01*
Y75450D01*
X181382Y71451D02*
Y78214D01*
X181968Y78800D01*
X181274Y71342D02*
X181382Y71451D01*
X181968Y78800D02*
X193941D01*
X200240D02*
X204194Y82753D01*
Y86375D02*
Y90601D01*
X196961Y85361D02*
Y87700D01*
X197895Y88633D01*
X196800Y85200D02*
X196961Y85361D01*
X197895Y88633D02*
Y90601D01*
X205859Y153700D02*
X212000D01*
X205759Y153600D02*
X205859Y153700D01*
X21536Y222143D02*
X21650Y222029D01*
X21236Y249548D02*
X30754D01*
X120829Y102018D02*
Y107000D01*
X120829Y102018D02*
X120829Y102018D01*
X106656Y101847D02*
X106656Y101847D01*
Y107000D01*
X243100Y190700D02*
X243250Y190550D01*
X250350Y181901D02*
X250500Y181750D01*
X250337Y181914D02*
X250350Y181901D01*
X45873Y184600D02*
Y189423D01*
X74963Y193257D02*
X79769Y188450D01*
X96290D01*
X81809Y201201D02*
X85600Y197409D01*
X88600D01*
X45873Y189423D02*
X46934Y190484D01*
Y197100D01*
X19150Y199657D02*
Y203767D01*
X20050Y204667D01*
X268050Y182074D02*
X269200D01*
X47415Y34454D02*
X47415Y34454D01*
Y32485D02*
Y34454D01*
X47594Y34633D02*
X49002D01*
X47415Y34454D02*
X47594Y34633D01*
X49002D02*
X50023Y35654D01*
X229996Y118584D02*
X245483D01*
X249314Y114753D01*
Y114439D02*
Y114753D01*
X55841Y132338D02*
X55841Y132338D01*
X55650Y132528D02*
X55841Y132338D01*
X55840Y132338D02*
X55841Y132338D01*
X47108Y123747D02*
X47108D01*
X55840Y123747D02*
X55841Y123747D01*
X106600Y131527D02*
X108674Y133600D01*
X91923Y116578D02*
X95360Y120015D01*
X101897Y154569D02*
X101931Y154603D01*
X101897Y149387D02*
Y154569D01*
X101863Y149354D02*
X101897Y149387D01*
X92541Y154662D02*
Y166641D01*
X92482Y154603D02*
X92541Y154662D01*
Y166641D02*
X92600Y166700D01*
X82984Y148141D02*
Y148845D01*
X87758Y153619D02*
Y154603D01*
X82984Y148845D02*
X87758Y153619D01*
X82793Y147950D02*
X82984Y148141D01*
X230714Y116616D02*
X231300Y116030D01*
X229264Y109083D02*
X231300Y111120D01*
Y116030D01*
X182175Y155769D02*
X182245Y155840D01*
X184494Y155950D02*
X184744Y155700D01*
X182244D02*
X182494Y155950D01*
X103500Y35641D02*
X106656Y32485D01*
X158086Y110654D02*
X174170D01*
X155500Y101000D02*
X173402Y83098D01*
X160000Y123200D02*
X193629D01*
X145524Y159900D02*
X155500Y149924D01*
X157500Y111240D02*
X158086Y110654D01*
X155500Y101000D02*
Y149924D01*
X157500Y111240D02*
Y150187D01*
X160799Y126301D02*
X193800D01*
X144487Y163200D02*
X157500Y150187D01*
X30754Y258800D02*
X39612D01*
X26816D02*
X30754D01*
Y249548D02*
Y258800D01*
X106600Y120015D02*
X106656Y119960D01*
X180494Y151950D02*
X182294D01*
X184744Y140700D02*
Y146900D01*
X189794Y144450D02*
X191594D01*
X191644Y144400D01*
X193544D01*
X187344Y149500D02*
Y155700D01*
X178544Y146900D02*
X184744D01*
X178544Y149500D02*
X184744D01*
X180444Y152000D02*
X180494Y151950D01*
X178544Y152000D02*
X180444D01*
X12557Y204667D02*
Y209140D01*
X12850Y191623D02*
Y196494D01*
X26816Y258209D02*
Y258800D01*
X193629Y123200D02*
X199124Y117706D01*
Y117600D02*
Y117706D01*
X195898Y114756D02*
Y116488D01*
X200000Y110654D02*
X215741Y94913D01*
X191783Y120603D02*
X195898Y116488D01*
X174756Y111240D02*
Y117600D01*
X177759Y120603D01*
X195898Y114756D02*
X200000Y110654D01*
X200000D01*
X177759Y120603D02*
X191783D01*
X215741Y40553D02*
Y94913D01*
X137800Y126301D02*
X147719D01*
X151700Y122320D01*
X145067Y132934D02*
X151700Y126301D01*
X137800Y132934D02*
X145067D01*
X174170Y110654D02*
X174756Y111240D01*
X59306Y101742D02*
X59411Y101847D01*
X59200Y95654D02*
X59306Y95760D01*
Y101742D01*
X155500Y92611D02*
Y95759D01*
Y91226D02*
Y92611D01*
X132963Y163200D02*
X144487D01*
X129850Y155179D02*
Y170500D01*
X128364Y152709D02*
Y153694D01*
X129850Y155179D01*
X132800Y159900D02*
X145524D01*
X173400Y71342D02*
X173402Y83098D01*
X137700Y113559D02*
X155500Y95759D01*
X137700Y113559D02*
Y119175D01*
X125300Y61026D02*
X155500Y91226D01*
X125300Y46150D02*
Y61026D01*
X123163Y91226D02*
X125124Y93187D01*
Y103209D01*
X123163Y90601D02*
Y91226D01*
X251043Y218757D02*
X269200D01*
X250400Y210600D02*
X262027D01*
X250900Y218900D02*
X251043Y218757D01*
X116050Y90602D02*
X116050Y90601D01*
X123163D01*
X205870Y226730D02*
X206000Y226600D01*
X200300Y226787D02*
Y233287D01*
X200443Y226730D02*
X205870D01*
X198498Y235089D02*
X200300Y233287D01*
X169035Y139800D02*
X169244Y139591D01*
Y133600D02*
Y139591D01*
X176254Y135098D02*
X179025D01*
X179911D01*
X179025Y133100D02*
Y135098D01*
X174756Y133600D02*
X176254Y135098D01*
X104900Y188450D02*
X120179D01*
X120729Y187900D01*
X73622Y95654D02*
Y101847D01*
X73585D02*
X73622D01*
X73585Y101847D02*
X73585Y101847D01*
X77128Y234250D02*
X77526Y234647D01*
X184862Y232419D02*
X197751Y219530D01*
X162500Y245500D02*
X175581Y232419D01*
X184862D01*
X197751Y219530D02*
X200300D01*
X162500Y256367D02*
X163077Y256944D01*
X162500Y245500D02*
Y256367D01*
X163077Y256944D02*
Y259109D01*
X139650Y239000D02*
X156000D01*
X162500Y245500D01*
X97207Y154603D02*
Y164000D01*
X27754Y209358D02*
X28052Y209657D01*
X52350Y204342D02*
X54675Y202017D01*
Y180500D02*
Y202017D01*
Y180500D02*
X59150D01*
X71100Y168550D01*
Y162700D02*
Y168550D01*
X57467Y178000D02*
X64136Y171331D01*
Y162800D02*
Y171331D01*
X12557Y215440D02*
X20050D01*
X27536D01*
X20050Y204667D02*
Y209140D01*
X12557Y191329D02*
X12850Y191623D01*
X19643Y190739D02*
Y191329D01*
Y190739D02*
X21407Y188975D01*
X27536Y215440D02*
X31547Y211428D01*
X27500Y231379D02*
X27834Y231713D01*
X37170Y198596D02*
X38666Y197100D01*
X55163Y240287D02*
Y248269D01*
X42485Y208763D02*
Y208771D01*
X215000Y112054D02*
Y116500D01*
X216334Y108545D02*
Y110720D01*
X113298Y224953D02*
X113400Y224850D01*
X103100Y224953D02*
X113298D01*
X87968Y13631D02*
Y29969D01*
Y36446D02*
X89000Y37479D01*
X87968Y29969D02*
Y36446D01*
X89000Y37479D02*
Y39250D01*
X37900Y55922D02*
Y64000D01*
X83034Y94600D02*
Y101847D01*
X224000Y228000D02*
X229300D01*
X229900Y228600D01*
X78309Y105155D02*
X80000Y106846D01*
X78309Y101847D02*
Y105155D01*
X80000Y106846D02*
Y107000D01*
X224199Y241801D02*
X229800D01*
X224000Y242000D02*
X224199Y241801D01*
X127486Y151831D02*
X128364Y152709D01*
X126502Y151831D02*
X127486D01*
X120829Y150082D02*
Y154603D01*
X73585Y150082D02*
Y154603D01*
X47108Y123747D02*
Y130716D01*
X55840Y123747D02*
Y132338D01*
X205959Y234800D02*
X229900D01*
X200259Y240500D02*
X205959Y234800D01*
X120729Y171885D02*
X122113Y170500D01*
X120729Y171885D02*
Y181601D01*
X104900Y170500D02*
Y182150D01*
X113178Y160545D02*
Y170500D01*
X116104Y94600D02*
Y101847D01*
X224472Y119175D02*
Y127800D01*
X211688Y36500D02*
X215741Y40553D01*
X210300Y36500D02*
X211688D01*
X151600Y133700D02*
X151700Y133600D01*
X151600Y133700D02*
Y142100D01*
Y148528D01*
X145243Y142157D02*
X145301Y142100D01*
X137286Y142157D02*
X145243D01*
X137061Y142383D02*
X137286Y142157D01*
X126502Y142383D02*
X137061D01*
X141829Y152000D02*
X145301Y148528D01*
X137286Y152000D02*
X141829D01*
X126502Y147107D02*
X128748Y149354D01*
X130899D01*
X133546Y152000D01*
X137286D01*
X145301Y142100D02*
X145914Y141487D01*
X117068Y6032D02*
X117100Y6000D01*
X117068Y6032D02*
Y13131D01*
X196700Y85100D02*
X196800Y85200D01*
X68700Y85260D02*
X68860Y85100D01*
X68700Y85260D02*
Y92200D01*
X68450D02*
X68860Y92611D01*
Y101847D01*
X58800Y90108D02*
X62758Y94067D01*
Y100469D01*
X64136Y101847D01*
X37900Y55922D02*
X59250D01*
X62400Y59072D01*
X192731Y244613D02*
X207313D01*
X207400Y244700D01*
X200159Y248213D02*
X200272Y248099D01*
X229800D01*
X171738Y256944D02*
Y259109D01*
Y256944D02*
X193593Y235089D01*
X198498D01*
X31057Y83400D02*
X31257Y83600D01*
Y101655D02*
X31447Y92328D01*
X31065Y101847D02*
X31257Y101655D01*
X42200Y83400D02*
X45500Y80100D01*
X38143Y83400D02*
X42200D01*
X38100Y74300D02*
X38143Y74343D01*
Y83400D01*
X38343Y83600D01*
Y92200D01*
X74464Y218233D02*
X78879Y222649D01*
X74464Y217821D02*
Y218233D01*
X78879Y222649D02*
Y222821D01*
X72200Y215557D02*
X74464Y217821D01*
X176069Y256944D02*
X192513Y240500D01*
X200259D01*
X176069Y256944D02*
Y259109D01*
X180400Y256944D02*
X192731Y244613D01*
X180400Y256944D02*
Y259109D01*
X184730Y256944D02*
X193461Y248213D01*
X200159D01*
X184730Y256944D02*
Y259109D01*
X169609Y262374D02*
X196387D01*
X198535Y260226D01*
X168508Y261274D02*
X169609Y262374D01*
X122100Y251700D02*
X122113Y251713D01*
X129850D01*
X133350Y239000D02*
Y248213D01*
X129850Y251713D02*
X133350Y248213D01*
X142040Y258100D02*
X142640Y258700D01*
X138400Y258100D02*
X142040D01*
X149017Y258617D02*
X149061D01*
X138313Y258013D02*
X138400Y258100D01*
X129850Y258013D02*
X138313D01*
X193628Y256491D02*
Y257731D01*
Y256491D02*
X197569Y252550D01*
X207632D01*
X198535Y257665D02*
Y260226D01*
Y257665D02*
X199300Y256900D01*
X255400Y173800D02*
X255500Y173900D01*
X268800D02*
X269100Y174200D01*
X269200D01*
X208735Y28626D02*
X208772Y28663D01*
X219963D01*
X220000Y28700D01*
X88800Y45350D02*
Y52773D01*
X113178Y73100D02*
Y86968D01*
X68700Y135000D02*
Y135040D01*
X70224Y136564D01*
X113936D01*
X117566Y132934D01*
X111080Y45675D02*
X111105Y45650D01*
X117700D01*
X109611Y38104D02*
X110883Y39376D01*
X106656Y32485D02*
X109611Y35441D01*
X103500Y35641D02*
Y39088D01*
X110883Y39376D02*
X111080D01*
X109611Y35441D02*
Y38104D01*
X96432Y45387D02*
X103500D01*
X96270Y45550D02*
X96432Y45387D01*
X89000Y45550D02*
X96270D01*
X88800Y45350D02*
X89000Y45550D01*
X106600Y154658D02*
Y160460D01*
Y154658D02*
X106656Y154603D01*
X109750Y156233D02*
Y164000D01*
Y156233D02*
X111380Y154603D01*
X165526Y68636D02*
X205536Y28626D01*
X208735D01*
X165526Y68636D02*
Y71342D01*
X113178Y160545D02*
X114726Y158996D01*
Y155981D02*
Y158996D01*
Y155981D02*
X116104Y154603D01*
X97207Y76100D02*
Y101847D01*
X68860Y160460D02*
X71100Y162700D01*
X68860Y154603D02*
Y160460D01*
X64136Y154603D02*
Y162800D01*
X102706Y219047D02*
X103100Y218653D01*
X139750Y222850D02*
Y229500D01*
Y222850D02*
X140000Y222600D01*
X133350Y229600D02*
X133450Y229500D01*
X133350Y229600D02*
Y239000D01*
X139750Y229500D02*
X142976D01*
X148372Y234896D01*
X142900Y262600D02*
X166082D01*
X167408Y261274D01*
Y259109D02*
Y261274D01*
X46900Y87000D02*
X46932Y86968D01*
X52500D01*
X58800D02*
Y90108D01*
X118200Y46150D02*
X125300D01*
X117700Y45650D02*
X118200Y46150D01*
X125532Y13131D02*
Y29469D01*
Y39618D01*
X125300Y39850D02*
X125532Y39618D01*
X57632Y15630D02*
Y30142D01*
X58218Y15044D02*
X64368D01*
X57632Y15630D02*
X58218Y15044D01*
X77250Y21650D02*
X77400Y21800D01*
X70000Y21650D02*
X77250D01*
X69693Y21344D02*
X70000Y21650D01*
X62400Y21344D02*
X69693D01*
X111380Y88766D02*
Y101847D01*
Y88766D02*
X113178Y86968D01*
X246400Y149700D02*
X257695D01*
X257894Y149500D01*
X109732Y85082D02*
X109750Y85100D01*
X101931Y85082D02*
X109732D01*
X101931Y93350D02*
Y101847D01*
X137286Y118761D02*
X137700Y119175D01*
X126502Y118761D02*
X137286D01*
X134984Y123485D02*
X137800Y126301D01*
X126502Y123485D02*
X134984D01*
X133076Y128209D02*
X137800Y132934D01*
X126502Y128209D02*
X133076D01*
X190100Y140700D02*
X197091D01*
X200641Y144250D01*
X126788Y137944D02*
X137800D01*
X126502Y137658D02*
X126788Y137944D01*
X200641Y153600D02*
X201892Y154851D01*
X243100Y179450D02*
X256224Y166326D01*
X269200D01*
X290600Y38600D02*
X290750Y38750D01*
Y54750D02*
X290900Y54900D01*
X290750Y38750D02*
Y54750D01*
X55289Y32485D02*
X57632Y30142D01*
X54500Y32485D02*
X55289D01*
X64724Y15400D02*
X81800D01*
X64368Y15044D02*
X64724Y15400D01*
X72322Y45822D02*
X72500Y46000D01*
X62300Y45822D02*
X72322D01*
X117566Y132934D02*
X126502D01*
X126616Y109198D02*
X137586D01*
X126502Y109312D02*
X126616Y109198D01*
X54600Y34454D02*
X69434D01*
X79188Y34488D02*
X79200Y34500D01*
X69434Y34488D02*
X79188D01*
X55650Y48450D02*
X55700Y48400D01*
X50023Y48500D02*
X50073Y48450D01*
X55650D01*
X250400Y234900D02*
X261915D01*
X262310Y234505D01*
X280800Y21100D02*
X280900Y21000D01*
X280800Y21100D02*
Y30857D01*
X116050Y85100D02*
Y90602D01*
X125124Y103209D02*
X126502Y104587D01*
X262027Y210600D02*
X262310Y210883D01*
X269200D01*
X137586Y109198D02*
X137700Y109083D01*
X250331Y226631D02*
X269200D01*
X250300Y226600D02*
X250331Y226631D01*
X78879Y222821D02*
X79043Y222984D01*
X117068Y38718D02*
X117700Y39350D01*
X117068Y29469D02*
Y38718D01*
Y13131D02*
Y29469D01*
X257894Y158452D02*
X269200D01*
X257894Y149500D02*
Y158452D01*
X46086Y37062D02*
X46726Y36422D01*
X46086Y37062D02*
Y48500D01*
X50023Y39031D02*
Y48500D01*
X38101Y48500D02*
X46086D01*
X37900Y48701D02*
X38101Y48500D01*
X37699D02*
X37900Y48701D01*
X50023Y35654D02*
Y39031D01*
X51992D01*
X69434Y34454D02*
Y34488D01*
X32300Y31103D02*
X32886Y30517D01*
X32300Y31103D02*
Y38788D01*
X28100Y42988D02*
X32300Y38788D01*
X54600Y36422D02*
X55289D01*
X61592Y42725D01*
X28100Y48500D02*
X37699D01*
X43314Y29877D02*
X48055D01*
X42674Y30517D02*
X43314Y29877D01*
X32886Y30517D02*
X39100D01*
X42674D01*
X39100Y34454D02*
X47415D01*
X46726Y36422D02*
X47415D01*
X61592Y42725D02*
Y43414D01*
X62300Y44122D01*
Y45822D01*
X62400Y45922D01*
Y52773D01*
X69434Y27643D02*
Y34154D01*
X28100Y42988D02*
X29189D01*
X276600Y67757D02*
X277057Y67300D01*
X280900Y38043D02*
Y54900D01*
X280800Y37943D02*
X280900Y38043D01*
X179911Y135098D02*
X182500Y137687D01*
Y140700D01*
X31000Y154668D02*
X31065Y154603D01*
X39612Y258800D02*
X46305D01*
X59100D01*
X40516Y212314D02*
X41895Y213692D01*
X95900Y30502D02*
Y39450D01*
Y30502D02*
X96432Y29969D01*
Y13631D02*
Y29969D01*
X58650Y233100D02*
Y236800D01*
X58050Y232500D02*
X58650Y233100D01*
X46325Y232500D02*
X58050D01*
X55163Y240287D02*
X58650Y236800D01*
X70041Y228921D02*
Y234250D01*
Y228921D02*
X72200Y226763D01*
Y222643D02*
Y226763D01*
X113400Y232099D02*
Y233100D01*
X90569Y220138D02*
X91447Y221016D01*
X90569Y220031D02*
Y220138D01*
X103250Y225102D02*
Y233400D01*
X103100Y224953D02*
X103250Y225102D01*
X113400Y233100D02*
X117800Y237500D01*
X21201Y231379D02*
X21650Y230929D01*
Y222029D02*
Y230929D01*
D17*
X41791Y227790D02*
Y228921D01*
X43288Y230417D02*
X43591Y230113D01*
X44060Y227121D02*
X44528D01*
X43288Y236353D02*
X46128Y239193D01*
X41488Y229225D02*
Y236353D01*
X39400Y225950D02*
X40772Y227321D01*
X43591Y227590D02*
X44060Y227121D01*
X43288Y230417D02*
Y236353D01*
X41488Y229225D02*
X41791Y228921D01*
X43591Y227590D02*
Y230113D01*
X41323Y227321D02*
X41791Y227790D01*
X40772Y227321D02*
X41323D01*
X38648Y239193D02*
X41488Y236353D01*
X228212Y118584D02*
X229996D01*
X228212Y116616D02*
X230714D01*
X80323Y221016D02*
X82793D01*
X77737Y218429D02*
X80323Y221016D01*
X47800Y207885D02*
X51290D01*
X51675Y207500D02*
X52000D01*
X51290Y207885D02*
X51675Y207500D01*
X47800Y209657D02*
X56284D01*
X28052D02*
X37170D01*
X47800Y204342D02*
X52350D01*
X40572Y244899D02*
Y248096D01*
X40399Y248269D02*
X40572Y248096D01*
Y244899D02*
X41171Y244300D01*
Y241716D02*
Y244300D01*
X33600Y205050D02*
Y205237D01*
X36156Y207793D01*
X31547Y211428D02*
X37170D01*
X37078Y207793D02*
X37170Y207885D01*
X36156Y207793D02*
X37078D01*
X37170Y198596D02*
Y204342D01*
Y206113D02*
X39835D01*
X48718Y236800D02*
X52350D01*
X46325Y239193D02*
X48718Y236800D01*
X44327Y214884D02*
X45857D01*
X43550Y215661D02*
X44327Y214884D01*
X43550Y215661D02*
Y217610D01*
X38335Y214106D02*
X39113Y214884D01*
X40808D02*
X41750Y215826D01*
Y217610D01*
X45857Y214884D02*
X46635Y214106D01*
X39113Y214884D02*
X40808D01*
X41281Y218079D02*
X41750Y217610D01*
X46635Y214070D02*
X47505Y213200D01*
X43550Y217610D02*
X44019Y218079D01*
X46635Y214070D02*
Y214106D01*
X40772Y218079D02*
X41281D01*
X37170Y213200D02*
X37465D01*
X38335Y214070D01*
Y214106D01*
X39400Y219450D02*
X40772Y218079D01*
X47505Y213200D02*
X47800D01*
X44019Y218079D02*
X44528D01*
X45900Y219450D01*
X46128Y239193D02*
X46325D01*
X44528Y227121D02*
X45900Y225750D01*
X42971Y242350D02*
X46128Y239193D01*
X42971Y247083D02*
X43288Y247400D01*
X42971Y242350D02*
Y247083D01*
X38648Y239193D02*
X41171Y241716D01*
X38451Y239193D02*
X38648D01*
D22*
X249314Y94361D02*
D03*
Y114439D02*
D03*
D23*
X186044Y148200D02*
D03*
D24*
X193544Y152000D02*
D03*
Y149500D02*
D03*
Y146900D02*
D03*
Y144400D02*
D03*
X178544D02*
D03*
Y146900D02*
D03*
Y149500D02*
D03*
Y152000D02*
D03*
D25*
X189844Y140700D02*
D03*
X187344D02*
D03*
X184744D02*
D03*
X182244D02*
D03*
Y155700D02*
D03*
X184744D02*
D03*
X187344D02*
D03*
X189844D02*
D03*
D26*
X47108Y132338D02*
D03*
X55841D02*
D03*
X47108Y123747D02*
D03*
X55841D02*
D03*
X95360Y131527D02*
D03*
X106600D02*
D03*
X95360Y120015D02*
D03*
X106600D02*
D03*
D27*
X126502Y109312D02*
D03*
Y151831D02*
D03*
Y147107D02*
D03*
Y142383D02*
D03*
Y137658D02*
D03*
Y132934D02*
D03*
Y128209D02*
D03*
Y123485D02*
D03*
Y118761D02*
D03*
Y114036D02*
D03*
Y104587D02*
D03*
D28*
X31065Y154603D02*
D03*
X35789D02*
D03*
X40514D02*
D03*
X45238D02*
D03*
X49963D02*
D03*
X54687D02*
D03*
X59412D02*
D03*
X64136D02*
D03*
X68860D02*
D03*
X73585D02*
D03*
X78309D02*
D03*
X83034D02*
D03*
X87758D02*
D03*
X92482D02*
D03*
X97207D02*
D03*
X101931D02*
D03*
X106656D02*
D03*
X111380D02*
D03*
X116104D02*
D03*
X120829D02*
D03*
Y101847D02*
D03*
X116104D02*
D03*
X111380D02*
D03*
X106656D02*
D03*
X101931D02*
D03*
X97207D02*
D03*
X92482D02*
D03*
X87758D02*
D03*
X83034D02*
D03*
X78309D02*
D03*
X73585D02*
D03*
X68860D02*
D03*
X64136D02*
D03*
X59412D02*
D03*
X54687D02*
D03*
X49963D02*
D03*
X45238D02*
D03*
X40514D02*
D03*
X35789D02*
D03*
X31065D02*
D03*
D29*
X289900Y191326D02*
D03*
Y149200D02*
D03*
Y201600D02*
D03*
Y243726D02*
D03*
D30*
X268050Y182074D02*
D03*
Y174200D02*
D03*
Y166326D02*
D03*
Y158452D02*
D03*
Y210852D02*
D03*
Y218726D02*
D03*
Y226600D02*
D03*
Y234474D02*
D03*
D33*
X223752Y109083D02*
D03*
X229264D02*
D03*
X174756Y133600D02*
D03*
X169244D02*
D03*
D34*
X200641Y147400D02*
D03*
Y144250D02*
D03*
D35*
X210300Y75450D02*
D03*
Y81750D02*
D03*
X103100Y218653D02*
D03*
Y224953D02*
D03*
X39400Y219450D02*
D03*
Y225750D02*
D03*
X45900D02*
D03*
Y219450D02*
D03*
X27754Y202806D02*
D03*
Y196507D02*
D03*
X12557Y215440D02*
D03*
Y209140D02*
D03*
X117700Y39350D02*
D03*
Y45650D02*
D03*
X129850Y251713D02*
D03*
Y258013D02*
D03*
X89000Y39350D02*
D03*
Y45650D02*
D03*
X27754Y209358D02*
D03*
Y215658D02*
D03*
X20050Y209140D02*
D03*
Y215440D02*
D03*
X113400Y224850D02*
D03*
Y231150D02*
D03*
X229800Y248100D02*
D03*
Y241801D02*
D03*
X229900Y234899D02*
D03*
Y228600D02*
D03*
X111080Y39376D02*
D03*
Y45675D02*
D03*
X125300Y46150D02*
D03*
Y39850D02*
D03*
X243100Y172550D02*
D03*
Y178850D02*
D03*
X81809Y201201D02*
D03*
Y207500D02*
D03*
X74963Y193257D02*
D03*
Y199556D02*
D03*
X201892Y187250D02*
D03*
Y180950D02*
D03*
X103100Y198750D02*
D03*
Y205050D02*
D03*
X120729Y187900D02*
D03*
Y181601D02*
D03*
X227500Y83850D02*
D03*
Y90150D02*
D03*
X37900Y49623D02*
D03*
Y55922D02*
D03*
X70000Y27950D02*
D03*
Y21650D02*
D03*
X62400Y52773D02*
D03*
Y59072D02*
D03*
X276600Y82150D02*
D03*
Y75850D02*
D03*
X103500Y45387D02*
D03*
Y39088D02*
D03*
X62400Y21344D02*
D03*
Y15044D02*
D03*
X96432Y45387D02*
D03*
Y39088D02*
D03*
X104900Y182150D02*
D03*
Y188450D02*
D03*
D36*
X280800Y30857D02*
D03*
Y37943D02*
D03*
D37*
X96432Y13631D02*
D03*
Y29969D02*
D03*
X87968D02*
D03*
Y13631D02*
D03*
X170624Y151841D02*
D03*
X163931D02*
D03*
X117068Y13131D02*
D03*
Y29469D02*
D03*
X125532D02*
D03*
Y13131D02*
D03*
D38*
X123163Y90601D02*
D03*
X32886Y180000D02*
D03*
X71100Y162700D02*
D03*
X34800Y162800D02*
D03*
X64136D02*
D03*
X117800Y237500D02*
D03*
X200300Y233287D02*
D03*
X140000Y222600D02*
D03*
X199300Y256900D02*
D03*
X200159Y248213D02*
D03*
X200259Y240500D02*
D03*
X200300Y219530D02*
D03*
X38100Y74300D02*
D03*
X20300Y73700D02*
D03*
X137800Y132934D02*
D03*
Y126301D02*
D03*
X137700Y119175D02*
D03*
X68700Y92200D02*
D03*
X257894Y149500D02*
D03*
X69434Y34488D02*
D03*
X250350Y190550D02*
D03*
X62300Y45822D02*
D03*
D39*
X38451Y231713D02*
D03*
X46325Y239193D02*
D03*
X38451D02*
D03*
D40*
X46325Y232500D02*
D03*
D41*
X21736Y182929D02*
D03*
X11500D02*
D03*
D42*
X185655Y216491D02*
D03*
X162152D02*
D03*
D43*
X148372Y234896D02*
D03*
Y220329D02*
D03*
D44*
X149061Y258617D02*
D03*
D45*
X158746Y259109D02*
D03*
X163077D02*
D03*
X167408D02*
D03*
X171738D02*
D03*
X176069D02*
D03*
X180400D02*
D03*
X184730D02*
D03*
D46*
X188864D02*
D03*
D47*
X193628Y257731D02*
D03*
D48*
X121582Y170500D02*
D03*
X129850D02*
D03*
X113178D02*
D03*
X104910D02*
D03*
X38666Y197100D02*
D03*
X46934D02*
D03*
D49*
X37840Y248269D02*
D03*
X40399D02*
D03*
X42958D02*
D03*
X45517D02*
D03*
X48076D02*
D03*
D50*
X30754Y249548D02*
D03*
X55163D02*
D03*
D51*
X26816Y258800D02*
D03*
X59100D02*
D03*
D52*
X39612D02*
D03*
X46305D02*
D03*
D53*
X224472Y127800D02*
D03*
X227928D02*
D03*
D54*
X28100Y48500D02*
D03*
Y42988D02*
D03*
D55*
X47415Y36440D02*
D03*
X54600D02*
D03*
Y34454D02*
D03*
Y32470D02*
D03*
X47415Y32485D02*
D03*
Y34454D02*
D03*
D56*
X53960Y29877D02*
D03*
X51992D02*
D03*
X50023D02*
D03*
X48040D02*
D03*
X48000Y39031D02*
D03*
X50023D02*
D03*
X51992D02*
D03*
X53970D02*
D03*
D57*
X216334Y103028D02*
D03*
Y108545D02*
D03*
D58*
X50023Y48500D02*
D03*
X46086D02*
D03*
D59*
X144500Y184100D02*
D03*
X182500D02*
D03*
D60*
X37170Y213200D02*
D03*
Y211428D02*
D03*
Y209657D02*
D03*
Y207885D02*
D03*
Y206113D02*
D03*
Y204342D02*
D03*
X47800D02*
D03*
Y206113D02*
D03*
Y207885D02*
D03*
Y209657D02*
D03*
Y211428D02*
D03*
Y213200D02*
D03*
D61*
X42485Y208771D02*
D03*
D62*
X205759Y153600D02*
D03*
X200641D02*
D03*
D63*
X165965Y139800D02*
D03*
X169035D02*
D03*
D64*
X77128Y234250D02*
D03*
X70041D02*
D03*
X19643Y191329D02*
D03*
X12557D02*
D03*
X38343Y92200D02*
D03*
X31257D02*
D03*
X38143Y83400D02*
D03*
X31057D02*
D03*
D65*
X137286Y152000D02*
D03*
Y142157D02*
D03*
D66*
X225908Y167200D02*
D03*
X201892D02*
D03*
D67*
X21201Y231379D02*
D03*
X27500D02*
D03*
X12850Y199750D02*
D03*
X19150D02*
D03*
X21650Y222029D02*
D03*
X27950D02*
D03*
X58650Y236800D02*
D03*
X52350D02*
D03*
X145301Y142100D02*
D03*
X151600D02*
D03*
Y148528D02*
D03*
X145301D02*
D03*
X45873Y184600D02*
D03*
X39573D02*
D03*
X109750Y85100D02*
D03*
X116050D02*
D03*
X58800Y86968D02*
D03*
X52500D02*
D03*
X133350Y239000D02*
D03*
X139650D02*
D03*
X133450Y229500D02*
D03*
X139750D02*
D03*
X108699Y212314D02*
D03*
X102400D02*
D03*
X96950Y233400D02*
D03*
X103250D02*
D03*
X251595Y158452D02*
D03*
X257894D02*
D03*
X256800Y181750D02*
D03*
X250500D02*
D03*
X197895Y90601D02*
D03*
X204194D02*
D03*
X193941Y78800D02*
D03*
X200240D02*
D03*
D68*
X39100Y30517D02*
D03*
Y34454D02*
D03*
D69*
X72200Y215557D02*
D03*
Y222643D02*
D03*
D70*
X88600Y205677D02*
D03*
Y197409D02*
D03*
X96290Y196718D02*
D03*
Y188450D02*
D03*
X101931Y85082D02*
D03*
Y93350D02*
D03*
D71*
X277057Y67300D02*
D03*
X284143D02*
D03*
D72*
X179025Y133100D02*
D03*
X182175D02*
D03*
D147*
X88600Y222000D02*
D03*
D148*
X94407Y224953D02*
D03*
Y222984D02*
D03*
Y221016D02*
D03*
Y219047D02*
D03*
X82793D02*
D03*
Y221016D02*
D03*
Y222984D02*
D03*
Y224953D02*
D03*
D149*
X91553Y216193D02*
D03*
X89584D02*
D03*
X87616D02*
D03*
X85647D02*
D03*
Y227807D02*
D03*
X87616D02*
D03*
X89584D02*
D03*
X91553D02*
D03*
D150*
X7200Y243099D02*
D03*
X8800Y25100D02*
D03*
X273300Y259800D02*
D03*
D151*
X224472Y117600D02*
D03*
D152*
X228212Y120553D02*
D03*
Y118584D02*
D03*
Y116616D02*
D03*
Y114647D02*
D03*
X220731D02*
D03*
Y116616D02*
D03*
Y118584D02*
D03*
Y120553D02*
D03*
D153*
X85647Y219047D02*
X86632Y220031D01*
X85647Y224953D02*
Y227807D01*
X86338Y224262D02*
X88600Y222000D01*
X85647Y224953D02*
X85966Y224634D01*
X82738Y224914D02*
X82793Y224859D01*
X81643Y207500D02*
Y212189D01*
X94407Y219047D02*
X98557D01*
X220247Y116565D02*
X220680D01*
X220681Y120654D02*
X220731Y120603D01*
X77737Y205668D02*
Y218429D01*
X78883Y222825D02*
X79043Y222984D01*
X74963Y202894D02*
X77737Y205668D01*
X74963Y199556D02*
Y202894D01*
X81643Y212189D02*
X85647Y216193D01*
X215116Y116616D02*
X220731D01*
X215000Y116500D02*
X215116Y116616D01*
X106792Y250800D02*
X107000D01*
X79043Y222984D02*
X82793D01*
Y219047D02*
X85647D01*
X82793Y224953D02*
X85647D01*
X75877Y222718D02*
X78074Y224914D01*
X82738D01*
X72200Y222643D02*
X72274Y222718D01*
X75877D01*
X220680Y116565D02*
X220731Y116616D01*
Y118584D01*
X223881D02*
X224472Y119175D01*
X220731Y118584D02*
X223881D01*
X113400Y231150D02*
Y232099D01*
X108699Y236800D02*
X113400Y232099D01*
X95055Y236800D02*
X108699D01*
X93436Y235182D02*
X95055Y236800D01*
X93436Y229094D02*
Y235182D01*
X92149Y227807D02*
X93436Y229094D01*
X91553Y227807D02*
X92149D01*
X91447Y221016D02*
X94407D01*
Y222984D01*
X102315Y212229D02*
X102400Y212314D01*
X98200Y212229D02*
X102315D01*
X94236Y216193D02*
X98200Y212229D01*
X91553Y216193D02*
X94236D01*
X94407Y224953D02*
X96950Y227496D01*
Y233400D01*
X94407Y222984D02*
X101131D01*
X103100Y224953D01*
D154*
X255500Y173900D02*
X268800D01*
X243250Y190550D02*
X250350D01*
Y181901D02*
Y190550D01*
X27950Y222029D02*
X35680D01*
X39400Y225750D01*
D155*
X225908Y167200D02*
X233800D01*
D156*
X267876Y181900D02*
X268050Y182074D01*
X257550Y181900D02*
X267876D01*
X201892Y187250D02*
X202089D01*
D157*
X98557Y219047D02*
X102706D01*
D158*
X87800Y250500D02*
D03*
D159*
X97800D02*
D03*
X107800D02*
D03*
D160*
X247700Y58742D02*
D03*
Y39057D02*
D03*
D161*
X208735Y44374D02*
D03*
Y36500D02*
D03*
Y28626D02*
D03*
D162*
X165526Y71342D02*
D03*
X173402D02*
D03*
X181274D02*
D03*
D163*
X290900Y54900D02*
D03*
X285900D02*
D03*
X280900D02*
D03*
D164*
X182344Y115654D02*
D03*
D165*
Y110654D02*
D03*
X187344Y115654D02*
D03*
Y110654D02*
D03*
Y100654D02*
D03*
Y105654D02*
D03*
X182344Y100654D02*
D03*
Y105654D02*
D03*
Y95654D02*
D03*
X187344D02*
D03*
D166*
X289200Y9300D02*
D03*
X8800Y10100D02*
D03*
X8252Y256768D02*
D03*
X289300Y256900D02*
D03*
D167*
X88600Y222000D02*
D03*
X90569Y220031D02*
D03*
X86632Y220031D02*
D03*
X86632Y223969D02*
D03*
X90569Y223969D02*
D03*
X224472Y119175D02*
D03*
Y116025D02*
D03*
X44453Y212314D02*
D03*
Y208771D02*
D03*
Y205228D02*
D03*
X40516D02*
D03*
Y208771D02*
D03*
Y212314D02*
D03*
X26800Y124202D02*
D03*
X32886Y196494D02*
D03*
X18500Y81500D02*
D03*
X10161D02*
D03*
X1841D02*
D03*
X10161Y174120D02*
D03*
X18480D02*
D03*
X1841D02*
D03*
X26800D02*
D03*
Y165800D02*
D03*
Y82603D02*
D03*
Y90923D02*
D03*
Y99243D02*
D03*
Y107562D02*
D03*
Y115882D02*
D03*
Y132521D02*
D03*
Y140841D02*
D03*
Y149161D02*
D03*
Y157480D02*
D03*
X87925Y6120D02*
D03*
X21236Y249548D02*
D03*
X243100Y167200D02*
D03*
X245662Y158452D02*
D03*
X234200Y179600D02*
D03*
X212000Y153700D02*
D03*
X233800Y167200D02*
D03*
X11500Y222383D02*
D03*
X120829Y107000D02*
D03*
X106656D02*
D03*
X93974Y113768D02*
D03*
X105046Y113404D02*
D03*
X112743Y122320D02*
D03*
X88900Y126301D02*
D03*
X44349Y117300D02*
D03*
X44424Y139700D02*
D03*
X66978Y251700D02*
D03*
X73585Y150082D02*
D03*
X112743Y133700D02*
D03*
X55650Y139700D02*
D03*
X55840Y117300D02*
D03*
X40808Y123747D02*
D03*
X101863Y149354D02*
D03*
X92600Y166700D02*
D03*
X82793Y147950D02*
D03*
X228320Y136978D02*
D03*
X224731Y139655D02*
D03*
X227928Y142100D02*
D03*
X160000Y123200D02*
D03*
X160799Y126301D02*
D03*
X236200Y80500D02*
D03*
X238150Y83098D02*
D03*
X234200D02*
D03*
X8252Y196494D02*
D03*
X12557Y204667D02*
D03*
X116050Y90601D02*
D03*
X199124Y117600D02*
D03*
X193800Y126301D02*
D03*
X151700Y122320D02*
D03*
Y126301D02*
D03*
X59200Y95654D02*
D03*
X132963Y163200D02*
D03*
X155500Y92611D02*
D03*
X243100Y190700D02*
D03*
X207632Y189821D02*
D03*
X210500Y191326D02*
D03*
Y194000D02*
D03*
X207400Y192500D02*
D03*
X250900Y218900D02*
D03*
X250400Y210600D02*
D03*
X173838Y141487D02*
D03*
Y146400D02*
D03*
X170528Y143450D02*
D03*
X112500Y188357D02*
D03*
X98557Y219047D02*
D03*
X87684Y211333D02*
D03*
X73622Y95654D02*
D03*
X87300Y235184D02*
D03*
X85600Y232200D02*
D03*
X82793Y235184D02*
D03*
X162500Y245500D02*
D03*
X97207Y164000D02*
D03*
X52000Y207500D02*
D03*
X23000Y204417D02*
D03*
X32886Y188357D02*
D03*
X31000Y185686D02*
D03*
X28887Y188357D02*
D03*
X56284Y209657D02*
D03*
X57467Y178000D02*
D03*
X33600Y205050D02*
D03*
X19600Y204217D02*
D03*
X77100Y251713D02*
D03*
X72200Y251700D02*
D03*
X74464Y254805D02*
D03*
X69541Y254863D02*
D03*
X127486Y211775D02*
D03*
X125000Y214884D02*
D03*
X123000Y211814D02*
D03*
X120179Y214884D02*
D03*
X37900Y64000D02*
D03*
X29500Y71820D02*
D03*
X83034Y94600D02*
D03*
X224000Y228000D02*
D03*
X80000Y107000D02*
D03*
X224000Y242000D02*
D03*
X88900Y131500D02*
D03*
X40772Y132338D02*
D03*
X120829Y150082D02*
D03*
X206000Y226600D02*
D03*
X151700Y133600D02*
D03*
X117100Y6000D02*
D03*
X196800Y85200D02*
D03*
X68860Y85100D02*
D03*
X207400Y244700D02*
D03*
X31000Y76100D02*
D03*
X45500Y80100D02*
D03*
X78883Y222825D02*
D03*
X122100Y251700D02*
D03*
X138400Y258100D02*
D03*
X207632Y252550D02*
D03*
X255400Y173800D02*
D03*
X215000Y116500D02*
D03*
X276600Y89600D02*
D03*
X220000Y28700D02*
D03*
X88800Y52773D02*
D03*
X113178Y73100D02*
D03*
X68700Y135000D02*
D03*
X106656Y32485D02*
D03*
X106600Y160460D02*
D03*
X132800Y159900D02*
D03*
X109750Y164000D02*
D03*
X142900Y262600D02*
D03*
X46900Y87000D02*
D03*
X77400Y21800D02*
D03*
X97207Y76100D02*
D03*
X246400Y149700D02*
D03*
X137800Y137944D02*
D03*
X290600Y38600D02*
D03*
X81800Y15400D02*
D03*
X72500Y46000D02*
D03*
X79200Y34500D02*
D03*
X55700Y48400D02*
D03*
X250400Y234900D02*
D03*
X280900Y21000D02*
D03*
X116104Y94600D02*
D03*
X137700Y109083D02*
D03*
X250300Y226600D02*
D03*
M02*
