G04*
G04 #@! TF.GenerationSoftware,Altium Limited,Altium Designer,22.2.1 (43)*
G04*
G04 Layer_Color=16711935*
%FSLAX25Y25*%
%MOIN*%
G70*
G04*
G04 #@! TF.SameCoordinates,9584CBA6-E8C1-4CB1-A2AA-B777170A1881*
G04*
G04*
G04 #@! TF.FilePolarity,Negative*
G04*
G01*
G75*
%ADD136C,0.04760*%
%ADD137R,0.04760X0.04760*%
%ADD138O,0.12212X0.06306*%
%ADD139O,0.06306X0.12212*%
%ADD140C,0.07887*%
%ADD141R,0.07887X0.07887*%
%ADD142C,0.05839*%
%ADD143O,0.05131X0.09461*%
%ADD144C,0.14973*%
%ADD145C,0.02800*%
%ADD146C,0.02551*%
G36*
X188500Y94600D02*
X181274D01*
Y116800D01*
X188500D01*
Y94600D01*
D02*
G37*
D136*
X187344Y95654D02*
D03*
X182344D02*
D03*
Y105654D02*
D03*
Y100654D02*
D03*
X187344Y105654D02*
D03*
Y100654D02*
D03*
Y110654D02*
D03*
Y115654D02*
D03*
X182344Y110654D02*
D03*
D137*
Y115654D02*
D03*
D138*
X208735Y28626D02*
D03*
Y36500D02*
D03*
Y44374D02*
D03*
D139*
X181274Y71342D02*
D03*
X173402D02*
D03*
X165526D02*
D03*
D140*
X107800Y250500D02*
D03*
X97800D02*
D03*
D141*
X87800D02*
D03*
D142*
X247700Y39057D02*
D03*
Y58742D02*
D03*
D143*
X280900Y54900D02*
D03*
X285900D02*
D03*
X290900D02*
D03*
D144*
X289200Y9300D02*
D03*
X8800Y10100D02*
D03*
X8252Y256768D02*
D03*
X289300Y256900D02*
D03*
D145*
X40516Y212314D02*
D03*
Y208771D02*
D03*
Y205228D02*
D03*
X44453D02*
D03*
Y208771D02*
D03*
Y212314D02*
D03*
X90569Y223969D02*
D03*
X86632Y223969D02*
D03*
X86632Y220031D02*
D03*
X90569Y220031D02*
D03*
X88600Y222000D02*
D03*
D146*
X224472Y116025D02*
D03*
Y119175D02*
D03*
M02*
