M48
;Layer_Color=9474304
;FILE_FORMAT=2:5
INCH,LZ
;TYPE=PLATED
T1F00S00C0.00800
T2F00S00C0.02560
T3F00S00C0.03000
T4F00S00C0.03346
T5F00S00C0.03543
T6F00S00C0.05000
T7F00S00C0.10630
%
T01
X00818Y00154
X0087925Y000612
X01171Y0006
X02809Y0021
X02906Y00386
X02766Y00896
X02464Y01497
X0245662Y0158452
X02431Y01672
X02338
X0227928Y01421
X022832Y0136978
X0224731Y0139655
X0224472Y0119175
Y0116025
X0215Y01165
X0199124Y01176
X01938Y0126301
X0160799
X016Y01232
X01517Y012232
Y0126301
Y01336
X01378Y0137944
X01328Y01599
X0132963Y01632
X010975Y0164
X01066Y016046
X0097207Y0164
X00926Y01667
X0101863Y0149354
X0120829Y0150082
X0112743Y01337
Y012232
X0105046Y0113404
X0106656Y0107
X0120829
X0116104Y00946
X011605Y0090601
X0113178Y00731
X0097207Y00761
X00888Y0052773
X0106656Y0032485
X0093974Y0113768
X00889Y0126301
Y01315
X01377Y0109083
X01555Y0092611
X01968Y00852
X02342Y0083098
X023815
X02362Y00805
X022Y00287
X0212Y01537
X0173838Y01464
Y0141487
X0170528Y014345
X0082793Y014795
X0073585Y0150082
X00687Y0135
X005565Y01397
X0044424
X0040772Y0132338
X0040808Y0123747
X0044349Y01173
X005584
X00592Y0095654
X0073622
X0083034Y00946
X008Y0107
X006886Y00851
X00469Y0087
X00455Y00801
X0031Y00761
X00295Y007182
X00268Y0082603
Y0090923
Y0099243
Y0107562
Y0115882
Y0124202
Y0132521
Y0140841
Y0149161
Y015748
Y01658
X00185Y00815
X0010161
X0001841
X00379Y0064
X00557Y00484
X00725Y0046
X00792Y00345
X00774Y00218
X0057467Y0178
X0056284Y0209657
X0052Y02075
X0044453Y0208771
Y0205228
X0040516
Y0208771
Y0212314
X0044453
X00336Y020505
X0032886Y0196494
Y0188357
X0028887
X0031Y0185686
X00268Y017412
X001848
X0010161
X0001841
X0008252Y0196494
X0012557Y0204667
X00196Y0204217
X0023Y0204417
X00115Y0222383
X0021236Y0249548
X0066978Y02517
X00722
X00771Y0251713
X0074464Y0254805
X0069541Y0254863
X0082793Y0235184
X00856Y02322
X0086632Y0223969
X0086632Y0220031
X0078883Y0222825
X00886Y0222
X0090569Y0223969
X0090569Y0220031
X0098557Y0219047
X0087684Y0211333
X00873Y0235184
X01221Y02517
X01384Y02581
X01429Y02626
X01625Y02455
X02074Y02447
X0207632Y025255
X0224Y0242
Y0228
X0206Y02266
X02074Y01925
X0207632Y0189821
X02105Y0191326
Y0194
X02431Y01907
X02342Y01796
X01125Y0188357
X0123Y0211814
X0127486Y0211775
X0125Y0214884
X0120179
X02504Y02106
X02509Y02189
X02503Y02266
X02504Y02349
X02554Y01738
T02
X0182344Y0095654
X0187344
Y0100654
X0182344
Y0105654
X0187344
Y0110654
Y0115654
X0182344
Y0110654
T03
X02809Y00549
X02859
X02909
T04
X02477Y0039057
Y0058742
T05
X0165526Y0071342
X0173402
X0181274
X0208735Y0044374
Y00365
Y0028626
T06
X00878Y02505
X00978
X01078
T07
X00088Y00101
X02892Y00093
X0008252Y0256768
X02893Y02569
M30
