G04*
G04 #@! TF.GenerationSoftware,Altium Limited,Altium Designer,22.1.2 (22)*
G04*
G04 Layer_Color=16711935*
%FSLAX25Y25*%
%MOIN*%
G70*
G04*
G04 #@! TF.SameCoordinates,116BC8F2-B144-4446-8F30-5785F86A2056*
G04*
G04*
G04 #@! TF.FilePolarity,Negative*
G04*
G01*
G75*
%ADD136R,0.07887X0.07887*%
%ADD137C,0.07887*%
%ADD138C,0.05839*%
%ADD139O,0.12212X0.06306*%
%ADD140O,0.06306X0.12212*%
%ADD141O,0.05131X0.09461*%
%ADD142R,0.04760X0.04760*%
%ADD143C,0.04760*%
%ADD144C,0.14973*%
%ADD145C,0.02800*%
%ADD146C,0.02551*%
G36*
X188500Y94600D02*
X181274D01*
Y116800D01*
X188500D01*
Y94600D01*
D02*
G37*
D136*
X87800Y250500D02*
D03*
D137*
X97800D02*
D03*
X107800D02*
D03*
D138*
X247700Y58742D02*
D03*
Y39057D02*
D03*
D139*
X208735Y44374D02*
D03*
Y36500D02*
D03*
Y28626D02*
D03*
D140*
X165526Y71342D02*
D03*
X173402D02*
D03*
X181274D02*
D03*
D141*
X290900Y54900D02*
D03*
X285900D02*
D03*
X280900D02*
D03*
D142*
X182344Y115654D02*
D03*
D143*
Y110654D02*
D03*
X187344Y115654D02*
D03*
Y110654D02*
D03*
Y100654D02*
D03*
Y105654D02*
D03*
X182344Y100654D02*
D03*
Y105654D02*
D03*
Y95654D02*
D03*
X187344D02*
D03*
D144*
X289200Y9300D02*
D03*
X8800Y10100D02*
D03*
X8252Y256768D02*
D03*
X289300Y256900D02*
D03*
D145*
X88600Y222000D02*
D03*
X90569Y220031D02*
D03*
X86632Y220031D02*
D03*
X86632Y223969D02*
D03*
X90569Y223969D02*
D03*
X44453Y212314D02*
D03*
Y208771D02*
D03*
Y205228D02*
D03*
X40516D02*
D03*
Y208771D02*
D03*
Y212314D02*
D03*
D146*
X224472Y119175D02*
D03*
Y116025D02*
D03*
M02*
